<mxfile host="app.diagrams.net" agent="Mozilla/5.0 (Windows NT 10.0; Win64; x64) AppleWebKit/537.36 (KHTML, like Gecko) Chrome/138.0.0.0 Safari/537.36" version="28.0.6">
  <diagram name="Page-1" id="3wyx4mvGFv_i2H9MVGc8">
    <mxGraphModel dx="496" dy="268" grid="1" gridSize="10" guides="1" tooltips="1" connect="1" arrows="1" fold="1" page="1" pageScale="1" pageWidth="850" pageHeight="190" math="0" shadow="0">
      <root>
        <mxCell id="0" />
        <mxCell id="1" parent="0" />
        <mxCell id="0yVlcpvxOaxAhsToYy31-1" value="" style="ellipse;whiteSpace=wrap;html=1;aspect=fixed;" vertex="1" parent="1">
          <mxGeometry x="110" y="70" width="30" height="30" as="geometry" />
        </mxCell>
        <mxCell id="0yVlcpvxOaxAhsToYy31-2" value="" style="ellipse;whiteSpace=wrap;html=1;aspect=fixed;" vertex="1" parent="1">
          <mxGeometry x="510" y="10" width="30" height="30" as="geometry" />
        </mxCell>
        <mxCell id="0yVlcpvxOaxAhsToYy31-3" value="" style="ellipse;whiteSpace=wrap;html=1;aspect=fixed;" vertex="1" parent="1">
          <mxGeometry x="110" y="130" width="30" height="30" as="geometry" />
        </mxCell>
        <mxCell id="0yVlcpvxOaxAhsToYy31-4" value="" style="ellipse;whiteSpace=wrap;html=1;aspect=fixed;" vertex="1" parent="1">
          <mxGeometry x="510" y="70" width="30" height="30" as="geometry" />
        </mxCell>
        <mxCell id="0yVlcpvxOaxAhsToYy31-7" value="" style="ellipse;whiteSpace=wrap;html=1;aspect=fixed;" vertex="1" parent="1">
          <mxGeometry x="110" y="195" width="30" height="30" as="geometry" />
        </mxCell>
        <mxCell id="0yVlcpvxOaxAhsToYy31-8" value="" style="ellipse;whiteSpace=wrap;html=1;aspect=fixed;" vertex="1" parent="1">
          <mxGeometry x="510" y="135" width="30" height="30" as="geometry" />
        </mxCell>
        <mxCell id="0yVlcpvxOaxAhsToYy31-10" value="" style="ellipse;whiteSpace=wrap;html=1;aspect=fixed;" vertex="1" parent="1">
          <mxGeometry x="510" y="195" width="30" height="30" as="geometry" />
        </mxCell>
        <mxCell id="0yVlcpvxOaxAhsToYy31-11" value="" style="ellipse;whiteSpace=wrap;html=1;aspect=fixed;" vertex="1" parent="1">
          <mxGeometry x="510" y="340" width="30" height="30" as="geometry" />
        </mxCell>
        <mxCell id="0yVlcpvxOaxAhsToYy31-12" value="" style="ellipse;whiteSpace=wrap;html=1;aspect=fixed;" vertex="1" parent="1">
          <mxGeometry x="510" y="400" width="30" height="30" as="geometry" />
        </mxCell>
        <mxCell id="0yVlcpvxOaxAhsToYy31-13" value="" style="ellipse;whiteSpace=wrap;html=1;aspect=fixed;" vertex="1" parent="1">
          <mxGeometry x="510" y="465" width="30" height="30" as="geometry" />
        </mxCell>
        <mxCell id="0yVlcpvxOaxAhsToYy31-14" value="" style="ellipse;whiteSpace=wrap;html=1;aspect=fixed;" vertex="1" parent="1">
          <mxGeometry x="510" y="525" width="30" height="30" as="geometry" />
        </mxCell>
        <mxCell id="0yVlcpvxOaxAhsToYy31-15" value="" style="ellipse;whiteSpace=wrap;html=1;aspect=fixed;" vertex="1" parent="1">
          <mxGeometry x="110" y="340" width="30" height="30" as="geometry" />
        </mxCell>
        <mxCell id="0yVlcpvxOaxAhsToYy31-16" value="" style="ellipse;whiteSpace=wrap;html=1;aspect=fixed;" vertex="1" parent="1">
          <mxGeometry x="110" y="400" width="30" height="30" as="geometry" />
        </mxCell>
        <mxCell id="0yVlcpvxOaxAhsToYy31-17" value="" style="ellipse;whiteSpace=wrap;html=1;aspect=fixed;" vertex="1" parent="1">
          <mxGeometry x="110" y="465" width="30" height="30" as="geometry" />
        </mxCell>
        <mxCell id="0yVlcpvxOaxAhsToYy31-18" value="" style="endArrow=none;html=1;rounded=0;exitX=1;exitY=0.5;exitDx=0;exitDy=0;" edge="1" parent="1" source="0yVlcpvxOaxAhsToYy31-1">
          <mxGeometry width="50" height="50" relative="1" as="geometry">
            <mxPoint x="400" y="220" as="sourcePoint" />
            <mxPoint x="350" y="50" as="targetPoint" />
          </mxGeometry>
        </mxCell>
        <mxCell id="0yVlcpvxOaxAhsToYy31-19" value="" style="endArrow=none;html=1;rounded=0;exitX=1;exitY=0.5;exitDx=0;exitDy=0;" edge="1" parent="1" source="0yVlcpvxOaxAhsToYy31-1">
          <mxGeometry width="50" height="50" relative="1" as="geometry">
            <mxPoint x="200" y="105" as="sourcePoint" />
            <mxPoint x="350" y="90" as="targetPoint" />
          </mxGeometry>
        </mxCell>
        <mxCell id="0yVlcpvxOaxAhsToYy31-20" value="" style="endArrow=none;html=1;rounded=0;exitX=1;exitY=0.5;exitDx=0;exitDy=0;" edge="1" parent="1" source="0yVlcpvxOaxAhsToYy31-1">
          <mxGeometry width="50" height="50" relative="1" as="geometry">
            <mxPoint x="140" y="110" as="sourcePoint" />
            <mxPoint x="320" y="190" as="targetPoint" />
          </mxGeometry>
        </mxCell>
        <mxCell id="0yVlcpvxOaxAhsToYy31-40" value="" style="shape=image;verticalLabelPosition=bottom;labelBackgroundColor=default;verticalAlign=top;aspect=fixed;imageAspect=0;image=data:image/png,iVBORw0KGgoAAAANSUhEUgAAAWgAAAFoCAYAAAB65WHVAAAgAElEQVR4Xu3dCdAWxZ3H8eHl5uUSuQQErxy6qdTulrXxwCOES0WNGgJB3XjFlWPlEgyaoky2IqBy+xpFoi6rKRVPiBxG0ASMW26pld1sRbNGNApy3/e5/98sTb1upZjned+eZ3oy36eKeq+Znp5PT/3o6unpaRDxQQABBBAIUqBBkLWiUggggAACEQHNRYAAAggEKkBAB9owVAsBBBAgoLkGEEAAgUAFCOhAG4ZqIYAAAgQ01wACCCAQqAABHWjDUC0EEECAgOYaQAABBAIVIKADbRiqhQACCBDQXAMIIIBAoAIEdKANQ7UQQAABApprAAEEEAhUgIAOtGGoFgIIIEBAcw0ggAACgQoQ0IE2DNVCAAEECGiuAQQQQCBQAQI60IahWggggAABzTWAAAIIBCpAQAfaMFQLAQQQIKC5BhBAAIFABQjoQBuGaiGAAAIENNcAAgggEKgAAR1ow1AtBBBAgIDmGkAAAQQCFSCgA20YqoUAAggQ0FwDCCCAQKACBHSgDUO1EEAAAQKaawABBBAIVICADrRhqBYCCCBAQHMNIIAAAoEKENCBNgzVQgABBAhorgEEEEAgUAECOtCGoVoIIIAAAc01gAACCAQqQEAH2jBUCwEEECCguQYQQACBQAUI6EAbhmohgAACBDTXAAIIIBCoAAEdaMNQLQQQQICA5hpAAAEEAhUgoANtGKqFAAIIENBcAwgggECgAgR0oA1DtRBAAAECmmsAAQQQCFSAgA60YagWAgggQEBzDSCAAAKBChDQgTYM1UIAAQQIaK4BBBBAIFABAjrQhqFaCCCAAAHNNYAAAggEKkBAB9owVAsBBBAgoLkGEEAAgUAFCOhAG4ZqIYAAAgQ01wACCCAQqAABHWjDUC0EEECAgOYaQAABBAIVIKADbRiqhQACCBDQXAMIIIBAoAIEdKANQ7UQQAABApprAAEEEAhUgIAOtGGoFgIIIEBAcw0ggAACgQoQ0IE2DNVCAAEECGiuAQQQQCBQAQI60IahWggggAABzTWAAAIIBCpAQAfaMFQLAQQQIKC5BhBAAIFABQjoQBuGaiGAAAIENNcAAgggEKgAAR1ow1AtBBBAgIDmGkAAAQQCFSCgA20YqoUAAggQ0FwDCCCAQKACBHSgDUO1EEAAAQKaawABBBAIVICADrRhqBYCCCBAQHMNIIAAAoEKENCBNgzVQgABBAhorgEEEEAgUAECOtCGoVoIIIAAAc01gAACCAQqQEAH2jBUCwEEECCguQYQQACBQAUI6EAbhmohgAACBDTXAAIIIBCoAAEdaMNQLQQQQICA5hpAAAEEAhUgoANtGKpVN4EjR4500J4NGjTYULcS2AuBcAQI6HDagpqUKbBs2bILf/e73w149dVXr9CuBw8ejA4cOHCkTZs2jXbt2rX/qquuevmss856s1evXq+UWTSbIxCEAAEdRDNQiXIEpk+f/oiFcu8NGzacuH///jYtWrSImjVrFlVXV0dbtmyJv2/UqFG0du3aqGnTptsssP88YMCAhSNHjvyR9ayPlHMstkUgSwECOkt9jl2WwG9+85tvT548+cnPPvus2oI3atWqVVRVVRU1adLE9Z6jhg0bxj/v3bs3UnBbjzqyII8aN258sH379r+fMGHC3T179lxU1oHZGIGMBAjojOA5bHkCFswznn766ZEK3xNOOCGynnPUvHnz6PDhw3E429hz/LOC+dChQ/H3+/bt+8Lv169frx715muvvXb26NGj7ymvBmyNQOUFCOjKm3PEMgWmTZs28Zlnnvlx27Zt4z137twZdezYMdqxY0ccwOop25izeslx71nfqydtwxnH/inQ1evW5/PPP99+6623Pjhs2LC7y6wKmyNQUQECuqLcHKxcgfvuu2/8U0899eMuXbo0U49YwatA3rZtWxy4Cmj9UzDv2bMnHvLQ7xXI+l5/0zCHG+5QaKsnbb3uHbfcckuNjUtPKLdObI9ApQQI6EpJc5yyBZYuXfq1u+66a7mNNXdwwxkavlBI66PvFcLH+yigXU9awyH66AaihkK2b9++e+rUqYMvvvjihWVXjh0QqIAAAV0BZA5RN4Err7zyXbvB93cKZ/WQFbAulBW6+llfS/loO9fbVsBr3FpDJe3atftg0aJFXy2lDLZBoNICpV3dla4Vxyu8wIwZMybPnTv3To01q8frhitcKLtgVuge76P9FOq1t3e9bg2DbN26NRoyZMi0cePGjS08OgDBCRDQwTUJFZLAJZdc8oGNFX+5Q4cOx3q+tXvBbtgiKaBdb1nbK5jdMIf7XuFtNxc/XrJkyanIIxCaAAEdWotQn2jFihW9hw4d+mL37t1bKlD1T0Hser5uqML1qpN60BrO0LYKawVy7bLUO1+3bl1kY9FXXnTRRQvgRyAkAQI6pNagLrHApEmTJr/00kt3atxZ48+ul1xqr7k2oxurVkDrewW0PrV743ri0GZ0zBg1atRomgCBkAQI6JBag7rEAn369PmjheaXTjvttGj37t1fGD924aqvbobG8dhqB7S2q32TUd9rSp4CunPnzn945ZVXzqIJEAhJgIAOqTWoSyzQr1+/Dzdv3nx6y5Ytj90g1O/dUIebZpc0/ly7p+yCWmW4m46aH63P0fI+nT9//t+3bt16I82AQCgCBHQoLUE9jgn07t37Y1vwqId7OjBtGo1R24MsaxYuXPi3LFOatjbllyNAQJejxbapC1jPuY0tD/qx9WTb2ip08XoaaX7Us7Zjaj70pzaTower3aWpTdnlChDQ5YqxfWoCNmTRxAJy/2WXXfbx6tWre3Tr1i1+ZDvNj4Y71FO3m4ifL1++vCsBnaY2ZZcrQECXK8b2qQlYQDe0gDxkY9D/Y+s6n6H1MzSTI82Phjd0o9CC+s8LFiw4hYBOU5uyyxUgoMsVY/vUBWxO8oPPPffccK33nPZHNw21Lkffvn0fmjhx4vC0j0f5CJQjQECXo8W2FRF4/fXXv2PrNT9pTxE2LXWtjfpUzIZTDs+ZM2fQ+eef/1x9ymFfBHwLENC+RSmv3gI21NHAhjk+tpt33e3mXb3LO14BukFo632ss/Wmv2499vWpHozCEShTgIAuE4zNKyNgi/TPnjdv3ggtlpTmR2tD22JJD9tiScMYf05TmrLrIkBA10WNfVIXUC+6f//+f7IAPVW9aA116IESjRnXXgNav9cDJ3qbSu2FkNzv3PrRbjvN2nCL+dt60Oo9f2jzn3va39elflIcAIEyBQjoMsHYvHICr7322nfuvPPOf7UQbaFw1mPfmnGh8NVThAplBbBCV7+rvaSo/qYZGm4VOxfQtd/IYsMbW++///5b7NHy5yt3VhwJgdIFCOjSrdgyAwGb0THrscceG9G1a9cGCmM37U6Bq4dYXACrarXftKKf1aPW9lrzWQ+9uHWhtZ/1ng/ceOONj4wYMeJ2hjYyaFgOWZIAAV0SExtlJaChjtmzZ8/6+c9/PsIWNIp7yvYYeDw1TuHretauN+2C2r2HUNtpTQ/1vvXRTUHbZ9/gwYMftZkihHNWDctxSxIgoEtiYqOsBWpqamZaT3qovRi2sfWm43FohbBbRtS9xVv11PCHW/dZP7txZ4052++3Wjg/MX78+DH0nLNuVY6fJEBAJwnx92AEVq5cefXkyZNnrlmzpptu9J166qlxz1hrRutxbTf8ob9VV1fHb/lWOKvXrGENewHAqjFjxtxha328EMxJUREEjiNAQHN55EZAwx2q7KxZsx6wx7Kvthke3e1x8CqFs4Y92rZtG5+Lxpw1tKGQtrA+eNJJJ621JwWfu/nmmycx1zk3zU1FTYCA5jLIrcAbb7xx+TvvvNNz8eLF/a333MxmbTTSNW3DHofsBuE+m52x+Nxzz11hTwi+xTKiuW3mQlecgC508/91nbz1sDvYGX1hwX3Gmf+62rhoZ0NAF63FOV8EEMiNAAGdm6aiogggUDQBArpoLc75IoBAbgQI6Nw0FRVFAIGiCRDQRWtxzhcBBHIjQEDnpqmoKAIIFE2AgC5ai3O+CCCQGwECOjdNRUURQKBoAgR00Vqc80UAgdwIENC5aSoqigACRRMgoIvW4pwvAgjkRoCAzk1TUVEEECiaAAFdtBbnfBFAIDcCBHRumoqKIoBA0QQI6KK1OOeLAAK5ESCgc9NUVBQBBIomQEAXrcU5XwQQyI0AAZ2bpqKiCCBQNAECumgtzvkigEBuBAjo3DQVFUUAgaIJENBFa3HOFwEEciNAQOemqagoAggUTYCALlqLc74IIJAbAQI6N01FRRFAoGgCBHTRWpzzRQCB3AgQ0LlpKiqKAAJFEyCgi9binC8CCORGgIDOTVNRUQQQKJoAAV20Fud8EUAgNwIEdG6aiooigEDRBAjoorU454sAArkRIKBz01RUFAEEiiZAQBetxTlfBBDIjQABnZumoqIIIFA0AQK6aC3O+SKAQG4ECOjcNBUVRQCBogkQ0EVrcc4XAQRyI0BA56apqCgCCBRNgIAuWotzvgggkBsBAjo3TUVFEUCgaAIEdNFanPNFAIHcCBDQuWkqKooAAkUTIKCL1uKcLwII5EaAgM5NU1HRvyRw5MiRY9fwrl27OlVXV6+rvV2DBg2OIIdAXgUI6Ly2XIHr7UL5t7/97dUrVqw42/71st+12LdvX1WLFi2qDhw4oOt69ze/+c3l55xzztsXXnjhfHER1gW+aHJ66gR0ThuuiNV2wTxz5sxJS5YsuWrt2rUdmzRpUr13797GnTt3jrZt2xZZDzqy30Vr1qzR90f279+/p02bNuuvvvrqBcOHD7/XQvoLPewiOnLO+REgoPPTVoWuqcL5zTffHHjvvff+aP369V+yUG7Wo0ePyHrNUaNGjaJDhw5F1nOOrAcdfz3aY46/bt68Of5dhw4dPpg4ceKPLrjggufpTRf6csrNyRPQuWmq4lZU4Txjxozpjz/++HWNGzc+0T4arogOHz4cfz3eR8HcrFmzeBMLdu2z+dprr31q7NixIwnp4l5TeTlzAjovLVXQeiqcp0yZMv2FF164xXrA1QcPHoyDuXYP+Xg06l1re+1nZUVbtmyJmjZteuB73/venH+2DyFd0AsrJ6dNQOekoYpYTYXzrFmzpj755JO3Kpx3794djy+r16whDRe+x7NxPWwbi1Ywx/ts2rRJob33mmuueWT8+PGjimjLOedDgIDORzsVspa//vWvB40ePbrmhBNOOLGqqupYIGvYQkGtXrF+f7yPgtyF+p49e+LhDoX0J598EjVs2HDr9OnTb7r44otfLCQwJx28AAEdfBMVs4LqPV966aW/t3HjszRDY+vWrVG7du0i9YTduLK+TwpoC+HIbijGvWeFtRsekarNm45sPPujp59++txWrVqtL6Y0Zx2yAAEdcusUtG4K56lTp97/zDPPDLfgbKYer6bPaWjCbhLGvWD1htUzrh24f4lLAe6CXOVofw2VqAx93bhxY3TbbbfNGjZs2CjGowt6wQV82gR0wI1T1KopoC+55JL3P//88y937Ngxat68eTxVzsI6vtGn0FVAK2yTPuo1a399dTcKtY961OqJK/RtnvTHy5YtO42ATtLk75UWIKArLc7xEgVWrlz5XXuoZE6XLl3a6Cbfjh074nB2c54VtOoBu/nOSQUqnBXsmiOt4Q4Ne6jnraBXWTbUcWDSpElD7MnD55LK4u8IVFKAgK6kNsdKFFDvedq0aTPnzZs3/KSTTqpKGsJILLCEDTT1btCgQQ/dcccdw0vYnE0QqJgAAV0xag5UisDR4Y0/2KPaX+natWs8NJHmxz3sYsf5YPny5V9N81iUjUC5AgR0uWJsn6qAAtqGGj6yG3unaJy4lHHm+lRIQyh6wrBbt24fLVy48PT6lMW+CPgWIKB9i1JevQQsoDv179//P2xs+GSFc9pDHO6hF/v60auvvnoGNwrr1Xzs7FmAgPYMSnH1E1APum/fvp/YuPDJbdu2TZznXL+jxUuQxjNE2rdv/8mzzz77Dy1bttxASNdXlf19CRDQviQpx4vA0YD+1GZpdNVUuqQHUep7UM2N1kMwFswfLV26lB50fUHZ36sAAe2Vk8LqK6CA7tev34erV68+7eSTT059iENDKDt37oxat279BxviOKu+9Wd/BHwKENA+NSmr3gIK6AceeOBn8+fP/yd7gCRxOdH6HlDzo/U04XXXXVczZswYVrerLyj7exUgoL1yUpgPAXtQZci4cePm2oMlzTVGrBDVgymacueeCNRDJxoC0RBF0kc3G/WAirbVgymaHeIeflHZNqXvQE1NzXU9e/Z8Nqks/o5AJQUI6Epqc6ySBCw0q/r06bPKbhR279Sp07EbeXpkW//c04Bai0PrbCR99MSh9nNznhXOWnhJAa8pdvZAzMeLFy/mUe8kSP5ecQECuuLkHDBJQMMcDz744CNz5sz5gd6eop6vAlaPeqsHrMe+NSxhN/bi3vXxPm6xJBfsCmuVqZXsVJbeYzhkyJAae8PKiKR68XcEKi1AQFdanOOVJGA37joPHDjwLevhnqLlRtVT1hoa7o0qGqZwvztegeo1q6etXreGOvS9ptVpCp+9dDayxZj+uGjRoq8yta6kZmGjCgsQ0BUG53ClCagXbY9eD7b1Mebagv025Px/Y84ak3aL96s3nPROQgW0euAKcwW0WyBJv7eV7HbYsqY39+rV6zkCurR2YavKChDQlfXmaGUIKKRnz55dYwsn3WI93sYujBXWGppQbzjp4wJZvW8Nhyiotf+GDRv0XsJH7Y0tIwjnJEX+npUAAZ2VPMctSUAhbUuB1rz44ou32NhzYw1taKF9hWypCym5cWrX87ae88Errrji0QkTJgwnnEtqBjbKSICAzgiew5Yu4JYgtVdT3WDDGq20iL+GK0qZZucW+NdXLc5vob79+uuv/zfmPJfuz5bZCRDQ2dlz5DIEFNIrVqy45ic/+clkG544XQGtqXK1lguN50prpod6yhoO0d/U49YLYjUcYsH+ob3F+4e2Wt4L9JzLwGfTzAQI6MzoOXBdBGwOc8fHH398wksvvXS5jUN3tjKqFb7qTdt85ni2htbWcHOkrce8z2aBrLMX0L4wcuTIMTom4VwXefbJQoCAzkKdY9ZLQL1pFfD6669f8d577527YMGCPjbPuanN1mh49LVYhyyw9w8YMOC1s88++62LLrroJYK5XuTsnJEAAZ0RPIf1K6DQVs94+/bt7W3ho41+S6c0BLIRIKCzceeoCCCAQKIAAZ1IxAYIIIBANgIEdDbuHBUBBBBIFCCgE4nYAAEEEMhGgIDOxp2jIoAAAokCBHQiERsggAAC2QgQ0Nm4c1QEEEAgUYCATiRiAwQQQCAbAQI6G3eOigACCCQKENCJRGyAAAIIZCNAQGfjzlERQACBRAECOpGIDRBAAIFsBAjobNw5KgIIIJAoQEAnErEBAgggkI0AAZ2NO0dFAAEEEgUI6EQiNkAAAQSyESCgs3HnqAgggECiAAGdSMQGCCCAQDYCBHQ27hwVAQQQSBQgoBOJ2AABBBDIRoCAzsadoyKAAAKJAgR0IhEbIIAAAtkIENDZuHNUBBBAIFGAgE4kYgMEEEAgGwECOht3jooAAggkChDQiURsgAACCGQjQEBn485REUAAgUQBAjqRiA0QQACBbAQI6GzcOSoCCCCQKEBAJxKxAQIIIJCNAAGdjTtHRQABBBIFCOhEIjZAAAEEshEgoLNx56gIIIBAogABnUjEBggggEA2AgR0Nu4cFQEEEEgUIKATidgAAQQQyEaAgM7GnaMigAACiQIEdCIRGyCAAALZCBDQ2bhzVAQQQCBRgIBOJGIDBBBAIBsBAjobd46KAAIIJAoQ0IlEbIAAAghkI0BAZ+POURFAAIFEAQI6kYgNQhY4cuTI/7+GO1p916vODRo0OBJy3akbAkkCBHSSEH8PUmDHjh0d33vvvfPefvvtnkuXLu3bqFGjFocOHTrcsGHDKgvmQ4cPH97Zu3fvZeecc86/n3/++S8S1kE2I5VKECCguURyJaBgfvjhh0e88cYbV61Zs6ZTVVVVBwvjqF27dtGePXsi+zlq0aJFtHHjxsh61zq3Lfa3Ty+77LIFo0ePnkhQ56q5C19ZArrwl0A+ADSUsXz58m//9Kc//Zddu3Z9affu3U26desWV956zpFCWuGsf/r+6BBH/HX9+vUa7og6dOjw4R133PFD61m/QFDno92LXksCuuhXQA7OX+E8c+bMex977LEbmjdv3rlly5aRDWXEPWSFcePGjeOQtmGOY4GtoN63b1+8XbNmzaKtW7dGe/fuVYBvGjx4cI31pu8hpHPQ+AWvIgFd8Asg9NNXOM+YMWO6wrlHjx5tFMo7d+6Mg9fCOjpw4EAczAro/fv3x6fTtGnTuCd98ODBOMT1s7ZzPesNGzZsu/XWWx8dOnToeEI69Cug2PUjoIvd/kGfvcJ5ypQp0xcsWHCj9ZpbK2TVW1Y4K2zVI1bv2IW0/qaPflY4N2nSJP5Z3yvA9bOGOjQ+bcMkO2+77bYHb7/99rsI6aAvg0JXjoAudPOHe/IK52XLlg266667ZlZXV3dUj1gBq6DVRz+78HWBXXvsWb/Ttgpt9ay1r4Y8tJ963Pp59erVWyZPnvyDPn36PB+uBDUrsgABXeTWD/jcrYfbZeDAgYvtBt/X27RpEweqesLuo+CtHbj6XkMZ+rietQJaQxz654ZB3E1E/U3j0p06dfpk0aJFp9KLDvhiKHDVCOgCN36op67e83333Tfr2WefvfnEE09snmY9N23aFA0aNGjmuHHjRhPSaUpTdl0ECOi6qLFPqgIK6Msvv/y/7Gbe36j3nOZHwyI2HPLZkiVLuhPQaUpTdl0ECOi6qLFPqgLvvvvu4O9///sPWe/5BHejL60Daqz6s88+2z937tzrvvGNb8xP6ziUi0BdBAjouqixT2oC6j1Pnz591rx584bagygN3dS5tA6oMWk9yGLj3Q9NmDBheFrHoVwE6iJAQNdFjX1SE1BA9+vX7z/tScGv6UagmzqX1gF141E3C+0pw/dtTY8z0zoO5SJQFwECui5q7JOagALapr19aOPPp3Xs2DGet5z2R7M/bNbIn+xR8jPSPhblI1COQPpXfzm1YdvCCyigBwwY8CfrQZ+qRY/00EmaH/Wgjz6VuOrll18+1/5DWJfm8SgbgXIECOhytNg2dQEL6E59+/Z92w7UXfOX3QMpaR1Y86NtVbyoffv2q371q1+dzkyOtKQpty4CBHRd1NgnNYGjY9Afbd68+ZTWrVvHvVsX0poSp9DW7/Q5upzoceuiIRJtp6/aX/8UyipTvXP9Xv9srHvVL3/5SwI6tZal4LoIENB1UWOfVAV69er1/vbt27/SuXPn+GlBNw7tArn2z0lj1C6YXcjrCUJ9r9/rexf2dkIf2FzoM+lBp9q0FF6mAAFdJhibpy8wZ86c2VOnTh3WpUuXKs3iqB3Mrkdcai1qB7QLZe3rylFY25oc0U033fSQLUE6goAuVZbtKiFAQFdCmWOUJWCzKb579913z7U3obRyi/HXHo9262soXJOGOdyyo/rqFlD6/2XZ6nb7Z8+ePcRejcWiSWW1FBunLUBApy1M+WULaBzaXlH1/qpVq75sa0AfW/DI9XrdmHIpvWmFsmZqaNvab1tx32stDhtK+cjGn8+xbTaUXVl2QCBFAQI6RVyKrpvA0XWgZz7//PO3tWrVqrG7qefeoOJu7Kn0UnrQ6oXXHrd249F6SnHt2rUa3phmiyWNrVtt2QuB9AQI6PRsKbkeAgrpSy+99Pfbtm07S29O0ZocmoFR+yaffk66SeiqULv37XrVejOLTa97/xe/+MUFNmNkYz2qy64IpCJAQKfCSqE+BOzN3QOtZ/uwLdjfTiHtAtrNvHBhfbxj1R4OcQv6q0euNaPtDeGb7HVa/9izZ89FPupLGQj4FiCgfYtSnjcB9aJnzZr1gC2cpHWh4/cRuuENjStrhod+1lCFvnevvlIA25OI8QL++t6CONJTidpOP+ufzdzYdsMNN/xs1KhRE7xVmIIQ8CxAQHsGpTi/Agppm2ExTSHdtm3bVu4N3upFK3AVyvZ7raVx7P2EmjvtetzaRmtK6+/aRzcFLdy33njjjQ+PHDmScPbbXJTmWYCA9gxKcf4FFNI1NTVTnnjiiRts3LhD165d4x6zG+JwTwe6t3jrRbIaX1avWb9zL5DVsqK27frrr7/+kbFjx070X1NKRMCvAAHt15PSUhRYuXLlFfaW7ynWCz7DhjAa2RKhx14G62ZquHcXajjEvWRWYW3/Dtp0uv++5557fnjeeectSbGaFI2ANwEC2hslBVVC4OiC/ve+8sorV9g6zl1siKO1DV1UaWlSBbF7e7eGNGysWa8A32VT9VZdc801C+wtLbOYrVGJVuIYvgQIaF+SlFNxAetRX2qvxzp/8eLFfezgzexm4GGb8aEhjUN2g3DPt771rddshsZbZ5555jsEc8WbhwN6ECCgPSBSRPYCtrhSe+spa1YH85mzbw5q4EmAgPYESTEIIICAbwEC2rco5SGAAAKeBAhoT5AUgwACCPgWIKB9i1IeAggg4EmAgPYESTEIIICAbwEC2rco5SGAAAKeBAhoT5AUgwACCPgWIKB9i1IeAggg4EmAgPYESTEIIICAbwEC2rco5SGAAAKeBAhoT5AUgwACCPgWIKB9i1IeAggg4EmAgPYESTEIIICAbwEC2rco5SGAAAKeBAhoT5AUgwACCPgWIKB9i1IeAggg4EmAgPYESTEIIICAbwEC2rco5SGAAAKeBAhoT5AUgwACCPgWIKB9i1IeAggg4EmAgPYESTEIIICAbwEC2rco5SGAAAKeBAhoT5AUgwACCPgWIKB9i1IeAggg4EmAgPYESTEIIICAbwEC2rco5SGAAPbqLT8AAALOSURBVAKeBAhoT5AUgwACCPgWIKB9i1IeAggg4EmAgPYESTEIIICAbwEC2rco5SGAAAKeBAhoT5AUgwACCPgWIKB9i1IeAggg4EmAgPYESTEIIICAbwEC2rco5SGAAAKeBAhoT5AUgwACCPgWIKB9i1IeAggg4EmAgPYESTEIIICAbwEC2rco5SGAAAKeBAhoT5AUgwACCPgWIKB9i1IeAggg4EmAgPYESTEIIICAbwEC2rco5SGAAAKeBAhoT5AUgwACCPgWIKB9i1IeAggg4EmAgPYESTEIIICAbwEC2rco5SGAAAKeBAhoT5AUgwACCPgWIKB9i1IeAggg4EmAgPYESTEIIICAbwEC2rco5SGAAAKeBAhoT5AUgwACCPgWIKB9i1IeAggg4EmAgPYESTEIIICAbwEC2rco5SGAAAKeBAhoT5AUgwACCPgWIKB9i1IeAggg4EmAgPYESTEIIICAbwEC2rco5SGAAAKeBAhoT5AUgwACCPgWIKB9i1IeAggg4EmAgPYESTEIIICAbwEC2rco5SGAAAKeBAhoT5AUgwACCPgWIKB9i1IeAggg4EmAgPYESTEIIICAbwEC2rco5SGAAAKeBAhoT5AUgwACCPgWIKB9i1IeAggg4EmAgPYESTEIIICAbwEC2rco5SGAAAKeBAhoT5AUgwACCPgWIKB9i1IeAggg4EmAgPYESTEIIICAbwEC2rco5SGAAAKeBAhoT5AUgwACCPgWIKB9i1IeAggg4EmAgPYESTEIIICAbwEC2rco5SGAAAKeBAhoT5AUgwACCPgWIKB9i1IeAggg4EmAgPYESTEIIICAbwEC2rco5SGAAAKeBAhoT5AUgwACCPgWIKB9i1IeAggg4EmAgPYESTEIIICAbwEC2rco5SGAAAKeBAhoT5AUgwACCPgWIKB9i1IeAggg4EmAgPYESTEIIICAb4H/BbiZE/+OutmcAAAAAElFTkSuQmCC;" vertex="1" parent="1">
          <mxGeometry x="184" y="76" width="63" height="63" as="geometry" />
        </mxCell>
        <mxCell id="0yVlcpvxOaxAhsToYy31-41" value="E1" style="text;html=1;align=center;verticalAlign=middle;whiteSpace=wrap;rounded=0;" vertex="1" parent="1">
          <mxGeometry x="247" y="42" width="30" height="25" as="geometry" />
        </mxCell>
        <mxCell id="0yVlcpvxOaxAhsToYy31-42" value="E2" style="text;html=1;align=center;verticalAlign=middle;whiteSpace=wrap;rounded=0;" vertex="1" parent="1">
          <mxGeometry x="247" y="68" width="30" height="25" as="geometry" />
        </mxCell>
        <mxCell id="0yVlcpvxOaxAhsToYy31-43" value="E32" style="text;html=1;align=center;verticalAlign=middle;whiteSpace=wrap;rounded=0;" vertex="1" parent="1">
          <mxGeometry x="247" y="130" width="30" height="25" as="geometry" />
        </mxCell>
        <mxCell id="0yVlcpvxOaxAhsToYy31-97" value="&lt;font style=&quot;font-size: 22px;&quot;&gt;f1&lt;/font&gt;" style="text;html=1;align=center;verticalAlign=middle;whiteSpace=wrap;rounded=0;" vertex="1" parent="1">
          <mxGeometry x="50" y="70" width="30" height="30" as="geometry" />
        </mxCell>
        <mxCell id="0yVlcpvxOaxAhsToYy31-98" value="&lt;font style=&quot;font-size: 22px;&quot;&gt;f2&lt;/font&gt;" style="text;html=1;align=center;verticalAlign=middle;whiteSpace=wrap;rounded=0;" vertex="1" parent="1">
          <mxGeometry x="50" y="130" width="30" height="30" as="geometry" />
        </mxCell>
        <mxCell id="0yVlcpvxOaxAhsToYy31-99" value="&lt;font style=&quot;font-size: 22px;&quot;&gt;f3&lt;/font&gt;" style="text;html=1;align=center;verticalAlign=middle;whiteSpace=wrap;rounded=0;" vertex="1" parent="1">
          <mxGeometry x="50" y="195" width="30" height="30" as="geometry" />
        </mxCell>
        <mxCell id="0yVlcpvxOaxAhsToYy31-100" value="&lt;font style=&quot;font-size: 22px;&quot;&gt;f1020&lt;/font&gt;" style="text;html=1;align=center;verticalAlign=middle;whiteSpace=wrap;rounded=0;" vertex="1" parent="1">
          <mxGeometry x="50" y="340" width="30" height="30" as="geometry" />
        </mxCell>
        <mxCell id="0yVlcpvxOaxAhsToYy31-101" value="&lt;font style=&quot;font-size: 22px;&quot;&gt;f1021&lt;/font&gt;" style="text;html=1;align=center;verticalAlign=middle;whiteSpace=wrap;rounded=0;" vertex="1" parent="1">
          <mxGeometry x="35" y="400" width="60" height="30" as="geometry" />
        </mxCell>
        <mxCell id="0yVlcpvxOaxAhsToYy31-102" value="&lt;font style=&quot;font-size: 22px;&quot;&gt;f1022&lt;/font&gt;" style="text;html=1;align=center;verticalAlign=middle;whiteSpace=wrap;rounded=0;" vertex="1" parent="1">
          <mxGeometry x="35" y="465" width="60" height="30" as="geometry" />
        </mxCell>
        <mxCell id="0yVlcpvxOaxAhsToYy31-103" value="" style="shape=image;verticalLabelPosition=bottom;labelBackgroundColor=default;verticalAlign=top;aspect=fixed;imageAspect=0;image=data:image/png,iVBORw0KGgoAAAANSUhEUgAAAWgAAAFoCAYAAAB65WHVAAAgAElEQVR4Xu3dCdAWxZ3H8eHl5uUSuQQErxy6qdTulrXxwCOES0WNGgJB3XjFlWPlEgyaoky2IqBy+xpFoi6rKRVPiBxG0ASMW26pld1sRbNGNApy3/e5/98sTb1upZjned+eZ3oy36eKeq+Znp5PT/3o6unpaRDxQQABBBAIUqBBkLWiUggggAACEQHNRYAAAggEKkBAB9owVAsBBBAgoLkGEEAAgUAFCOhAG4ZqIYAAAgQ01wACCCAQqAABHWjDUC0EEECAgOYaQAABBAIVIKADbRiqhQACCBDQXAMIIIBAoAIEdKANQ7UQQAABApprAAEEEAhUgIAOtGGoFgIIIEBAcw0ggAACgQoQ0IE2DNVCAAEECGiuAQQQQCBQAQI60IahWggggAABzTWAAAIIBCpAQAfaMFQLAQQQIKC5BhBAAIFABQjoQBuGaiGAAAIENNcAAgggEKgAAR1ow1AtBBBAgIDmGkAAAQQCFSCgA20YqoUAAggQ0FwDCCCAQKACBHSgDUO1EEAAAQKaawABBBAIVICADrRhqBYCCCBAQHMNIIAAAoEKENCBNgzVQgABBAhorgEEEEAgUAECOtCGoVoIIIAAAc01gAACCAQqQEAH2jBUCwEEECCguQYQQACBQAUI6EAbhmohgAACBDTXAAIIIBCoAAEdaMNQLQQQQICA5hpAAAEEAhUgoANtGKqFAAIIENBcAwgggECgAgR0oA1DtRBAAAECmmsAAQQQCFSAgA60YagWAgggQEBzDSCAAAKBChDQgTYM1UIAAQQIaK4BBBBAIFABAjrQhqFaCCCAAAHNNYAAAggEKkBAB9owVAsBBBAgoLkGEEAAgUAFCOhAG4ZqIYAAAgQ01wACCCAQqAABHWjDUC0EEECAgOYaQAABBAIVIKADbRiqhQACCBDQXAMIIIBAoAIEdKANQ7UQQAABApprAAEEEAhUgIAOtGGoFgIIIEBAcw0ggAACgQoQ0IE2DNVCAAEECGiuAQQQQCBQAQI60IahWggggAABzTWAAAIIBCpAQAfaMFQLAQQQIKC5BhBAAIFABQjoQBuGaiGAAAIENNcAAgggEKgAAR1ow1AtBBBAgIDmGkAAAQQCFSCgA20YqoUAAggQ0FwDCCCAQKACBHSgDUO1EEAAAQKaawABBBAIVICADrRhqBYCCCBAQHMNIIAAAoEKENCBNgzVQgABBAhorgEEEEAgUAECOtCGoVoIIIAAAc01gAACCAQqQEAH2jBUCwEEECCguQYQQACBQAUI6EAbhmohgAACBDTXAAIIIBCoAAEdaMNQLQQQQICA5hpAAAEEAhUgoANtGKpVN4EjR4500J4NGjTYULcS2AuBcAQI6HDagpqUKbBs2bILf/e73w149dVXr9CuBw8ejA4cOHCkTZs2jXbt2rX/qquuevmss856s1evXq+UWTSbIxCEAAEdRDNQiXIEpk+f/oiFcu8NGzacuH///jYtWrSImjVrFlVXV0dbtmyJv2/UqFG0du3aqGnTptsssP88YMCAhSNHjvyR9ayPlHMstkUgSwECOkt9jl2WwG9+85tvT548+cnPPvus2oI3atWqVVRVVRU1adLE9Z6jhg0bxj/v3bs3UnBbjzqyII8aN258sH379r+fMGHC3T179lxU1oHZGIGMBAjojOA5bHkCFswznn766ZEK3xNOOCGynnPUvHnz6PDhw3E429hz/LOC+dChQ/H3+/bt+8Lv169frx715muvvXb26NGj7ymvBmyNQOUFCOjKm3PEMgWmTZs28Zlnnvlx27Zt4z137twZdezYMdqxY0ccwOop25izeslx71nfqydtwxnH/inQ1evW5/PPP99+6623Pjhs2LC7y6wKmyNQUQECuqLcHKxcgfvuu2/8U0899eMuXbo0U49YwatA3rZtWxy4Cmj9UzDv2bMnHvLQ7xXI+l5/0zCHG+5QaKsnbb3uHbfcckuNjUtPKLdObI9ApQQI6EpJc5yyBZYuXfq1u+66a7mNNXdwwxkavlBI66PvFcLH+yigXU9awyH66AaihkK2b9++e+rUqYMvvvjihWVXjh0QqIAAAV0BZA5RN4Err7zyXbvB93cKZ/WQFbAulBW6+llfS/loO9fbVsBr3FpDJe3atftg0aJFXy2lDLZBoNICpV3dla4Vxyu8wIwZMybPnTv3To01q8frhitcKLtgVuge76P9FOq1t3e9bg2DbN26NRoyZMi0cePGjS08OgDBCRDQwTUJFZLAJZdc8oGNFX+5Q4cOx3q+tXvBbtgiKaBdb1nbK5jdMIf7XuFtNxc/XrJkyanIIxCaAAEdWotQn2jFihW9hw4d+mL37t1bKlD1T0Hser5uqML1qpN60BrO0LYKawVy7bLUO1+3bl1kY9FXXnTRRQvgRyAkAQI6pNagLrHApEmTJr/00kt3atxZ48+ul1xqr7k2oxurVkDrewW0PrV743ri0GZ0zBg1atRomgCBkAQI6JBag7rEAn369PmjheaXTjvttGj37t1fGD924aqvbobG8dhqB7S2q32TUd9rSp4CunPnzn945ZVXzqIJEAhJgIAOqTWoSyzQr1+/Dzdv3nx6y5Ytj90g1O/dUIebZpc0/ly7p+yCWmW4m46aH63P0fI+nT9//t+3bt16I82AQCgCBHQoLUE9jgn07t37Y1vwqId7OjBtGo1R24MsaxYuXPi3LFOatjbllyNAQJejxbapC1jPuY0tD/qx9WTb2ip08XoaaX7Us7Zjaj70pzaTower3aWpTdnlChDQ5YqxfWoCNmTRxAJy/2WXXfbx6tWre3Tr1i1+ZDvNj4Y71FO3m4ifL1++vCsBnaY2ZZcrQECXK8b2qQlYQDe0gDxkY9D/Y+s6n6H1MzSTI82Phjd0o9CC+s8LFiw4hYBOU5uyyxUgoMsVY/vUBWxO8oPPPffccK33nPZHNw21Lkffvn0fmjhx4vC0j0f5CJQjQECXo8W2FRF4/fXXv2PrNT9pTxE2LXWtjfpUzIZTDs+ZM2fQ+eef/1x9ymFfBHwLENC+RSmv3gI21NHAhjk+tpt33e3mXb3LO14BukFo632ss/Wmv2499vWpHozCEShTgIAuE4zNKyNgi/TPnjdv3ggtlpTmR2tD22JJD9tiScMYf05TmrLrIkBA10WNfVIXUC+6f//+f7IAPVW9aA116IESjRnXXgNav9cDJ3qbSu2FkNzv3PrRbjvN2nCL+dt60Oo9f2jzn3va39elflIcAIEyBQjoMsHYvHICr7322nfuvPPOf7UQbaFw1mPfmnGh8NVThAplBbBCV7+rvaSo/qYZGm4VOxfQtd/IYsMbW++///5b7NHy5yt3VhwJgdIFCOjSrdgyAwGb0THrscceG9G1a9cGCmM37U6Bq4dYXACrarXftKKf1aPW9lrzWQ+9uHWhtZ/1ng/ceOONj4wYMeJ2hjYyaFgOWZIAAV0SExtlJaChjtmzZ8/6+c9/PsIWNIp7yvYYeDw1TuHretauN+2C2r2HUNtpTQ/1vvXRTUHbZ9/gwYMftZkihHNWDctxSxIgoEtiYqOsBWpqamZaT3qovRi2sfWm43FohbBbRtS9xVv11PCHW/dZP7txZ4052++3Wjg/MX78+DH0nLNuVY6fJEBAJwnx92AEVq5cefXkyZNnrlmzpptu9J166qlxz1hrRutxbTf8ob9VV1fHb/lWOKvXrGENewHAqjFjxtxha328EMxJUREEjiNAQHN55EZAwx2q7KxZsx6wx7Kvthke3e1x8CqFs4Y92rZtG5+Lxpw1tKGQtrA+eNJJJ621JwWfu/nmmycx1zk3zU1FTYCA5jLIrcAbb7xx+TvvvNNz8eLF/a333MxmbTTSNW3DHofsBuE+m52x+Nxzz11hTwi+xTKiuW3mQlecgC508/91nbz1sDvYGX1hwX3Gmf+62rhoZ0NAF63FOV8EEMiNAAGdm6aiogggUDQBArpoLc75IoBAbgQI6Nw0FRVFAIGiCRDQRWtxzhcBBHIjQEDnpqmoKAIIFE2AgC5ai3O+CCCQGwECOjdNRUURQKBoAgR00Vqc80UAgdwIENC5aSoqigACRRMgoIvW4pwvAgjkRoCAzk1TUVEEECiaAAFdtBbnfBFAIDcCBHRumoqKIoBA0QQI6KK1OOeLAAK5ESCgc9NUVBQBBIomQEAXrcU5XwQQyI0AAZ2bpqKiCCBQNAECumgtzvkigEBuBAjo3DQVFUUAgaIJENBFa3HOFwEEciNAQOemqagoAggUTYCALlqLc74IIJAbAQI6N01FRRFAoGgCBHTRWpzzRQCB3AgQ0LlpKiqKAAJFEyCgi9binC8CCORGgIDOTVNRUQQQKJoAAV20Fud8EUAgNwIEdG6aiooigEDRBAjoorU454sAArkRIKBz01RUFAEEiiZAQBetxTlfBBDIjQABnZumoqIIIFA0AQK6aC3O+SKAQG4ECOjcNBUVRQCBogkQ0EVrcc4XAQRyI0BA56apqCgCCBRNgIAuWotzvgggkBsBAjo3TUVFEUCgaAIEdNFanPNFAIHcCBDQuWkqKooAAkUTIKCL1uKcLwII5EaAgM5NU1HRvyRw5MiRY9fwrl27OlVXV6+rvV2DBg2OIIdAXgUI6Ly2XIHr7UL5t7/97dUrVqw42/71st+12LdvX1WLFi2qDhw4oOt69ze/+c3l55xzztsXXnjhfHER1gW+aHJ66gR0ThuuiNV2wTxz5sxJS5YsuWrt2rUdmzRpUr13797GnTt3jrZt2xZZDzqy30Vr1qzR90f279+/p02bNuuvvvrqBcOHD7/XQvoLPewiOnLO+REgoPPTVoWuqcL5zTffHHjvvff+aP369V+yUG7Wo0ePyHrNUaNGjaJDhw5F1nOOrAcdfz3aY46/bt68Of5dhw4dPpg4ceKPLrjggufpTRf6csrNyRPQuWmq4lZU4Txjxozpjz/++HWNGzc+0T4arogOHz4cfz3eR8HcrFmzeBMLdu2z+dprr31q7NixIwnp4l5TeTlzAjovLVXQeiqcp0yZMv2FF164xXrA1QcPHoyDuXYP+Xg06l1re+1nZUVbtmyJmjZteuB73/venH+2DyFd0AsrJ6dNQOekoYpYTYXzrFmzpj755JO3Kpx3794djy+r16whDRe+x7NxPWwbi1Ywx/ts2rRJob33mmuueWT8+PGjimjLOedDgIDORzsVspa//vWvB40ePbrmhBNOOLGqqupYIGvYQkGtXrF+f7yPgtyF+p49e+LhDoX0J598EjVs2HDr9OnTb7r44otfLCQwJx28AAEdfBMVs4LqPV966aW/t3HjszRDY+vWrVG7du0i9YTduLK+TwpoC+HIbijGvWeFtRsekarNm45sPPujp59++txWrVqtL6Y0Zx2yAAEdcusUtG4K56lTp97/zDPPDLfgbKYer6bPaWjCbhLGvWD1htUzrh24f4lLAe6CXOVofw2VqAx93bhxY3TbbbfNGjZs2CjGowt6wQV82gR0wI1T1KopoC+55JL3P//88y937Ngxat68eTxVzsI6vtGn0FVAK2yTPuo1a399dTcKtY961OqJK/RtnvTHy5YtO42ATtLk75UWIKArLc7xEgVWrlz5XXuoZE6XLl3a6Cbfjh074nB2c54VtOoBu/nOSQUqnBXsmiOt4Q4Ne6jnraBXWTbUcWDSpElD7MnD55LK4u8IVFKAgK6kNsdKFFDvedq0aTPnzZs3/KSTTqpKGsJILLCEDTT1btCgQQ/dcccdw0vYnE0QqJgAAV0xag5UisDR4Y0/2KPaX+natWs8NJHmxz3sYsf5YPny5V9N81iUjUC5AgR0uWJsn6qAAtqGGj6yG3unaJy4lHHm+lRIQyh6wrBbt24fLVy48PT6lMW+CPgWIKB9i1JevQQsoDv179//P2xs+GSFc9pDHO6hF/v60auvvnoGNwrr1Xzs7FmAgPYMSnH1E1APum/fvp/YuPDJbdu2TZznXL+jxUuQxjNE2rdv/8mzzz77Dy1bttxASNdXlf19CRDQviQpx4vA0YD+1GZpdNVUuqQHUep7UM2N1kMwFswfLV26lB50fUHZ36sAAe2Vk8LqK6CA7tev34erV68+7eSTT059iENDKDt37oxat279BxviOKu+9Wd/BHwKENA+NSmr3gIK6AceeOBn8+fP/yd7gCRxOdH6HlDzo/U04XXXXVczZswYVrerLyj7exUgoL1yUpgPAXtQZci4cePm2oMlzTVGrBDVgymacueeCNRDJxoC0RBF0kc3G/WAirbVgymaHeIeflHZNqXvQE1NzXU9e/Z8Nqks/o5AJQUI6Epqc6ySBCw0q/r06bPKbhR279Sp07EbeXpkW//c04Bai0PrbCR99MSh9nNznhXOWnhJAa8pdvZAzMeLFy/mUe8kSP5ecQECuuLkHDBJQMMcDz744CNz5sz5gd6eop6vAlaPeqsHrMe+NSxhN/bi3vXxPm6xJBfsCmuVqZXsVJbeYzhkyJAae8PKiKR68XcEKi1AQFdanOOVJGA37joPHDjwLevhnqLlRtVT1hoa7o0qGqZwvztegeo1q6etXreGOvS9ptVpCp+9dDayxZj+uGjRoq8yta6kZmGjCgsQ0BUG53ClCagXbY9eD7b1Mebagv025Px/Y84ak3aL96s3nPROQgW0euAKcwW0WyBJv7eV7HbYsqY39+rV6zkCurR2YavKChDQlfXmaGUIKKRnz55dYwsn3WI93sYujBXWGppQbzjp4wJZvW8Nhyiotf+GDRv0XsJH7Y0tIwjnJEX+npUAAZ2VPMctSUAhbUuB1rz44ou32NhzYw1taKF9hWypCym5cWrX87ae88Errrji0QkTJgwnnEtqBjbKSICAzgiew5Yu4JYgtVdT3WDDGq20iL+GK0qZZucW+NdXLc5vob79+uuv/zfmPJfuz5bZCRDQ2dlz5DIEFNIrVqy45ic/+clkG544XQGtqXK1lguN50prpod6yhoO0d/U49YLYjUcYsH+ob3F+4e2Wt4L9JzLwGfTzAQI6MzoOXBdBGwOc8fHH398wksvvXS5jUN3tjKqFb7qTdt85ni2htbWcHOkrce8z2aBrLMX0L4wcuTIMTom4VwXefbJQoCAzkKdY9ZLQL1pFfD6669f8d577527YMGCPjbPuanN1mh49LVYhyyw9w8YMOC1s88++62LLrroJYK5XuTsnJEAAZ0RPIf1K6DQVs94+/bt7W3ho41+S6c0BLIRIKCzceeoCCCAQKIAAZ1IxAYIIIBANgIEdDbuHBUBBBBIFCCgE4nYAAEEEMhGgIDOxp2jIoAAAokCBHQiERsggAAC2QgQ0Nm4c1QEEEAgUYCATiRiAwQQQCAbAQI6G3eOigACCCQKENCJRGyAAAIIZCNAQGfjzlERQACBRAECOpGIDRBAAIFsBAjobNw5KgIIIJAoQEAnErEBAgggkI0AAZ2NO0dFAAEEEgUI6EQiNkAAAQSyESCgs3HnqAgggECiAAGdSMQGCCCAQDYCBHQ27hwVAQQQSBQgoBOJ2AABBBDIRoCAzsadoyKAAAKJAgR0IhEbIIAAAtkIENDZuHNUBBBAIFGAgE4kYgMEEEAgGwECOht3jooAAggkChDQiURsgAACCGQjQEBn485REUAAgUQBAjqRiA0QQACBbAQI6GzcOSoCCCCQKEBAJxKxAQIIIJCNAAGdjTtHRQABBBIFCOhEIjZAAAEEshEgoLNx56gIIIBAogABnUjEBggggEA2AgR0Nu4cFQEEEEgUIKATidgAAQQQyEaAgM7GnaMigAACiQIEdCIRGyCAAALZCBDQ2bhzVAQQQCBRgIBOJGIDBBBAIBsBAjobd46KAAIIJAoQ0IlEbIAAAghkI0BAZ+POURFAAIFEAQI6kYgNQhY4cuTI/7+GO1p916vODRo0OBJy3akbAkkCBHSSEH8PUmDHjh0d33vvvfPefvvtnkuXLu3bqFGjFocOHTrcsGHDKgvmQ4cPH97Zu3fvZeecc86/n3/++S8S1kE2I5VKECCguURyJaBgfvjhh0e88cYbV61Zs6ZTVVVVBwvjqF27dtGePXsi+zlq0aJFtHHjxsh61zq3Lfa3Ty+77LIFo0ePnkhQ56q5C19ZArrwl0A+ADSUsXz58m//9Kc//Zddu3Z9affu3U26desWV956zpFCWuGsf/r+6BBH/HX9+vUa7og6dOjw4R133PFD61m/QFDno92LXksCuuhXQA7OX+E8c+bMex977LEbmjdv3rlly5aRDWXEPWSFcePGjeOQtmGOY4GtoN63b1+8XbNmzaKtW7dGe/fuVYBvGjx4cI31pu8hpHPQ+AWvIgFd8Asg9NNXOM+YMWO6wrlHjx5tFMo7d+6Mg9fCOjpw4EAczAro/fv3x6fTtGnTuCd98ODBOMT1s7ZzPesNGzZsu/XWWx8dOnToeEI69Cug2PUjoIvd/kGfvcJ5ypQp0xcsWHCj9ZpbK2TVW1Y4K2zVI1bv2IW0/qaPflY4N2nSJP5Z3yvA9bOGOjQ+bcMkO2+77bYHb7/99rsI6aAvg0JXjoAudPOHe/IK52XLlg266667ZlZXV3dUj1gBq6DVRz+78HWBXXvsWb/Ttgpt9ay1r4Y8tJ963Pp59erVWyZPnvyDPn36PB+uBDUrsgABXeTWD/jcrYfbZeDAgYvtBt/X27RpEweqesLuo+CtHbj6XkMZ+rietQJaQxz654ZB3E1E/U3j0p06dfpk0aJFp9KLDvhiKHDVCOgCN36op67e83333Tfr2WefvfnEE09snmY9N23aFA0aNGjmuHHjRhPSaUpTdl0ECOi6qLFPqgIK6Msvv/y/7Gbe36j3nOZHwyI2HPLZkiVLuhPQaUpTdl0ECOi6qLFPqgLvvvvu4O9///sPWe/5BHejL60Daqz6s88+2z937tzrvvGNb8xP6ziUi0BdBAjouqixT2oC6j1Pnz591rx584bagygN3dS5tA6oMWk9yGLj3Q9NmDBheFrHoVwE6iJAQNdFjX1SE1BA9+vX7z/tScGv6UagmzqX1gF141E3C+0pw/dtTY8z0zoO5SJQFwECui5q7JOagALapr19aOPPp3Xs2DGet5z2R7M/bNbIn+xR8jPSPhblI1COQPpXfzm1YdvCCyigBwwY8CfrQZ+qRY/00EmaH/Wgjz6VuOrll18+1/5DWJfm8SgbgXIECOhytNg2dQEL6E59+/Z92w7UXfOX3QMpaR1Y86NtVbyoffv2q371q1+dzkyOtKQpty4CBHRd1NgnNYGjY9Afbd68+ZTWrVvHvVsX0poSp9DW7/Q5upzoceuiIRJtp6/aX/8UyipTvXP9Xv9srHvVL3/5SwI6tZal4LoIENB1UWOfVAV69er1/vbt27/SuXPn+GlBNw7tArn2z0lj1C6YXcjrCUJ9r9/rexf2dkIf2FzoM+lBp9q0FF6mAAFdJhibpy8wZ86c2VOnTh3WpUuXKs3iqB3Mrkdcai1qB7QLZe3rylFY25oc0U033fSQLUE6goAuVZbtKiFAQFdCmWOUJWCzKb579913z7U3obRyi/HXHo9262soXJOGOdyyo/rqFlD6/2XZ6nb7Z8+ePcRejcWiSWW1FBunLUBApy1M+WULaBzaXlH1/qpVq75sa0AfW/DI9XrdmHIpvWmFsmZqaNvab1tx32stDhtK+cjGn8+xbTaUXVl2QCBFAQI6RVyKrpvA0XWgZz7//PO3tWrVqrG7qefeoOJu7Kn0UnrQ6oXXHrd249F6SnHt2rUa3phmiyWNrVtt2QuB9AQI6PRsKbkeAgrpSy+99Pfbtm07S29O0ZocmoFR+yaffk66SeiqULv37XrVejOLTa97/xe/+MUFNmNkYz2qy64IpCJAQKfCSqE+BOzN3QOtZ/uwLdjfTiHtAtrNvHBhfbxj1R4OcQv6q0euNaPtDeGb7HVa/9izZ89FPupLGQj4FiCgfYtSnjcB9aJnzZr1gC2cpHWh4/cRuuENjStrhod+1lCFvnevvlIA25OI8QL++t6CONJTidpOP+ufzdzYdsMNN/xs1KhRE7xVmIIQ8CxAQHsGpTi/Agppm2ExTSHdtm3bVu4N3upFK3AVyvZ7raVx7P2EmjvtetzaRmtK6+/aRzcFLdy33njjjQ+PHDmScPbbXJTmWYCA9gxKcf4FFNI1NTVTnnjiiRts3LhD165d4x6zG+JwTwe6t3jrRbIaX1avWb9zL5DVsqK27frrr7/+kbFjx070X1NKRMCvAAHt15PSUhRYuXLlFfaW7ynWCz7DhjAa2RKhx14G62ZquHcXajjEvWRWYW3/Dtp0uv++5557fnjeeectSbGaFI2ANwEC2hslBVVC4OiC/ve+8sorV9g6zl1siKO1DV1UaWlSBbF7e7eGNGysWa8A32VT9VZdc801C+wtLbOYrVGJVuIYvgQIaF+SlFNxAetRX2qvxzp/8eLFfezgzexm4GGb8aEhjUN2g3DPt771rddshsZbZ5555jsEc8WbhwN6ECCgPSBSRPYCtrhSe+spa1YH85mzbw5q4EmAgPYESTEIIICAbwEC2rco5SGAAAKeBAhoT5AUgwACCPgWIKB9i1IeAggg4EmAgPYESTEIIICAbwEC2rco5SGAAAKeBAhoT5AUgwACCPgWIKB9i1IeAggg4EmAgPYESTEIIICAbwEC2rco5SGAAAKeBAhoT5AUgwACCPgWIKB9i1IeAggg4EmAgPYESTEIIICAbwEC2rco5SGAAAKeBAhoT5AUgwACCPgWIKB9i1IeAggg4EmAgPYESTEIIICAbwEC2rco5SGAAAKeBAhoT5AUgwACCPgWIKB9i1IeAggg4EmAgPYESTEIIICAbwEC2rco5SGAAAKeBAhoT5AUgwACCPgWIKB9i1IeAggg4EmAgPYESTEIIICAbwEC2rco5SGAAPbqLT8AAALOSURBVAKeBAhoT5AUgwACCPgWIKB9i1IeAggg4EmAgPYESTEIIICAbwEC2rco5SGAAAKeBAhoT5AUgwACCPgWIKB9i1IeAggg4EmAgPYESTEIIICAbwEC2rco5SGAAAKeBAhoT5AUgwACCPgWIKB9i1IeAggg4EmAgPYESTEIIICAbwEC2rco5SGAAAKeBAhoT5AUgwACCPgWIKB9i1IeAggg4EmAgPYESTEIIICAbwEC2rco5SGAAAKeBAhoT5AUgwACCPgWIKB9i1IeAggg4EmAgPYESTEIIICAbwEC2rco5SGAAAKeBAhoT5AUgwACCPgWIKB9i1IeAggg4EmAgPYESTEIIICAbwEC2rco5SGAAAKeBAhoT5AUgwACCPgWIKB9i1IeAggg4EmAgPYESTEIIICAbwEC2rco5SGAAAKeBAhoT5AUgwACCPgWIKB9i1IeAggg4EmAgPYESTEIIICAbwEC2rco5SGAAAKeBAhoT5AUgwACCPgWIKB9i1IeAggg4EmAgPYESTEIIICAbwEC2rco5SGAAAKeBAhoT5AUgwACCPgWIKB9i1IeAggg4EmAgPYESTEIIICAbwEC2rco5SGAAAKeBAhoT5AUgwACCPgWIKB9i1IeAggg4EmAgPYESTEIIICAbwEC2rco5SGAAAKeBAhoT5AUgwACCPgWIKB9i1IeAggg4EmAgPYESTEIIICAbwEC2rco5SGAAAKeBAhoT5AUgwACCPgWIKB9i1IeAggg4EmAgPYESTEIIICAbwEC2rco5SGAAAKeBAhoT5AUgwACCPgWIKB9i1IeAggg4EmAgPYESTEIIICAbwEC2rco5SGAAAKeBAhoT5AUgwACCPgWIKB9i1IeAggg4EmAgPYESTEIIICAbwEC2rco5SGAAAKeBAhoT5AUgwACCPgWIKB9i1IeAggg4EmAgPYESTEIIICAb4H/BbiZE/+OutmcAAAAAElFTkSuQmCC;" vertex="1" parent="1">
          <mxGeometry x="93.5" y="253.5" width="63" height="63" as="geometry" />
        </mxCell>
        <mxCell id="0yVlcpvxOaxAhsToYy31-104" value="" style="shape=image;verticalLabelPosition=bottom;labelBackgroundColor=default;verticalAlign=top;aspect=fixed;imageAspect=0;image=data:image/png,iVBORw0KGgoAAAANSUhEUgAAAWgAAAFoCAYAAAB65WHVAAAgAElEQVR4Xu3dCdAWxZ3H8eHl5uUSuQQErxy6qdTulrXxwCOES0WNGgJB3XjFlWPlEgyaoky2IqBy+xpFoi6rKRVPiBxG0ASMW26pld1sRbNGNApy3/e5/98sTb1upZjned+eZ3oy36eKeq+Znp5PT/3o6unpaRDxQQABBBAIUqBBkLWiUggggAACEQHNRYAAAggEKkBAB9owVAsBBBAgoLkGEEAAgUAFCOhAG4ZqIYAAAgQ01wACCCAQqAABHWjDUC0EEECAgOYaQAABBAIVIKADbRiqhQACCBDQXAMIIIBAoAIEdKANQ7UQQAABApprAAEEEAhUgIAOtGGoFgIIIEBAcw0ggAACgQoQ0IE2DNVCAAEECGiuAQQQQCBQAQI60IahWggggAABzTWAAAIIBCpAQAfaMFQLAQQQIKC5BhBAAIFABQjoQBuGaiGAAAIENNcAAgggEKgAAR1ow1AtBBBAgIDmGkAAAQQCFSCgA20YqoUAAggQ0FwDCCCAQKACBHSgDUO1EEAAAQKaawABBBAIVICADrRhqBYCCCBAQHMNIIAAAoEKENCBNgzVQgABBAhorgEEEEAgUAECOtCGoVoIIIAAAc01gAACCAQqQEAH2jBUCwEEECCguQYQQACBQAUI6EAbhmohgAACBDTXAAIIIBCoAAEdaMNQLQQQQICA5hpAAAEEAhUgoANtGKqFAAIIENBcAwgggECgAgR0oA1DtRBAAAECmmsAAQQQCFSAgA60YagWAgggQEBzDSCAAAKBChDQgTYM1UIAAQQIaK4BBBBAIFABAjrQhqFaCCCAAAHNNYAAAggEKkBAB9owVAsBBBAgoLkGEEAAgUAFCOhAG4ZqIYAAAgQ01wACCCAQqAABHWjDUC0EEECAgOYaQAABBAIVIKADbRiqhQACCBDQXAMIIIBAoAIEdKANQ7UQQAABApprAAEEEAhUgIAOtGGoFgIIIEBAcw0ggAACgQoQ0IE2DNVCAAEECGiuAQQQQCBQAQI60IahWggggAABzTWAAAIIBCpAQAfaMFQLAQQQIKC5BhBAAIFABQjoQBuGaiGAAAIENNcAAgggEKgAAR1ow1AtBBBAgIDmGkAAAQQCFSCgA20YqoUAAggQ0FwDCCCAQKACBHSgDUO1EEAAAQKaawABBBAIVICADrRhqBYCCCBAQHMNIIAAAoEKENCBNgzVQgABBAhorgEEEEAgUAECOtCGoVoIIIAAAc01gAACCAQqQEAH2jBUCwEEECCguQYQQACBQAUI6EAbhmohgAACBDTXAAIIIBCoAAEdaMNQLQQQQICA5hpAAAEEAhUgoANtGKpVN4EjR4500J4NGjTYULcS2AuBcAQI6HDagpqUKbBs2bILf/e73w149dVXr9CuBw8ejA4cOHCkTZs2jXbt2rX/qquuevmss856s1evXq+UWTSbIxCEAAEdRDNQiXIEpk+f/oiFcu8NGzacuH///jYtWrSImjVrFlVXV0dbtmyJv2/UqFG0du3aqGnTptsssP88YMCAhSNHjvyR9ayPlHMstkUgSwECOkt9jl2WwG9+85tvT548+cnPPvus2oI3atWqVVRVVRU1adLE9Z6jhg0bxj/v3bs3UnBbjzqyII8aN258sH379r+fMGHC3T179lxU1oHZGIGMBAjojOA5bHkCFswznn766ZEK3xNOOCGynnPUvHnz6PDhw3E429hz/LOC+dChQ/H3+/bt+8Lv169frx715muvvXb26NGj7ymvBmyNQOUFCOjKm3PEMgWmTZs28Zlnnvlx27Zt4z137twZdezYMdqxY0ccwOop25izeslx71nfqydtwxnH/inQ1evW5/PPP99+6623Pjhs2LC7y6wKmyNQUQECuqLcHKxcgfvuu2/8U0899eMuXbo0U49YwatA3rZtWxy4Cmj9UzDv2bMnHvLQ7xXI+l5/0zCHG+5QaKsnbb3uHbfcckuNjUtPKLdObI9ApQQI6EpJc5yyBZYuXfq1u+66a7mNNXdwwxkavlBI66PvFcLH+yigXU9awyH66AaihkK2b9++e+rUqYMvvvjihWVXjh0QqIAAAV0BZA5RN4Err7zyXbvB93cKZ/WQFbAulBW6+llfS/loO9fbVsBr3FpDJe3atftg0aJFXy2lDLZBoNICpV3dla4Vxyu8wIwZMybPnTv3To01q8frhitcKLtgVuge76P9FOq1t3e9bg2DbN26NRoyZMi0cePGjS08OgDBCRDQwTUJFZLAJZdc8oGNFX+5Q4cOx3q+tXvBbtgiKaBdb1nbK5jdMIf7XuFtNxc/XrJkyanIIxCaAAEdWotQn2jFihW9hw4d+mL37t1bKlD1T0Hser5uqML1qpN60BrO0LYKawVy7bLUO1+3bl1kY9FXXnTRRQvgRyAkAQI6pNagLrHApEmTJr/00kt3atxZ48+ul1xqr7k2oxurVkDrewW0PrV743ri0GZ0zBg1atRomgCBkAQI6JBag7rEAn369PmjheaXTjvttGj37t1fGD924aqvbobG8dhqB7S2q32TUd9rSp4CunPnzn945ZVXzqIJEAhJgIAOqTWoSyzQr1+/Dzdv3nx6y5Ytj90g1O/dUIebZpc0/ly7p+yCWmW4m46aH63P0fI+nT9//t+3bt16I82AQCgCBHQoLUE9jgn07t37Y1vwqId7OjBtGo1R24MsaxYuXPi3LFOatjbllyNAQJejxbapC1jPuY0tD/qx9WTb2ip08XoaaX7Us7Zjaj70pzaTower3aWpTdnlChDQ5YqxfWoCNmTRxAJy/2WXXfbx6tWre3Tr1i1+ZDvNj4Y71FO3m4ifL1++vCsBnaY2ZZcrQECXK8b2qQlYQDe0gDxkY9D/Y+s6n6H1MzSTI82Phjd0o9CC+s8LFiw4hYBOU5uyyxUgoMsVY/vUBWxO8oPPPffccK33nPZHNw21Lkffvn0fmjhx4vC0j0f5CJQjQECXo8W2FRF4/fXXv2PrNT9pTxE2LXWtjfpUzIZTDs+ZM2fQ+eef/1x9ymFfBHwLENC+RSmv3gI21NHAhjk+tpt33e3mXb3LO14BukFo632ss/Wmv2499vWpHozCEShTgIAuE4zNKyNgi/TPnjdv3ggtlpTmR2tD22JJD9tiScMYf05TmrLrIkBA10WNfVIXUC+6f//+f7IAPVW9aA116IESjRnXXgNav9cDJ3qbSu2FkNzv3PrRbjvN2nCL+dt60Oo9f2jzn3va39elflIcAIEyBQjoMsHYvHICr7322nfuvPPOf7UQbaFw1mPfmnGh8NVThAplBbBCV7+rvaSo/qYZGm4VOxfQtd/IYsMbW++///5b7NHy5yt3VhwJgdIFCOjSrdgyAwGb0THrscceG9G1a9cGCmM37U6Bq4dYXACrarXftKKf1aPW9lrzWQ+9uHWhtZ/1ng/ceOONj4wYMeJ2hjYyaFgOWZIAAV0SExtlJaChjtmzZ8/6+c9/PsIWNIp7yvYYeDw1TuHretauN+2C2r2HUNtpTQ/1vvXRTUHbZ9/gwYMftZkihHNWDctxSxIgoEtiYqOsBWpqamZaT3qovRi2sfWm43FohbBbRtS9xVv11PCHW/dZP7txZ4052++3Wjg/MX78+DH0nLNuVY6fJEBAJwnx92AEVq5cefXkyZNnrlmzpptu9J166qlxz1hrRutxbTf8ob9VV1fHb/lWOKvXrGENewHAqjFjxtxha328EMxJUREEjiNAQHN55EZAwx2q7KxZsx6wx7Kvthke3e1x8CqFs4Y92rZtG5+Lxpw1tKGQtrA+eNJJJ621JwWfu/nmmycx1zk3zU1FTYCA5jLIrcAbb7xx+TvvvNNz8eLF/a333MxmbTTSNW3DHofsBuE+m52x+Nxzz11hTwi+xTKiuW3mQlecgC508/91nbz1sDvYGX1hwX3Gmf+62rhoZ0NAF63FOV8EEMiNAAGdm6aiogggUDQBArpoLc75IoBAbgQI6Nw0FRVFAIGiCRDQRWtxzhcBBHIjQEDnpqmoKAIIFE2AgC5ai3O+CCCQGwECOjdNRUURQKBoAgR00Vqc80UAgdwIENC5aSoqigACRRMgoIvW4pwvAgjkRoCAzk1TUVEEECiaAAFdtBbnfBFAIDcCBHRumoqKIoBA0QQI6KK1OOeLAAK5ESCgc9NUVBQBBIomQEAXrcU5XwQQyI0AAZ2bpqKiCCBQNAECumgtzvkigEBuBAjo3DQVFUUAgaIJENBFa3HOFwEEciNAQOemqagoAggUTYCALlqLc74IIJAbAQI6N01FRRFAoGgCBHTRWpzzRQCB3AgQ0LlpKiqKAAJFEyCgi9binC8CCORGgIDOTVNRUQQQKJoAAV20Fud8EUAgNwIEdG6aiooigEDRBAjoorU454sAArkRIKBz01RUFAEEiiZAQBetxTlfBBDIjQABnZumoqIIIFA0AQK6aC3O+SKAQG4ECOjcNBUVRQCBogkQ0EVrcc4XAQRyI0BA56apqCgCCBRNgIAuWotzvgggkBsBAjo3TUVFEUCgaAIEdNFanPNFAIHcCBDQuWkqKooAAkUTIKCL1uKcLwII5EaAgM5NU1HRvyRw5MiRY9fwrl27OlVXV6+rvV2DBg2OIIdAXgUI6Ly2XIHr7UL5t7/97dUrVqw42/71st+12LdvX1WLFi2qDhw4oOt69ze/+c3l55xzztsXXnjhfHER1gW+aHJ66gR0ThuuiNV2wTxz5sxJS5YsuWrt2rUdmzRpUr13797GnTt3jrZt2xZZDzqy30Vr1qzR90f279+/p02bNuuvvvrqBcOHD7/XQvoLPewiOnLO+REgoPPTVoWuqcL5zTffHHjvvff+aP369V+yUG7Wo0ePyHrNUaNGjaJDhw5F1nOOrAcdfz3aY46/bt68Of5dhw4dPpg4ceKPLrjggufpTRf6csrNyRPQuWmq4lZU4Txjxozpjz/++HWNGzc+0T4arogOHz4cfz3eR8HcrFmzeBMLdu2z+dprr31q7NixIwnp4l5TeTlzAjovLVXQeiqcp0yZMv2FF164xXrA1QcPHoyDuXYP+Xg06l1re+1nZUVbtmyJmjZteuB73/venH+2DyFd0AsrJ6dNQOekoYpYTYXzrFmzpj755JO3Kpx3794djy+r16whDRe+x7NxPWwbi1Ywx/ts2rRJob33mmuueWT8+PGjimjLOedDgIDORzsVspa//vWvB40ePbrmhBNOOLGqqupYIGvYQkGtXrF+f7yPgtyF+p49e+LhDoX0J598EjVs2HDr9OnTb7r44otfLCQwJx28AAEdfBMVs4LqPV966aW/t3HjszRDY+vWrVG7du0i9YTduLK+TwpoC+HIbijGvWeFtRsekarNm45sPPujp59++txWrVqtL6Y0Zx2yAAEdcusUtG4K56lTp97/zDPPDLfgbKYer6bPaWjCbhLGvWD1htUzrh24f4lLAe6CXOVofw2VqAx93bhxY3TbbbfNGjZs2CjGowt6wQV82gR0wI1T1KopoC+55JL3P//88y937Ngxat68eTxVzsI6vtGn0FVAK2yTPuo1a399dTcKtY961OqJK/RtnvTHy5YtO42ATtLk75UWIKArLc7xEgVWrlz5XXuoZE6XLl3a6Cbfjh074nB2c54VtOoBu/nOSQUqnBXsmiOt4Q4Ne6jnraBXWTbUcWDSpElD7MnD55LK4u8IVFKAgK6kNsdKFFDvedq0aTPnzZs3/KSTTqpKGsJILLCEDTT1btCgQQ/dcccdw0vYnE0QqJgAAV0xag5UisDR4Y0/2KPaX+natWs8NJHmxz3sYsf5YPny5V9N81iUjUC5AgR0uWJsn6qAAtqGGj6yG3unaJy4lHHm+lRIQyh6wrBbt24fLVy48PT6lMW+CPgWIKB9i1JevQQsoDv179//P2xs+GSFc9pDHO6hF/v60auvvnoGNwrr1Xzs7FmAgPYMSnH1E1APum/fvp/YuPDJbdu2TZznXL+jxUuQxjNE2rdv/8mzzz77Dy1bttxASNdXlf19CRDQviQpx4vA0YD+1GZpdNVUuqQHUep7UM2N1kMwFswfLV26lB50fUHZ36sAAe2Vk8LqK6CA7tev34erV68+7eSTT059iENDKDt37oxat279BxviOKu+9Wd/BHwKENA+NSmr3gIK6AceeOBn8+fP/yd7gCRxOdH6HlDzo/U04XXXXVczZswYVrerLyj7exUgoL1yUpgPAXtQZci4cePm2oMlzTVGrBDVgymacueeCNRDJxoC0RBF0kc3G/WAirbVgymaHeIeflHZNqXvQE1NzXU9e/Z8Nqks/o5AJQUI6Epqc6ySBCw0q/r06bPKbhR279Sp07EbeXpkW//c04Bai0PrbCR99MSh9nNznhXOWnhJAa8pdvZAzMeLFy/mUe8kSP5ecQECuuLkHDBJQMMcDz744CNz5sz5gd6eop6vAlaPeqsHrMe+NSxhN/bi3vXxPm6xJBfsCmuVqZXsVJbeYzhkyJAae8PKiKR68XcEKi1AQFdanOOVJGA37joPHDjwLevhnqLlRtVT1hoa7o0qGqZwvztegeo1q6etXreGOvS9ptVpCp+9dDayxZj+uGjRoq8yta6kZmGjCgsQ0BUG53ClCagXbY9eD7b1Mebagv025Px/Y84ak3aL96s3nPROQgW0euAKcwW0WyBJv7eV7HbYsqY39+rV6zkCurR2YavKChDQlfXmaGUIKKRnz55dYwsn3WI93sYujBXWGppQbzjp4wJZvW8Nhyiotf+GDRv0XsJH7Y0tIwjnJEX+npUAAZ2VPMctSUAhbUuB1rz44ou32NhzYw1taKF9hWypCym5cWrX87ae88Errrji0QkTJgwnnEtqBjbKSICAzgiew5Yu4JYgtVdT3WDDGq20iL+GK0qZZucW+NdXLc5vob79+uuv/zfmPJfuz5bZCRDQ2dlz5DIEFNIrVqy45ic/+clkG544XQGtqXK1lguN50prpod6yhoO0d/U49YLYjUcYsH+ob3F+4e2Wt4L9JzLwGfTzAQI6MzoOXBdBGwOc8fHH398wksvvXS5jUN3tjKqFb7qTdt85ni2htbWcHOkrce8z2aBrLMX0L4wcuTIMTom4VwXefbJQoCAzkKdY9ZLQL1pFfD6669f8d577527YMGCPjbPuanN1mh49LVYhyyw9w8YMOC1s88++62LLrroJYK5XuTsnJEAAZ0RPIf1K6DQVs94+/bt7W3ho41+S6c0BLIRIKCzceeoCCCAQKIAAZ1IxAYIIIBANgIEdDbuHBUBBBBIFCCgE4nYAAEEEMhGgIDOxp2jIoAAAokCBHQiERsggAAC2QgQ0Nm4c1QEEEAgUYCATiRiAwQQQCAbAQI6G3eOigACCCQKENCJRGyAAAIIZCNAQGfjzlERQACBRAECOpGIDRBAAIFsBAjobNw5KgIIIJAoQEAnErEBAgggkI0AAZ2NO0dFAAEEEgUI6EQiNkAAAQSyESCgs3HnqAgggECiAAGdSMQGCCCAQDYCBHQ27hwVAQQQSBQgoBOJ2AABBBDIRoCAzsadoyKAAAKJAgR0IhEbIIAAAtkIENDZuHNUBBBAIFGAgE4kYgMEEEAgGwECOht3jooAAggkChDQiURsgAACCGQjQEBn485REUAAgUQBAjqRiA0QQACBbAQI6GzcOSoCCCCQKEBAJxKxAQIIIJCNAAGdjTtHRQABBBIFCOhEIjZAAAEEshEgoLNx56gIIIBAogABnUjEBggggEA2AgR0Nu4cFQEEEEgUIKATidgAAQQQyEaAgM7GnaMigAACiQIEdCIRGyCAAALZCBDQ2bhzVAQQQCBRgIBOJGIDBBBAIBsBAjobd46KAAIIJAoQ0IlEbIAAAghkI0BAZ+POURFAAIFEAQI6kYgNQhY4cuTI/7+GO1p916vODRo0OBJy3akbAkkCBHSSEH8PUmDHjh0d33vvvfPefvvtnkuXLu3bqFGjFocOHTrcsGHDKgvmQ4cPH97Zu3fvZeecc86/n3/++S8S1kE2I5VKECCguURyJaBgfvjhh0e88cYbV61Zs6ZTVVVVBwvjqF27dtGePXsi+zlq0aJFtHHjxsh61zq3Lfa3Ty+77LIFo0ePnkhQ56q5C19ZArrwl0A+ADSUsXz58m//9Kc//Zddu3Z9affu3U26desWV956zpFCWuGsf/r+6BBH/HX9+vUa7og6dOjw4R133PFD61m/QFDno92LXksCuuhXQA7OX+E8c+bMex977LEbmjdv3rlly5aRDWXEPWSFcePGjeOQtmGOY4GtoN63b1+8XbNmzaKtW7dGe/fuVYBvGjx4cI31pu8hpHPQ+AWvIgFd8Asg9NNXOM+YMWO6wrlHjx5tFMo7d+6Mg9fCOjpw4EAczAro/fv3x6fTtGnTuCd98ODBOMT1s7ZzPesNGzZsu/XWWx8dOnToeEI69Cug2PUjoIvd/kGfvcJ5ypQp0xcsWHCj9ZpbK2TVW1Y4K2zVI1bv2IW0/qaPflY4N2nSJP5Z3yvA9bOGOjQ+bcMkO2+77bYHb7/99rsI6aAvg0JXjoAudPOHe/IK52XLlg266667ZlZXV3dUj1gBq6DVRz+78HWBXXvsWb/Ttgpt9ay1r4Y8tJ963Pp59erVWyZPnvyDPn36PB+uBDUrsgABXeTWD/jcrYfbZeDAgYvtBt/X27RpEweqesLuo+CtHbj6XkMZ+rietQJaQxz654ZB3E1E/U3j0p06dfpk0aJFp9KLDvhiKHDVCOgCN36op67e83333Tfr2WefvfnEE09snmY9N23aFA0aNGjmuHHjRhPSaUpTdl0ECOi6qLFPqgIK6Msvv/y/7Gbe36j3nOZHwyI2HPLZkiVLuhPQaUpTdl0ECOi6qLFPqgLvvvvu4O9///sPWe/5BHejL60Daqz6s88+2z937tzrvvGNb8xP6ziUi0BdBAjouqixT2oC6j1Pnz591rx584bagygN3dS5tA6oMWk9yGLj3Q9NmDBheFrHoVwE6iJAQNdFjX1SE1BA9+vX7z/tScGv6UagmzqX1gF141E3C+0pw/dtTY8z0zoO5SJQFwECui5q7JOagALapr19aOPPp3Xs2DGet5z2R7M/bNbIn+xR8jPSPhblI1COQPpXfzm1YdvCCyigBwwY8CfrQZ+qRY/00EmaH/Wgjz6VuOrll18+1/5DWJfm8SgbgXIECOhytNg2dQEL6E59+/Z92w7UXfOX3QMpaR1Y86NtVbyoffv2q371q1+dzkyOtKQpty4CBHRd1NgnNYGjY9Afbd68+ZTWrVvHvVsX0poSp9DW7/Q5upzoceuiIRJtp6/aX/8UyipTvXP9Xv9srHvVL3/5SwI6tZal4LoIENB1UWOfVAV69er1/vbt27/SuXPn+GlBNw7tArn2z0lj1C6YXcjrCUJ9r9/rexf2dkIf2FzoM+lBp9q0FF6mAAFdJhibpy8wZ86c2VOnTh3WpUuXKs3iqB3Mrkdcai1qB7QLZe3rylFY25oc0U033fSQLUE6goAuVZbtKiFAQFdCmWOUJWCzKb579913z7U3obRyi/HXHo9262soXJOGOdyyo/rqFlD6/2XZ6nb7Z8+ePcRejcWiSWW1FBunLUBApy1M+WULaBzaXlH1/qpVq75sa0AfW/DI9XrdmHIpvWmFsmZqaNvab1tx32stDhtK+cjGn8+xbTaUXVl2QCBFAQI6RVyKrpvA0XWgZz7//PO3tWrVqrG7qefeoOJu7Kn0UnrQ6oXXHrd249F6SnHt2rUa3phmiyWNrVtt2QuB9AQI6PRsKbkeAgrpSy+99Pfbtm07S29O0ZocmoFR+yaffk66SeiqULv37XrVejOLTa97/xe/+MUFNmNkYz2qy64IpCJAQKfCSqE+BOzN3QOtZ/uwLdjfTiHtAtrNvHBhfbxj1R4OcQv6q0euNaPtDeGb7HVa/9izZ89FPupLGQj4FiCgfYtSnjcB9aJnzZr1gC2cpHWh4/cRuuENjStrhod+1lCFvnevvlIA25OI8QL++t6CONJTidpOP+ufzdzYdsMNN/xs1KhRE7xVmIIQ8CxAQHsGpTi/Agppm2ExTSHdtm3bVu4N3upFK3AVyvZ7raVx7P2EmjvtetzaRmtK6+/aRzcFLdy33njjjQ+PHDmScPbbXJTmWYCA9gxKcf4FFNI1NTVTnnjiiRts3LhD165d4x6zG+JwTwe6t3jrRbIaX1avWb9zL5DVsqK27frrr7/+kbFjx070X1NKRMCvAAHt15PSUhRYuXLlFfaW7ynWCz7DhjAa2RKhx14G62ZquHcXajjEvWRWYW3/Dtp0uv++5557fnjeeectSbGaFI2ANwEC2hslBVVC4OiC/ve+8sorV9g6zl1siKO1DV1UaWlSBbF7e7eGNGysWa8A32VT9VZdc801C+wtLbOYrVGJVuIYvgQIaF+SlFNxAetRX2qvxzp/8eLFfezgzexm4GGb8aEhjUN2g3DPt771rddshsZbZ5555jsEc8WbhwN6ECCgPSBSRPYCtrhSe+spa1YH85mzbw5q4EmAgPYESTEIIICAbwEC2rco5SGAAAKeBAhoT5AUgwACCPgWIKB9i1IeAggg4EmAgPYESTEIIICAbwEC2rco5SGAAAKeBAhoT5AUgwACCPgWIKB9i1IeAggg4EmAgPYESTEIIICAbwEC2rco5SGAAAKeBAhoT5AUgwACCPgWIKB9i1IeAggg4EmAgPYESTEIIICAbwEC2rco5SGAAAKeBAhoT5AUgwACCPgWIKB9i1IeAggg4EmAgPYESTEIIICAbwEC2rco5SGAAAKeBAhoT5AUgwACCPgWIKB9i1IeAggg4EmAgPYESTEIIICAbwEC2rco5SGAAAKeBAhoT5AUgwACCPgWIKB9i1IeAggg4EmAgPYESTEIIICAbwEC2rco5SGAAPbqLT8AAALOSURBVAKeBAhoT5AUgwACCPgWIKB9i1IeAggg4EmAgPYESTEIIICAbwEC2rco5SGAAAKeBAhoT5AUgwACCPgWIKB9i1IeAggg4EmAgPYESTEIIICAbwEC2rco5SGAAAKeBAhoT5AUgwACCPgWIKB9i1IeAggg4EmAgPYESTEIIICAbwEC2rco5SGAAAKeBAhoT5AUgwACCPgWIKB9i1IeAggg4EmAgPYESTEIIICAbwEC2rco5SGAAAKeBAhoT5AUgwACCPgWIKB9i1IeAggg4EmAgPYESTEIIICAbwEC2rco5SGAAAKeBAhoT5AUgwACCPgWIKB9i1IeAggg4EmAgPYESTEIIICAbwEC2rco5SGAAAKeBAhoT5AUgwACCPgWIKB9i1IeAggg4EmAgPYESTEIIICAbwEC2rco5SGAAAKeBAhoT5AUgwACCPgWIKB9i1IeAggg4EmAgPYESTEIIICAbwEC2rco5SGAAAKeBAhoT5AUgwACCPgWIKB9i1IeAggg4EmAgPYESTEIIICAbwEC2rco5SGAAAKeBAhoT5AUgwACCPgWIKB9i1IeAggg4EmAgPYESTEIIICAbwEC2rco5SGAAAKeBAhoT5AUgwACCPgWIKB9i1IeAggg4EmAgPYESTEIIICAbwEC2rco5SGAAAKeBAhoT5AUgwACCPgWIKB9i1IeAggg4EmAgPYESTEIIICAbwEC2rco5SGAAAKeBAhoT5AUgwACCPgWIKB9i1IeAggg4EmAgPYESTEIIICAbwEC2rco5SGAAAKeBAhoT5AUgwACCPgWIKB9i1IeAggg4EmAgPYESTEIIICAbwEC2rco5SGAAAKeBAhoT5AUgwACCPgWIKB9i1IeAggg4EmAgPYESTEIIICAbwEC2rco5SGAAAKeBAhoT5AUgwACCPgWIKB9i1IeAggg4EmAgPYESTEIIICAb4H/BbiZE/+OutmcAAAAAElFTkSuQmCC;" vertex="1" parent="1">
          <mxGeometry x="493.5" y="253.5" width="63" height="63" as="geometry" />
        </mxCell>
        <mxCell id="0yVlcpvxOaxAhsToYy31-105" value="&lt;font style=&quot;font-size: 22px;&quot;&gt;c1&lt;/font&gt;" style="text;html=1;align=center;verticalAlign=middle;whiteSpace=wrap;rounded=0;" vertex="1" parent="1">
          <mxGeometry x="580" y="10" width="30" height="30" as="geometry" />
        </mxCell>
        <mxCell id="0yVlcpvxOaxAhsToYy31-106" value="&lt;font style=&quot;font-size: 22px;&quot;&gt;c2&lt;/font&gt;" style="text;html=1;align=center;verticalAlign=middle;whiteSpace=wrap;rounded=0;" vertex="1" parent="1">
          <mxGeometry x="580" y="70" width="30" height="30" as="geometry" />
        </mxCell>
        <mxCell id="0yVlcpvxOaxAhsToYy31-107" value="&lt;font style=&quot;font-size: 22px;&quot;&gt;c3&lt;/font&gt;" style="text;html=1;align=center;verticalAlign=middle;whiteSpace=wrap;rounded=0;" vertex="1" parent="1">
          <mxGeometry x="580" y="135" width="30" height="30" as="geometry" />
        </mxCell>
        <mxCell id="0yVlcpvxOaxAhsToYy31-108" value="&lt;font style=&quot;font-size: 22px;&quot;&gt;c4&lt;/font&gt;" style="text;html=1;align=center;verticalAlign=middle;whiteSpace=wrap;rounded=0;" vertex="1" parent="1">
          <mxGeometry x="580" y="195" width="30" height="30" as="geometry" />
        </mxCell>
        <mxCell id="0yVlcpvxOaxAhsToYy31-109" value="&lt;font style=&quot;font-size: 22px;&quot;&gt;c8173&lt;/font&gt;" style="text;html=1;align=center;verticalAlign=middle;whiteSpace=wrap;rounded=0;" vertex="1" parent="1">
          <mxGeometry x="580" y="340" width="60" height="30" as="geometry" />
        </mxCell>
        <mxCell id="0yVlcpvxOaxAhsToYy31-110" value="&lt;font style=&quot;font-size: 22px;&quot;&gt;c8174&lt;/font&gt;" style="text;html=1;align=center;verticalAlign=middle;whiteSpace=wrap;rounded=0;" vertex="1" parent="1">
          <mxGeometry x="580" y="400" width="60" height="30" as="geometry" />
        </mxCell>
        <mxCell id="0yVlcpvxOaxAhsToYy31-111" value="&lt;font style=&quot;font-size: 22px;&quot;&gt;c8175&lt;/font&gt;" style="text;html=1;align=center;verticalAlign=middle;whiteSpace=wrap;rounded=0;" vertex="1" parent="1">
          <mxGeometry x="580" y="465" width="60" height="30" as="geometry" />
        </mxCell>
        <mxCell id="0yVlcpvxOaxAhsToYy31-112" value="&lt;font style=&quot;font-size: 22px;&quot;&gt;c8176&lt;/font&gt;" style="text;html=1;align=center;verticalAlign=middle;whiteSpace=wrap;rounded=0;" vertex="1" parent="1">
          <mxGeometry x="580" y="525" width="60" height="30" as="geometry" />
        </mxCell>
        <mxCell id="0yVlcpvxOaxAhsToYy31-113" value="" style="endArrow=none;html=1;rounded=0;exitX=1;exitY=0.5;exitDx=0;exitDy=0;" edge="1" parent="1">
          <mxGeometry width="50" height="50" relative="1" as="geometry">
            <mxPoint x="140" y="145" as="sourcePoint" />
            <mxPoint x="210" y="130" as="targetPoint" />
          </mxGeometry>
        </mxCell>
        <mxCell id="0yVlcpvxOaxAhsToYy31-114" value="" style="endArrow=none;html=1;rounded=0;exitX=1;exitY=0.5;exitDx=0;exitDy=0;" edge="1" parent="1">
          <mxGeometry width="50" height="50" relative="1" as="geometry">
            <mxPoint x="140" y="145" as="sourcePoint" />
            <mxPoint x="210" y="145" as="targetPoint" />
          </mxGeometry>
        </mxCell>
        <mxCell id="0yVlcpvxOaxAhsToYy31-115" value="" style="endArrow=none;html=1;rounded=0;exitX=1;exitY=0.5;exitDx=0;exitDy=0;" edge="1" parent="1">
          <mxGeometry width="50" height="50" relative="1" as="geometry">
            <mxPoint x="140" y="145" as="sourcePoint" />
            <mxPoint x="210" y="180" as="targetPoint" />
          </mxGeometry>
        </mxCell>
        <mxCell id="0yVlcpvxOaxAhsToYy31-117" value="" style="endArrow=none;html=1;rounded=0;exitX=1;exitY=0.5;exitDx=0;exitDy=0;" edge="1" parent="1">
          <mxGeometry width="50" height="50" relative="1" as="geometry">
            <mxPoint x="140" y="210" as="sourcePoint" />
            <mxPoint x="210" y="195" as="targetPoint" />
          </mxGeometry>
        </mxCell>
        <mxCell id="0yVlcpvxOaxAhsToYy31-118" value="" style="endArrow=none;html=1;rounded=0;exitX=1;exitY=0.5;exitDx=0;exitDy=0;" edge="1" parent="1">
          <mxGeometry width="50" height="50" relative="1" as="geometry">
            <mxPoint x="140" y="210" as="sourcePoint" />
            <mxPoint x="210" y="210" as="targetPoint" />
          </mxGeometry>
        </mxCell>
        <mxCell id="0yVlcpvxOaxAhsToYy31-119" value="" style="endArrow=none;html=1;rounded=0;exitX=1;exitY=0.5;exitDx=0;exitDy=0;" edge="1" parent="1">
          <mxGeometry width="50" height="50" relative="1" as="geometry">
            <mxPoint x="140" y="210" as="sourcePoint" />
            <mxPoint x="210" y="245" as="targetPoint" />
          </mxGeometry>
        </mxCell>
        <mxCell id="0yVlcpvxOaxAhsToYy31-120" value="" style="endArrow=none;html=1;rounded=0;exitX=1;exitY=0.5;exitDx=0;exitDy=0;" edge="1" parent="1">
          <mxGeometry width="50" height="50" relative="1" as="geometry">
            <mxPoint x="140" y="355" as="sourcePoint" />
            <mxPoint x="210" y="340" as="targetPoint" />
          </mxGeometry>
        </mxCell>
        <mxCell id="0yVlcpvxOaxAhsToYy31-121" value="" style="endArrow=none;html=1;rounded=0;exitX=1;exitY=0.5;exitDx=0;exitDy=0;" edge="1" parent="1">
          <mxGeometry width="50" height="50" relative="1" as="geometry">
            <mxPoint x="140" y="355" as="sourcePoint" />
            <mxPoint x="210" y="355" as="targetPoint" />
          </mxGeometry>
        </mxCell>
        <mxCell id="0yVlcpvxOaxAhsToYy31-122" value="" style="endArrow=none;html=1;rounded=0;exitX=1;exitY=0.5;exitDx=0;exitDy=0;" edge="1" parent="1">
          <mxGeometry width="50" height="50" relative="1" as="geometry">
            <mxPoint x="140" y="355" as="sourcePoint" />
            <mxPoint x="210" y="390" as="targetPoint" />
          </mxGeometry>
        </mxCell>
        <mxCell id="0yVlcpvxOaxAhsToYy31-123" value="" style="endArrow=none;html=1;rounded=0;exitX=1;exitY=0.5;exitDx=0;exitDy=0;" edge="1" parent="1">
          <mxGeometry width="50" height="50" relative="1" as="geometry">
            <mxPoint x="140" y="415" as="sourcePoint" />
            <mxPoint x="210" y="400" as="targetPoint" />
          </mxGeometry>
        </mxCell>
        <mxCell id="0yVlcpvxOaxAhsToYy31-124" value="" style="endArrow=none;html=1;rounded=0;exitX=1;exitY=0.5;exitDx=0;exitDy=0;" edge="1" parent="1">
          <mxGeometry width="50" height="50" relative="1" as="geometry">
            <mxPoint x="140" y="415" as="sourcePoint" />
            <mxPoint x="210" y="415" as="targetPoint" />
          </mxGeometry>
        </mxCell>
        <mxCell id="0yVlcpvxOaxAhsToYy31-125" value="" style="endArrow=none;html=1;rounded=0;exitX=1;exitY=0.5;exitDx=0;exitDy=0;" edge="1" parent="1">
          <mxGeometry width="50" height="50" relative="1" as="geometry">
            <mxPoint x="140" y="415" as="sourcePoint" />
            <mxPoint x="210" y="450" as="targetPoint" />
          </mxGeometry>
        </mxCell>
        <mxCell id="0yVlcpvxOaxAhsToYy31-126" value="" style="endArrow=none;html=1;rounded=0;exitX=1;exitY=0.5;exitDx=0;exitDy=0;" edge="1" parent="1">
          <mxGeometry width="50" height="50" relative="1" as="geometry">
            <mxPoint x="140" y="480" as="sourcePoint" />
            <mxPoint x="210" y="465" as="targetPoint" />
          </mxGeometry>
        </mxCell>
        <mxCell id="0yVlcpvxOaxAhsToYy31-127" value="" style="endArrow=none;html=1;rounded=0;exitX=1;exitY=0.5;exitDx=0;exitDy=0;" edge="1" parent="1">
          <mxGeometry width="50" height="50" relative="1" as="geometry">
            <mxPoint x="140" y="480" as="sourcePoint" />
            <mxPoint x="210" y="480" as="targetPoint" />
          </mxGeometry>
        </mxCell>
        <mxCell id="0yVlcpvxOaxAhsToYy31-128" value="" style="endArrow=none;html=1;rounded=0;exitX=1;exitY=0.5;exitDx=0;exitDy=0;" edge="1" parent="1">
          <mxGeometry width="50" height="50" relative="1" as="geometry">
            <mxPoint x="140" y="480" as="sourcePoint" />
            <mxPoint x="210" y="515" as="targetPoint" />
          </mxGeometry>
        </mxCell>
        <mxCell id="0yVlcpvxOaxAhsToYy31-129" value="" style="shape=image;verticalLabelPosition=bottom;labelBackgroundColor=default;verticalAlign=top;aspect=fixed;imageAspect=0;image=data:image/png,iVBORw0KGgoAAAANSUhEUgAAAWgAAAFoCAYAAAB65WHVAAAgAElEQVR4Xu3dCdAWxZ3H8eHl5uUSuQQErxy6qdTulrXxwCOES0WNGgJB3XjFlWPlEgyaoky2IqBy+xpFoi6rKRVPiBxG0ASMW26pld1sRbNGNApy3/e5/98sTb1upZjned+eZ3oy36eKeq+Znp5PT/3o6unpaRDxQQABBBAIUqBBkLWiUggggAACEQHNRYAAAggEKkBAB9owVAsBBBAgoLkGEEAAgUAFCOhAG4ZqIYAAAgQ01wACCCAQqAABHWjDUC0EEECAgOYaQAABBAIVIKADbRiqhQACCBDQXAMIIIBAoAIEdKANQ7UQQAABApprAAEEEAhUgIAOtGGoFgIIIEBAcw0ggAACgQoQ0IE2DNVCAAEECGiuAQQQQCBQAQI60IahWggggAABzTWAAAIIBCpAQAfaMFQLAQQQIKC5BhBAAIFABQjoQBuGaiGAAAIENNcAAgggEKgAAR1ow1AtBBBAgIDmGkAAAQQCFSCgA20YqoUAAggQ0FwDCCCAQKACBHSgDUO1EEAAAQKaawABBBAIVICADrRhqBYCCCBAQHMNIIAAAoEKENCBNgzVQgABBAhorgEEEEAgUAECOtCGoVoIIIAAAc01gAACCAQqQEAH2jBUCwEEECCguQYQQACBQAUI6EAbhmohgAACBDTXAAIIIBCoAAEdaMNQLQQQQICA5hpAAAEEAhUgoANtGKqFAAIIENBcAwgggECgAgR0oA1DtRBAAAECmmsAAQQQCFSAgA60YagWAgggQEBzDSCAAAKBChDQgTYM1UIAAQQIaK4BBBBAIFABAjrQhqFaCCCAAAHNNYAAAggEKkBAB9owVAsBBBAgoLkGEEAAgUAFCOhAG4ZqIYAAAgQ01wACCCAQqAABHWjDUC0EEECAgOYaQAABBAIVIKADbRiqhQACCBDQXAMIIIBAoAIEdKANQ7UQQAABApprAAEEEAhUgIAOtGGoFgIIIEBAcw0ggAACgQoQ0IE2DNVCAAEECGiuAQQQQCBQAQI60IahWggggAABzTWAAAIIBCpAQAfaMFQLAQQQIKC5BhBAAIFABQjoQBuGaiGAAAIENNcAAgggEKgAAR1ow1AtBBBAgIDmGkAAAQQCFSCgA20YqoUAAggQ0FwDCCCAQKACBHSgDUO1EEAAAQKaawABBBAIVICADrRhqBYCCCBAQHMNIIAAAoEKENCBNgzVQgABBAhorgEEEEAgUAECOtCGoVoIIIAAAc01gAACCAQqQEAH2jBUCwEEECCguQYQQACBQAUI6EAbhmohgAACBDTXAAIIIBCoAAEdaMNQLQQQQICA5hpAAAEEAhUgoANtGKpVN4EjR4500J4NGjTYULcS2AuBcAQI6HDagpqUKbBs2bILf/e73w149dVXr9CuBw8ejA4cOHCkTZs2jXbt2rX/qquuevmss856s1evXq+UWTSbIxCEAAEdRDNQiXIEpk+f/oiFcu8NGzacuH///jYtWrSImjVrFlVXV0dbtmyJv2/UqFG0du3aqGnTptsssP88YMCAhSNHjvyR9ayPlHMstkUgSwECOkt9jl2WwG9+85tvT548+cnPPvus2oI3atWqVVRVVRU1adLE9Z6jhg0bxj/v3bs3UnBbjzqyII8aN258sH379r+fMGHC3T179lxU1oHZGIGMBAjojOA5bHkCFswznn766ZEK3xNOOCGynnPUvHnz6PDhw3E429hz/LOC+dChQ/H3+/bt+8Lv169frx715muvvXb26NGj7ymvBmyNQOUFCOjKm3PEMgWmTZs28Zlnnvlx27Zt4z137twZdezYMdqxY0ccwOop25izeslx71nfqydtwxnH/inQ1evW5/PPP99+6623Pjhs2LC7y6wKmyNQUQECuqLcHKxcgfvuu2/8U0899eMuXbo0U49YwatA3rZtWxy4Cmj9UzDv2bMnHvLQ7xXI+l5/0zCHG+5QaKsnbb3uHbfcckuNjUtPKLdObI9ApQQI6EpJc5yyBZYuXfq1u+66a7mNNXdwwxkavlBI66PvFcLH+yigXU9awyH66AaihkK2b9++e+rUqYMvvvjihWVXjh0QqIAAAV0BZA5RN4Err7zyXbvB93cKZ/WQFbAulBW6+llfS/loO9fbVsBr3FpDJe3atftg0aJFXy2lDLZBoNICpV3dla4Vxyu8wIwZMybPnTv3To01q8frhitcKLtgVuge76P9FOq1t3e9bg2DbN26NRoyZMi0cePGjS08OgDBCRDQwTUJFZLAJZdc8oGNFX+5Q4cOx3q+tXvBbtgiKaBdb1nbK5jdMIf7XuFtNxc/XrJkyanIIxCaAAEdWotQn2jFihW9hw4d+mL37t1bKlD1T0Hser5uqML1qpN60BrO0LYKawVy7bLUO1+3bl1kY9FXXnTRRQvgRyAkAQI6pNagLrHApEmTJr/00kt3atxZ48+ul1xqr7k2oxurVkDrewW0PrV743ri0GZ0zBg1atRomgCBkAQI6JBag7rEAn369PmjheaXTjvttGj37t1fGD924aqvbobG8dhqB7S2q32TUd9rSp4CunPnzn945ZVXzqIJEAhJgIAOqTWoSyzQr1+/Dzdv3nx6y5Ytj90g1O/dUIebZpc0/ly7p+yCWmW4m46aH63P0fI+nT9//t+3bt16I82AQCgCBHQoLUE9jgn07t37Y1vwqId7OjBtGo1R24MsaxYuXPi3LFOatjbllyNAQJejxbapC1jPuY0tD/qx9WTb2ip08XoaaX7Us7Zjaj70pzaTower3aWpTdnlChDQ5YqxfWoCNmTRxAJy/2WXXfbx6tWre3Tr1i1+ZDvNj4Y71FO3m4ifL1++vCsBnaY2ZZcrQECXK8b2qQlYQDe0gDxkY9D/Y+s6n6H1MzSTI82Phjd0o9CC+s8LFiw4hYBOU5uyyxUgoMsVY/vUBWxO8oPPPffccK33nPZHNw21Lkffvn0fmjhx4vC0j0f5CJQjQECXo8W2FRF4/fXXv2PrNT9pTxE2LXWtjfpUzIZTDs+ZM2fQ+eef/1x9ymFfBHwLENC+RSmv3gI21NHAhjk+tpt33e3mXb3LO14BukFo632ss/Wmv2499vWpHozCEShTgIAuE4zNKyNgi/TPnjdv3ggtlpTmR2tD22JJD9tiScMYf05TmrLrIkBA10WNfVIXUC+6f//+f7IAPVW9aA116IESjRnXXgNav9cDJ3qbSu2FkNzv3PrRbjvN2nCL+dt60Oo9f2jzn3va39elflIcAIEyBQjoMsHYvHICr7322nfuvPPOf7UQbaFw1mPfmnGh8NVThAplBbBCV7+rvaSo/qYZGm4VOxfQtd/IYsMbW++///5b7NHy5yt3VhwJgdIFCOjSrdgyAwGb0THrscceG9G1a9cGCmM37U6Bq4dYXACrarXftKKf1aPW9lrzWQ+9uHWhtZ/1ng/ceOONj4wYMeJ2hjYyaFgOWZIAAV0SExtlJaChjtmzZ8/6+c9/PsIWNIp7yvYYeDw1TuHretauN+2C2r2HUNtpTQ/1vvXRTUHbZ9/gwYMftZkihHNWDctxSxIgoEtiYqOsBWpqamZaT3qovRi2sfWm43FohbBbRtS9xVv11PCHW/dZP7txZ4052++3Wjg/MX78+DH0nLNuVY6fJEBAJwnx92AEVq5cefXkyZNnrlmzpptu9J166qlxz1hrRutxbTf8ob9VV1fHb/lWOKvXrGENewHAqjFjxtxha328EMxJUREEjiNAQHN55EZAwx2q7KxZsx6wx7Kvthke3e1x8CqFs4Y92rZtG5+Lxpw1tKGQtrA+eNJJJ621JwWfu/nmmycx1zk3zU1FTYCA5jLIrcAbb7xx+TvvvNNz8eLF/a333MxmbTTSNW3DHofsBuE+m52x+Nxzz11hTwi+xTKiuW3mQlecgC508/91nbz1sDvYGX1hwX3Gmf+62rhoZ0NAF63FOV8EEMiNAAGdm6aiogggUDQBArpoLc75IoBAbgQI6Nw0FRVFAIGiCRDQRWtxzhcBBHIjQEDnpqmoKAIIFE2AgC5ai3O+CCCQGwECOjdNRUURQKBoAgR00Vqc80UAgdwIENC5aSoqigACRRMgoIvW4pwvAgjkRoCAzk1TUVEEECiaAAFdtBbnfBFAIDcCBHRumoqKIoBA0QQI6KK1OOeLAAK5ESCgc9NUVBQBBIomQEAXrcU5XwQQyI0AAZ2bpqKiCCBQNAECumgtzvkigEBuBAjo3DQVFUUAgaIJENBFa3HOFwEEciNAQOemqagoAggUTYCALlqLc74IIJAbAQI6N01FRRFAoGgCBHTRWpzzRQCB3AgQ0LlpKiqKAAJFEyCgi9binC8CCORGgIDOTVNRUQQQKJoAAV20Fud8EUAgNwIEdG6aiooigEDRBAjoorU454sAArkRIKBz01RUFAEEiiZAQBetxTlfBBDIjQABnZumoqIIIFA0AQK6aC3O+SKAQG4ECOjcNBUVRQCBogkQ0EVrcc4XAQRyI0BA56apqCgCCBRNgIAuWotzvgggkBsBAjo3TUVFEUCgaAIEdNFanPNFAIHcCBDQuWkqKooAAkUTIKCL1uKcLwII5EaAgM5NU1HRvyRw5MiRY9fwrl27OlVXV6+rvV2DBg2OIIdAXgUI6Ly2XIHr7UL5t7/97dUrVqw42/71st+12LdvX1WLFi2qDhw4oOt69ze/+c3l55xzztsXXnjhfHER1gW+aHJ66gR0ThuuiNV2wTxz5sxJS5YsuWrt2rUdmzRpUr13797GnTt3jrZt2xZZDzqy30Vr1qzR90f279+/p02bNuuvvvrqBcOHD7/XQvoLPewiOnLO+REgoPPTVoWuqcL5zTffHHjvvff+aP369V+yUG7Wo0ePyHrNUaNGjaJDhw5F1nOOrAcdfz3aY46/bt68Of5dhw4dPpg4ceKPLrjggufpTRf6csrNyRPQuWmq4lZU4Txjxozpjz/++HWNGzc+0T4arogOHz4cfz3eR8HcrFmzeBMLdu2z+dprr31q7NixIwnp4l5TeTlzAjovLVXQeiqcp0yZMv2FF164xXrA1QcPHoyDuXYP+Xg06l1re+1nZUVbtmyJmjZteuB73/venH+2DyFd0AsrJ6dNQOekoYpYTYXzrFmzpj755JO3Kpx3794djy+r16whDRe+x7NxPWwbi1Ywx/ts2rRJob33mmuueWT8+PGjimjLOedDgIDORzsVspa//vWvB40ePbrmhBNOOLGqqupYIGvYQkGtXrF+f7yPgtyF+p49e+LhDoX0J598EjVs2HDr9OnTb7r44otfLCQwJx28AAEdfBMVs4LqPV966aW/t3HjszRDY+vWrVG7du0i9YTduLK+TwpoC+HIbijGvWeFtRsekarNm45sPPujp59++txWrVqtL6Y0Zx2yAAEdcusUtG4K56lTp97/zDPPDLfgbKYer6bPaWjCbhLGvWD1htUzrh24f4lLAe6CXOVofw2VqAx93bhxY3TbbbfNGjZs2CjGowt6wQV82gR0wI1T1KopoC+55JL3P//88y937Ngxat68eTxVzsI6vtGn0FVAK2yTPuo1a399dTcKtY961OqJK/RtnvTHy5YtO42ATtLk75UWIKArLc7xEgVWrlz5XXuoZE6XLl3a6Cbfjh074nB2c54VtOoBu/nOSQUqnBXsmiOt4Q4Ne6jnraBXWTbUcWDSpElD7MnD55LK4u8IVFKAgK6kNsdKFFDvedq0aTPnzZs3/KSTTqpKGsJILLCEDTT1btCgQQ/dcccdw0vYnE0QqJgAAV0xag5UisDR4Y0/2KPaX+natWs8NJHmxz3sYsf5YPny5V9N81iUjUC5AgR0uWJsn6qAAtqGGj6yG3unaJy4lHHm+lRIQyh6wrBbt24fLVy48PT6lMW+CPgWIKB9i1JevQQsoDv179//P2xs+GSFc9pDHO6hF/v60auvvnoGNwrr1Xzs7FmAgPYMSnH1E1APum/fvp/YuPDJbdu2TZznXL+jxUuQxjNE2rdv/8mzzz77Dy1bttxASNdXlf19CRDQviQpx4vA0YD+1GZpdNVUuqQHUep7UM2N1kMwFswfLV26lB50fUHZ36sAAe2Vk8LqK6CA7tev34erV68+7eSTT059iENDKDt37oxat279BxviOKu+9Wd/BHwKENA+NSmr3gIK6AceeOBn8+fP/yd7gCRxOdH6HlDzo/U04XXXXVczZswYVrerLyj7exUgoL1yUpgPAXtQZci4cePm2oMlzTVGrBDVgymacueeCNRDJxoC0RBF0kc3G/WAirbVgymaHeIeflHZNqXvQE1NzXU9e/Z8Nqks/o5AJQUI6Epqc6ySBCw0q/r06bPKbhR279Sp07EbeXpkW//c04Bai0PrbCR99MSh9nNznhXOWnhJAa8pdvZAzMeLFy/mUe8kSP5ecQECuuLkHDBJQMMcDz744CNz5sz5gd6eop6vAlaPeqsHrMe+NSxhN/bi3vXxPm6xJBfsCmuVqZXsVJbeYzhkyJAae8PKiKR68XcEKi1AQFdanOOVJGA37joPHDjwLevhnqLlRtVT1hoa7o0qGqZwvztegeo1q6etXreGOvS9ptVpCp+9dDayxZj+uGjRoq8yta6kZmGjCgsQ0BUG53ClCagXbY9eD7b1Mebagv025Px/Y84ak3aL96s3nPROQgW0euAKcwW0WyBJv7eV7HbYsqY39+rV6zkCurR2YavKChDQlfXmaGUIKKRnz55dYwsn3WI93sYujBXWGppQbzjp4wJZvW8Nhyiotf+GDRv0XsJH7Y0tIwjnJEX+npUAAZ2VPMctSUAhbUuB1rz44ou32NhzYw1taKF9hWypCym5cWrX87ae88Errrji0QkTJgwnnEtqBjbKSICAzgiew5Yu4JYgtVdT3WDDGq20iL+GK0qZZucW+NdXLc5vob79+uuv/zfmPJfuz5bZCRDQ2dlz5DIEFNIrVqy45ic/+clkG544XQGtqXK1lguN50prpod6yhoO0d/U49YLYjUcYsH+ob3F+4e2Wt4L9JzLwGfTzAQI6MzoOXBdBGwOc8fHH398wksvvXS5jUN3tjKqFb7qTdt85ni2htbWcHOkrce8z2aBrLMX0L4wcuTIMTom4VwXefbJQoCAzkKdY9ZLQL1pFfD6669f8d577527YMGCPjbPuanN1mh49LVYhyyw9w8YMOC1s88++62LLrroJYK5XuTsnJEAAZ0RPIf1K6DQVs94+/bt7W3ho41+S6c0BLIRIKCzceeoCCCAQKIAAZ1IxAYIIIBANgIEdDbuHBUBBBBIFCCgE4nYAAEEEMhGgIDOxp2jIoAAAokCBHQiERsggAAC2QgQ0Nm4c1QEEEAgUYCATiRiAwQQQCAbAQI6G3eOigACCCQKENCJRGyAAAIIZCNAQGfjzlERQACBRAECOpGIDRBAAIFsBAjobNw5KgIIIJAoQEAnErEBAgggkI0AAZ2NO0dFAAEEEgUI6EQiNkAAAQSyESCgs3HnqAgggECiAAGdSMQGCCCAQDYCBHQ27hwVAQQQSBQgoBOJ2AABBBDIRoCAzsadoyKAAAKJAgR0IhEbIIAAAtkIENDZuHNUBBBAIFGAgE4kYgMEEEAgGwECOht3jooAAggkChDQiURsgAACCGQjQEBn485REUAAgUQBAjqRiA0QQACBbAQI6GzcOSoCCCCQKEBAJxKxAQIIIJCNAAGdjTtHRQABBBIFCOhEIjZAAAEEshEgoLNx56gIIIBAogABnUjEBggggEA2AgR0Nu4cFQEEEEgUIKATidgAAQQQyEaAgM7GnaMigAACiQIEdCIRGyCAAALZCBDQ2bhzVAQQQCBRgIBOJGIDBBBAIBsBAjobd46KAAIIJAoQ0IlEbIAAAghkI0BAZ+POURFAAIFEAQI6kYgNQhY4cuTI/7+GO1p916vODRo0OBJy3akbAkkCBHSSEH8PUmDHjh0d33vvvfPefvvtnkuXLu3bqFGjFocOHTrcsGHDKgvmQ4cPH97Zu3fvZeecc86/n3/++S8S1kE2I5VKECCguURyJaBgfvjhh0e88cYbV61Zs6ZTVVVVBwvjqF27dtGePXsi+zlq0aJFtHHjxsh61zq3Lfa3Ty+77LIFo0ePnkhQ56q5C19ZArrwl0A+ADSUsXz58m//9Kc//Zddu3Z9affu3U26desWV956zpFCWuGsf/r+6BBH/HX9+vUa7og6dOjw4R133PFD61m/QFDno92LXksCuuhXQA7OX+E8c+bMex977LEbmjdv3rlly5aRDWXEPWSFcePGjeOQtmGOY4GtoN63b1+8XbNmzaKtW7dGe/fuVYBvGjx4cI31pu8hpHPQ+AWvIgFd8Asg9NNXOM+YMWO6wrlHjx5tFMo7d+6Mg9fCOjpw4EAczAro/fv3x6fTtGnTuCd98ODBOMT1s7ZzPesNGzZsu/XWWx8dOnToeEI69Cug2PUjoIvd/kGfvcJ5ypQp0xcsWHCj9ZpbK2TVW1Y4K2zVI1bv2IW0/qaPflY4N2nSJP5Z3yvA9bOGOjQ+bcMkO2+77bYHb7/99rsI6aAvg0JXjoAudPOHe/IK52XLlg266667ZlZXV3dUj1gBq6DVRz+78HWBXXvsWb/Ttgpt9ay1r4Y8tJ963Pp59erVWyZPnvyDPn36PB+uBDUrsgABXeTWD/jcrYfbZeDAgYvtBt/X27RpEweqesLuo+CtHbj6XkMZ+rietQJaQxz654ZB3E1E/U3j0p06dfpk0aJFp9KLDvhiKHDVCOgCN36op67e83333Tfr2WefvfnEE09snmY9N23aFA0aNGjmuHHjRhPSaUpTdl0ECOi6qLFPqgIK6Msvv/y/7Gbe36j3nOZHwyI2HPLZkiVLuhPQaUpTdl0ECOi6qLFPqgLvvvvu4O9///sPWe/5BHejL60Daqz6s88+2z937tzrvvGNb8xP6ziUi0BdBAjouqixT2oC6j1Pnz591rx584bagygN3dS5tA6oMWk9yGLj3Q9NmDBheFrHoVwE6iJAQNdFjX1SE1BA9+vX7z/tScGv6UagmzqX1gF141E3C+0pw/dtTY8z0zoO5SJQFwECui5q7JOagALapr19aOPPp3Xs2DGet5z2R7M/bNbIn+xR8jPSPhblI1COQPpXfzm1YdvCCyigBwwY8CfrQZ+qRY/00EmaH/Wgjz6VuOrll18+1/5DWJfm8SgbgXIECOhytNg2dQEL6E59+/Z92w7UXfOX3QMpaR1Y86NtVbyoffv2q371q1+dzkyOtKQpty4CBHRd1NgnNYGjY9Afbd68+ZTWrVvHvVsX0poSp9DW7/Q5upzoceuiIRJtp6/aX/8UyipTvXP9Xv9srHvVL3/5SwI6tZal4LoIENB1UWOfVAV69er1/vbt27/SuXPn+GlBNw7tArn2z0lj1C6YXcjrCUJ9r9/rexf2dkIf2FzoM+lBp9q0FF6mAAFdJhibpy8wZ86c2VOnTh3WpUuXKs3iqB3Mrkdcai1qB7QLZe3rylFY25oc0U033fSQLUE6goAuVZbtKiFAQFdCmWOUJWCzKb579913z7U3obRyi/HXHo9262soXJOGOdyyo/rqFlD6/2XZ6nb7Z8+ePcRejcWiSWW1FBunLUBApy1M+WULaBzaXlH1/qpVq75sa0AfW/DI9XrdmHIpvWmFsmZqaNvab1tx32stDhtK+cjGn8+xbTaUXVl2QCBFAQI6RVyKrpvA0XWgZz7//PO3tWrVqrG7qefeoOJu7Kn0UnrQ6oXXHrd249F6SnHt2rUa3phmiyWNrVtt2QuB9AQI6PRsKbkeAgrpSy+99Pfbtm07S29O0ZocmoFR+yaffk66SeiqULv37XrVejOLTa97/xe/+MUFNmNkYz2qy64IpCJAQKfCSqE+BOzN3QOtZ/uwLdjfTiHtAtrNvHBhfbxj1R4OcQv6q0euNaPtDeGb7HVa/9izZ89FPupLGQj4FiCgfYtSnjcB9aJnzZr1gC2cpHWh4/cRuuENjStrhod+1lCFvnevvlIA25OI8QL++t6CONJTidpOP+ufzdzYdsMNN/xs1KhRE7xVmIIQ8CxAQHsGpTi/Agppm2ExTSHdtm3bVu4N3upFK3AVyvZ7raVx7P2EmjvtetzaRmtK6+/aRzcFLdy33njjjQ+PHDmScPbbXJTmWYCA9gxKcf4FFNI1NTVTnnjiiRts3LhD165d4x6zG+JwTwe6t3jrRbIaX1avWb9zL5DVsqK27frrr7/+kbFjx070X1NKRMCvAAHt15PSUhRYuXLlFfaW7ynWCz7DhjAa2RKhx14G62ZquHcXajjEvWRWYW3/Dtp0uv++5557fnjeeectSbGaFI2ANwEC2hslBVVC4OiC/ve+8sorV9g6zl1siKO1DV1UaWlSBbF7e7eGNGysWa8A32VT9VZdc801C+wtLbOYrVGJVuIYvgQIaF+SlFNxAetRX2qvxzp/8eLFfezgzexm4GGb8aEhjUN2g3DPt771rddshsZbZ5555jsEc8WbhwN6ECCgPSBSRPYCtrhSe+spa1YH85mzbw5q4EmAgPYESTEIIICAbwEC2rco5SGAAAKeBAhoT5AUgwACCPgWIKB9i1IeAggg4EmAgPYESTEIIICAbwEC2rco5SGAAAKeBAhoT5AUgwACCPgWIKB9i1IeAggg4EmAgPYESTEIIICAbwEC2rco5SGAAAKeBAhoT5AUgwACCPgWIKB9i1IeAggg4EmAgPYESTEIIICAbwEC2rco5SGAAAKeBAhoT5AUgwACCPgWIKB9i1IeAggg4EmAgPYESTEIIICAbwEC2rco5SGAAAKeBAhoT5AUgwACCPgWIKB9i1IeAggg4EmAgPYESTEIIICAbwEC2rco5SGAAAKeBAhoT5AUgwACCPgWIKB9i1IeAggg4EmAgPYESTEIIICAbwEC2rco5SGAAPbqLT8AAALOSURBVAKeBAhoT5AUgwACCPgWIKB9i1IeAggg4EmAgPYESTEIIICAbwEC2rco5SGAAAKeBAhoT5AUgwACCPgWIKB9i1IeAggg4EmAgPYESTEIIICAbwEC2rco5SGAAAKeBAhoT5AUgwACCPgWIKB9i1IeAggg4EmAgPYESTEIIICAbwEC2rco5SGAAAKeBAhoT5AUgwACCPgWIKB9i1IeAggg4EmAgPYESTEIIICAbwEC2rco5SGAAAKeBAhoT5AUgwACCPgWIKB9i1IeAggg4EmAgPYESTEIIICAbwEC2rco5SGAAAKeBAhoT5AUgwACCPgWIKB9i1IeAggg4EmAgPYESTEIIICAbwEC2rco5SGAAAKeBAhoT5AUgwACCPgWIKB9i1IeAggg4EmAgPYESTEIIICAbwEC2rco5SGAAAKeBAhoT5AUgwACCPgWIKB9i1IeAggg4EmAgPYESTEIIICAbwEC2rco5SGAAAKeBAhoT5AUgwACCPgWIKB9i1IeAggg4EmAgPYESTEIIICAbwEC2rco5SGAAAKeBAhoT5AUgwACCPgWIKB9i1IeAggg4EmAgPYESTEIIICAbwEC2rco5SGAAAKeBAhoT5AUgwACCPgWIKB9i1IeAggg4EmAgPYESTEIIICAbwEC2rco5SGAAAKeBAhoT5AUgwACCPgWIKB9i1IeAggg4EmAgPYESTEIIICAbwEC2rco5SGAAAKeBAhoT5AUgwACCPgWIKB9i1IeAggg4EmAgPYESTEIIICAbwEC2rco5SGAAAKeBAhoT5AUgwACCPgWIKB9i1IeAggg4EmAgPYESTEIIICAbwEC2rco5SGAAAKeBAhoT5AUgwACCPgWIKB9i1IeAggg4EmAgPYESTEIIICAbwEC2rco5SGAAAKeBAhoT5AUgwACCPgWIKB9i1IeAggg4EmAgPYESTEIIICAb4H/BbiZE/+OutmcAAAAAElFTkSuQmCC;" vertex="1" parent="1">
          <mxGeometry x="180" y="142" width="34" height="34" as="geometry" />
        </mxCell>
        <mxCell id="0yVlcpvxOaxAhsToYy31-136" value="" style="shape=image;verticalLabelPosition=bottom;labelBackgroundColor=default;verticalAlign=top;aspect=fixed;imageAspect=0;image=data:image/png,iVBORw0KGgoAAAANSUhEUgAAAWgAAAFoCAYAAAB65WHVAAAgAElEQVR4Xu3dCdAWxZ3H8eHl5uUSuQQErxy6qdTulrXxwCOES0WNGgJB3XjFlWPlEgyaoky2IqBy+xpFoi6rKRVPiBxG0ASMW26pld1sRbNGNApy3/e5/98sTb1upZjned+eZ3oy36eKeq+Znp5PT/3o6unpaRDxQQABBBAIUqBBkLWiUggggAACEQHNRYAAAggEKkBAB9owVAsBBBAgoLkGEEAAgUAFCOhAG4ZqIYAAAgQ01wACCCAQqAABHWjDUC0EEECAgOYaQAABBAIVIKADbRiqhQACCBDQXAMIIIBAoAIEdKANQ7UQQAABApprAAEEEAhUgIAOtGGoFgIIIEBAcw0ggAACgQoQ0IE2DNVCAAEECGiuAQQQQCBQAQI60IahWggggAABzTWAAAIIBCpAQAfaMFQLAQQQIKC5BhBAAIFABQjoQBuGaiGAAAIENNcAAgggEKgAAR1ow1AtBBBAgIDmGkAAAQQCFSCgA20YqoUAAggQ0FwDCCCAQKACBHSgDUO1EEAAAQKaawABBBAIVICADrRhqBYCCCBAQHMNIIAAAoEKENCBNgzVQgABBAhorgEEEEAgUAECOtCGoVoIIIAAAc01gAACCAQqQEAH2jBUCwEEECCguQYQQACBQAUI6EAbhmohgAACBDTXAAIIIBCoAAEdaMNQLQQQQICA5hpAAAEEAhUgoANtGKqFAAIIENBcAwgggECgAgR0oA1DtRBAAAECmmsAAQQQCFSAgA60YagWAgggQEBzDSCAAAKBChDQgTYM1UIAAQQIaK4BBBBAIFABAjrQhqFaCCCAAAHNNYAAAggEKkBAB9owVAsBBBAgoLkGEEAAgUAFCOhAG4ZqIYAAAgQ01wACCCAQqAABHWjDUC0EEECAgOYaQAABBAIVIKADbRiqhQACCBDQXAMIIIBAoAIEdKANQ7UQQAABApprAAEEEAhUgIAOtGGoFgIIIEBAcw0ggAACgQoQ0IE2DNVCAAEECGiuAQQQQCBQAQI60IahWggggAABzTWAAAIIBCpAQAfaMFQLAQQQIKC5BhBAAIFABQjoQBuGaiGAAAIENNcAAgggEKgAAR1ow1AtBBBAgIDmGkAAAQQCFSCgA20YqoUAAggQ0FwDCCCAQKACBHSgDUO1EEAAAQKaawABBBAIVICADrRhqBYCCCBAQHMNIIAAAoEKENCBNgzVQgABBAhorgEEEEAgUAECOtCGoVoIIIAAAc01gAACCAQqQEAH2jBUCwEEECCguQYQQACBQAUI6EAbhmohgAACBDTXAAIIIBCoAAEdaMNQLQQQQICA5hpAAAEEAhUgoANtGKpVN4EjR4500J4NGjTYULcS2AuBcAQI6HDagpqUKbBs2bILf/e73w149dVXr9CuBw8ejA4cOHCkTZs2jXbt2rX/qquuevmss856s1evXq+UWTSbIxCEAAEdRDNQiXIEpk+f/oiFcu8NGzacuH///jYtWrSImjVrFlVXV0dbtmyJv2/UqFG0du3aqGnTptsssP88YMCAhSNHjvyR9ayPlHMstkUgSwECOkt9jl2WwG9+85tvT548+cnPPvus2oI3atWqVVRVVRU1adLE9Z6jhg0bxj/v3bs3UnBbjzqyII8aN258sH379r+fMGHC3T179lxU1oHZGIGMBAjojOA5bHkCFswznn766ZEK3xNOOCGynnPUvHnz6PDhw3E429hz/LOC+dChQ/H3+/bt+8Lv169frx715muvvXb26NGj7ymvBmyNQOUFCOjKm3PEMgWmTZs28Zlnnvlx27Zt4z137twZdezYMdqxY0ccwOop25izeslx71nfqydtwxnH/inQ1evW5/PPP99+6623Pjhs2LC7y6wKmyNQUQECuqLcHKxcgfvuu2/8U0899eMuXbo0U49YwatA3rZtWxy4Cmj9UzDv2bMnHvLQ7xXI+l5/0zCHG+5QaKsnbb3uHbfcckuNjUtPKLdObI9ApQQI6EpJc5yyBZYuXfq1u+66a7mNNXdwwxkavlBI66PvFcLH+yigXU9awyH66AaihkK2b9++e+rUqYMvvvjihWVXjh0QqIAAAV0BZA5RN4Err7zyXbvB93cKZ/WQFbAulBW6+llfS/loO9fbVsBr3FpDJe3atftg0aJFXy2lDLZBoNICpV3dla4Vxyu8wIwZMybPnTv3To01q8frhitcKLtgVuge76P9FOq1t3e9bg2DbN26NRoyZMi0cePGjS08OgDBCRDQwTUJFZLAJZdc8oGNFX+5Q4cOx3q+tXvBbtgiKaBdb1nbK5jdMIf7XuFtNxc/XrJkyanIIxCaAAEdWotQn2jFihW9hw4d+mL37t1bKlD1T0Hser5uqML1qpN60BrO0LYKawVy7bLUO1+3bl1kY9FXXnTRRQvgRyAkAQI6pNagLrHApEmTJr/00kt3atxZ48+ul1xqr7k2oxurVkDrewW0PrV743ri0GZ0zBg1atRomgCBkAQI6JBag7rEAn369PmjheaXTjvttGj37t1fGD924aqvbobG8dhqB7S2q32TUd9rSp4CunPnzn945ZVXzqIJEAhJgIAOqTWoSyzQr1+/Dzdv3nx6y5Ytj90g1O/dUIebZpc0/ly7p+yCWmW4m46aH63P0fI+nT9//t+3bt16I82AQCgCBHQoLUE9jgn07t37Y1vwqId7OjBtGo1R24MsaxYuXPi3LFOatjbllyNAQJejxbapC1jPuY0tD/qx9WTb2ip08XoaaX7Us7Zjaj70pzaTower3aWpTdnlChDQ5YqxfWoCNmTRxAJy/2WXXfbx6tWre3Tr1i1+ZDvNj4Y71FO3m4ifL1++vCsBnaY2ZZcrQECXK8b2qQlYQDe0gDxkY9D/Y+s6n6H1MzSTI82Phjd0o9CC+s8LFiw4hYBOU5uyyxUgoMsVY/vUBWxO8oPPPffccK33nPZHNw21Lkffvn0fmjhx4vC0j0f5CJQjQECXo8W2FRF4/fXXv2PrNT9pTxE2LXWtjfpUzIZTDs+ZM2fQ+eef/1x9ymFfBHwLENC+RSmv3gI21NHAhjk+tpt33e3mXb3LO14BukFo632ss/Wmv2499vWpHozCEShTgIAuE4zNKyNgi/TPnjdv3ggtlpTmR2tD22JJD9tiScMYf05TmrLrIkBA10WNfVIXUC+6f//+f7IAPVW9aA116IESjRnXXgNav9cDJ3qbSu2FkNzv3PrRbjvN2nCL+dt60Oo9f2jzn3va39elflIcAIEyBQjoMsHYvHICr7322nfuvPPOf7UQbaFw1mPfmnGh8NVThAplBbBCV7+rvaSo/qYZGm4VOxfQtd/IYsMbW++///5b7NHy5yt3VhwJgdIFCOjSrdgyAwGb0THrscceG9G1a9cGCmM37U6Bq4dYXACrarXftKKf1aPW9lrzWQ+9uHWhtZ/1ng/ceOONj4wYMeJ2hjYyaFgOWZIAAV0SExtlJaChjtmzZ8/6+c9/PsIWNIp7yvYYeDw1TuHretauN+2C2r2HUNtpTQ/1vvXRTUHbZ9/gwYMftZkihHNWDctxSxIgoEtiYqOsBWpqamZaT3qovRi2sfWm43FohbBbRtS9xVv11PCHW/dZP7txZ4052++3Wjg/MX78+DH0nLNuVY6fJEBAJwnx92AEVq5cefXkyZNnrlmzpptu9J166qlxz1hrRutxbTf8ob9VV1fHb/lWOKvXrGENewHAqjFjxtxha328EMxJUREEjiNAQHN55EZAwx2q7KxZsx6wx7Kvthke3e1x8CqFs4Y92rZtG5+Lxpw1tKGQtrA+eNJJJ621JwWfu/nmmycx1zk3zU1FTYCA5jLIrcAbb7xx+TvvvNNz8eLF/a333MxmbTTSNW3DHofsBuE+m52x+Nxzz11hTwi+xTKiuW3mQlecgC508/91nbz1sDvYGX1hwX3Gmf+62rhoZ0NAF63FOV8EEMiNAAGdm6aiogggUDQBArpoLc75IoBAbgQI6Nw0FRVFAIGiCRDQRWtxzhcBBHIjQEDnpqmoKAIIFE2AgC5ai3O+CCCQGwECOjdNRUURQKBoAgR00Vqc80UAgdwIENC5aSoqigACRRMgoIvW4pwvAgjkRoCAzk1TUVEEECiaAAFdtBbnfBFAIDcCBHRumoqKIoBA0QQI6KK1OOeLAAK5ESCgc9NUVBQBBIomQEAXrcU5XwQQyI0AAZ2bpqKiCCBQNAECumgtzvkigEBuBAjo3DQVFUUAgaIJENBFa3HOFwEEciNAQOemqagoAggUTYCALlqLc74IIJAbAQI6N01FRRFAoGgCBHTRWpzzRQCB3AgQ0LlpKiqKAAJFEyCgi9binC8CCORGgIDOTVNRUQQQKJoAAV20Fud8EUAgNwIEdG6aiooigEDRBAjoorU454sAArkRIKBz01RUFAEEiiZAQBetxTlfBBDIjQABnZumoqIIIFA0AQK6aC3O+SKAQG4ECOjcNBUVRQCBogkQ0EVrcc4XAQRyI0BA56apqCgCCBRNgIAuWotzvgggkBsBAjo3TUVFEUCgaAIEdNFanPNFAIHcCBDQuWkqKooAAkUTIKCL1uKcLwII5EaAgM5NU1HRvyRw5MiRY9fwrl27OlVXV6+rvV2DBg2OIIdAXgUI6Ly2XIHr7UL5t7/97dUrVqw42/71st+12LdvX1WLFi2qDhw4oOt69ze/+c3l55xzztsXXnjhfHER1gW+aHJ66gR0ThuuiNV2wTxz5sxJS5YsuWrt2rUdmzRpUr13797GnTt3jrZt2xZZDzqy30Vr1qzR90f279+/p02bNuuvvvrqBcOHD7/XQvoLPewiOnLO+REgoPPTVoWuqcL5zTffHHjvvff+aP369V+yUG7Wo0ePyHrNUaNGjaJDhw5F1nOOrAcdfz3aY46/bt68Of5dhw4dPpg4ceKPLrjggufpTRf6csrNyRPQuWmq4lZU4Txjxozpjz/++HWNGzc+0T4arogOHz4cfz3eR8HcrFmzeBMLdu2z+dprr31q7NixIwnp4l5TeTlzAjovLVXQeiqcp0yZMv2FF164xXrA1QcPHoyDuXYP+Xg06l1re+1nZUVbtmyJmjZteuB73/venH+2DyFd0AsrJ6dNQOekoYpYTYXzrFmzpj755JO3Kpx3794djy+r16whDRe+x7NxPWwbi1Ywx/ts2rRJob33mmuueWT8+PGjimjLOedDgIDORzsVspa//vWvB40ePbrmhBNOOLGqqupYIGvYQkGtXrF+f7yPgtyF+p49e+LhDoX0J598EjVs2HDr9OnTb7r44otfLCQwJx28AAEdfBMVs4LqPV966aW/t3HjszRDY+vWrVG7du0i9YTduLK+TwpoC+HIbijGvWeFtRsekarNm45sPPujp59++txWrVqtL6Y0Zx2yAAEdcusUtG4K56lTp97/zDPPDLfgbKYer6bPaWjCbhLGvWD1htUzrh24f4lLAe6CXOVofw2VqAx93bhxY3TbbbfNGjZs2CjGowt6wQV82gR0wI1T1KopoC+55JL3P//88y937Ngxat68eTxVzsI6vtGn0FVAK2yTPuo1a399dTcKtY961OqJK/RtnvTHy5YtO42ATtLk75UWIKArLc7xEgVWrlz5XXuoZE6XLl3a6Cbfjh074nB2c54VtOoBu/nOSQUqnBXsmiOt4Q4Ne6jnraBXWTbUcWDSpElD7MnD55LK4u8IVFKAgK6kNsdKFFDvedq0aTPnzZs3/KSTTqpKGsJILLCEDTT1btCgQQ/dcccdw0vYnE0QqJgAAV0xag5UisDR4Y0/2KPaX+natWs8NJHmxz3sYsf5YPny5V9N81iUjUC5AgR0uWJsn6qAAtqGGj6yG3unaJy4lHHm+lRIQyh6wrBbt24fLVy48PT6lMW+CPgWIKB9i1JevQQsoDv179//P2xs+GSFc9pDHO6hF/v60auvvnoGNwrr1Xzs7FmAgPYMSnH1E1APum/fvp/YuPDJbdu2TZznXL+jxUuQxjNE2rdv/8mzzz77Dy1bttxASNdXlf19CRDQviQpx4vA0YD+1GZpdNVUuqQHUep7UM2N1kMwFswfLV26lB50fUHZ36sAAe2Vk8LqK6CA7tev34erV68+7eSTT059iENDKDt37oxat279BxviOKu+9Wd/BHwKENA+NSmr3gIK6AceeOBn8+fP/yd7gCRxOdH6HlDzo/U04XXXXVczZswYVrerLyj7exUgoL1yUpgPAXtQZci4cePm2oMlzTVGrBDVgymacueeCNRDJxoC0RBF0kc3G/WAirbVgymaHeIeflHZNqXvQE1NzXU9e/Z8Nqks/o5AJQUI6Epqc6ySBCw0q/r06bPKbhR279Sp07EbeXpkW//c04Bai0PrbCR99MSh9nNznhXOWnhJAa8pdvZAzMeLFy/mUe8kSP5ecQECuuLkHDBJQMMcDz744CNz5sz5gd6eop6vAlaPeqsHrMe+NSxhN/bi3vXxPm6xJBfsCmuVqZXsVJbeYzhkyJAae8PKiKR68XcEKi1AQFdanOOVJGA37joPHDjwLevhnqLlRtVT1hoa7o0qGqZwvztegeo1q6etXreGOvS9ptVpCp+9dDayxZj+uGjRoq8yta6kZmGjCgsQ0BUG53ClCagXbY9eD7b1Mebagv025Px/Y84ak3aL96s3nPROQgW0euAKcwW0WyBJv7eV7HbYsqY39+rV6zkCurR2YavKChDQlfXmaGUIKKRnz55dYwsn3WI93sYujBXWGppQbzjp4wJZvW8Nhyiotf+GDRv0XsJH7Y0tIwjnJEX+npUAAZ2VPMctSUAhbUuB1rz44ou32NhzYw1taKF9hWypCym5cWrX87ae88Errrji0QkTJgwnnEtqBjbKSICAzgiew5Yu4JYgtVdT3WDDGq20iL+GK0qZZucW+NdXLc5vob79+uuv/zfmPJfuz5bZCRDQ2dlz5DIEFNIrVqy45ic/+clkG544XQGtqXK1lguN50prpod6yhoO0d/U49YLYjUcYsH+ob3F+4e2Wt4L9JzLwGfTzAQI6MzoOXBdBGwOc8fHH398wksvvXS5jUN3tjKqFb7qTdt85ni2htbWcHOkrce8z2aBrLMX0L4wcuTIMTom4VwXefbJQoCAzkKdY9ZLQL1pFfD6669f8d577527YMGCPjbPuanN1mh49LVYhyyw9w8YMOC1s88++62LLrroJYK5XuTsnJEAAZ0RPIf1K6DQVs94+/bt7W3ho41+S6c0BLIRIKCzceeoCCCAQKIAAZ1IxAYIIIBANgIEdDbuHBUBBBBIFCCgE4nYAAEEEMhGgIDOxp2jIoAAAokCBHQiERsggAAC2QgQ0Nm4c1QEEEAgUYCATiRiAwQQQCAbAQI6G3eOigACCCQKENCJRGyAAAIIZCNAQGfjzlERQACBRAECOpGIDRBAAIFsBAjobNw5KgIIIJAoQEAnErEBAgggkI0AAZ2NO0dFAAEEEgUI6EQiNkAAAQSyESCgs3HnqAgggECiAAGdSMQGCCCAQDYCBHQ27hwVAQQQSBQgoBOJ2AABBBDIRoCAzsadoyKAAAKJAgR0IhEbIIAAAtkIENDZuHNUBBBAIFGAgE4kYgMEEEAgGwECOht3jooAAggkChDQiURsgAACCGQjQEBn485REUAAgUQBAjqRiA0QQACBbAQI6GzcOSoCCCCQKEBAJxKxAQIIIJCNAAGdjTtHRQABBBIFCOhEIjZAAAEEshEgoLNx56gIIIBAogABnUjEBggggEA2AgR0Nu4cFQEEEEgUIKATidgAAQQQyEaAgM7GnaMigAACiQIEdCIRGyCAAALZCBDQ2bhzVAQQQCBRgIBOJGIDBBBAIBsBAjobd46KAAIIJAoQ0IlEbIAAAghkI0BAZ+POURFAAIFEAQI6kYgNQhY4cuTI/7+GO1p916vODRo0OBJy3akbAkkCBHSSEH8PUmDHjh0d33vvvfPefvvtnkuXLu3bqFGjFocOHTrcsGHDKgvmQ4cPH97Zu3fvZeecc86/n3/++S8S1kE2I5VKECCguURyJaBgfvjhh0e88cYbV61Zs6ZTVVVVBwvjqF27dtGePXsi+zlq0aJFtHHjxsh61zq3Lfa3Ty+77LIFo0ePnkhQ56q5C19ZArrwl0A+ADSUsXz58m//9Kc//Zddu3Z9affu3U26desWV956zpFCWuGsf/r+6BBH/HX9+vUa7og6dOjw4R133PFD61m/QFDno92LXksCuuhXQA7OX+E8c+bMex977LEbmjdv3rlly5aRDWXEPWSFcePGjeOQtmGOY4GtoN63b1+8XbNmzaKtW7dGe/fuVYBvGjx4cI31pu8hpHPQ+AWvIgFd8Asg9NNXOM+YMWO6wrlHjx5tFMo7d+6Mg9fCOjpw4EAczAro/fv3x6fTtGnTuCd98ODBOMT1s7ZzPesNGzZsu/XWWx8dOnToeEI69Cug2PUjoIvd/kGfvcJ5ypQp0xcsWHCj9ZpbK2TVW1Y4K2zVI1bv2IW0/qaPflY4N2nSJP5Z3yvA9bOGOjQ+bcMkO2+77bYHb7/99rsI6aAvg0JXjoAudPOHe/IK52XLlg266667ZlZXV3dUj1gBq6DVRz+78HWBXXvsWb/Ttgpt9ay1r4Y8tJ963Pp59erVWyZPnvyDPn36PB+uBDUrsgABXeTWD/jcrYfbZeDAgYvtBt/X27RpEweqesLuo+CtHbj6XkMZ+rietQJaQxz654ZB3E1E/U3j0p06dfpk0aJFp9KLDvhiKHDVCOgCN36op67e83333Tfr2WefvfnEE09snmY9N23aFA0aNGjmuHHjRhPSaUpTdl0ECOi6qLFPqgIK6Msvv/y/7Gbe36j3nOZHwyI2HPLZkiVLuhPQaUpTdl0ECOi6qLFPqgLvvvvu4O9///sPWe/5BHejL60Daqz6s88+2z937tzrvvGNb8xP6ziUi0BdBAjouqixT2oC6j1Pnz591rx584bagygN3dS5tA6oMWk9yGLj3Q9NmDBheFrHoVwE6iJAQNdFjX1SE1BA9+vX7z/tScGv6UagmzqX1gF141E3C+0pw/dtTY8z0zoO5SJQFwECui5q7JOagALapr19aOPPp3Xs2DGet5z2R7M/bNbIn+xR8jPSPhblI1COQPpXfzm1YdvCCyigBwwY8CfrQZ+qRY/00EmaH/Wgjz6VuOrll18+1/5DWJfm8SgbgXIECOhytNg2dQEL6E59+/Z92w7UXfOX3QMpaR1Y86NtVbyoffv2q371q1+dzkyOtKQpty4CBHRd1NgnNYGjY9Afbd68+ZTWrVvHvVsX0poSp9DW7/Q5upzoceuiIRJtp6/aX/8UyipTvXP9Xv9srHvVL3/5SwI6tZal4LoIENB1UWOfVAV69er1/vbt27/SuXPn+GlBNw7tArn2z0lj1C6YXcjrCUJ9r9/rexf2dkIf2FzoM+lBp9q0FF6mAAFdJhibpy8wZ86c2VOnTh3WpUuXKs3iqB3Mrkdcai1qB7QLZe3rylFY25oc0U033fSQLUE6goAuVZbtKiFAQFdCmWOUJWCzKb579913z7U3obRyi/HXHo9262soXJOGOdyyo/rqFlD6/2XZ6nb7Z8+ePcRejcWiSWW1FBunLUBApy1M+WULaBzaXlH1/qpVq75sa0AfW/DI9XrdmHIpvWmFsmZqaNvab1tx32stDhtK+cjGn8+xbTaUXVl2QCBFAQI6RVyKrpvA0XWgZz7//PO3tWrVqrG7qefeoOJu7Kn0UnrQ6oXXHrd249F6SnHt2rUa3phmiyWNrVtt2QuB9AQI6PRsKbkeAgrpSy+99Pfbtm07S29O0ZocmoFR+yaffk66SeiqULv37XrVejOLTa97/xe/+MUFNmNkYz2qy64IpCJAQKfCSqE+BOzN3QOtZ/uwLdjfTiHtAtrNvHBhfbxj1R4OcQv6q0euNaPtDeGb7HVa/9izZ89FPupLGQj4FiCgfYtSnjcB9aJnzZr1gC2cpHWh4/cRuuENjStrhod+1lCFvnevvlIA25OI8QL++t6CONJTidpOP+ufzdzYdsMNN/xs1KhRE7xVmIIQ8CxAQHsGpTi/Agppm2ExTSHdtm3bVu4N3upFK3AVyvZ7raVx7P2EmjvtetzaRmtK6+/aRzcFLdy33njjjQ+PHDmScPbbXJTmWYCA9gxKcf4FFNI1NTVTnnjiiRts3LhD165d4x6zG+JwTwe6t3jrRbIaX1avWb9zL5DVsqK27frrr7/+kbFjx070X1NKRMCvAAHt15PSUhRYuXLlFfaW7ynWCz7DhjAa2RKhx14G62ZquHcXajjEvWRWYW3/Dtp0uv++5557fnjeeectSbGaFI2ANwEC2hslBVVC4OiC/ve+8sorV9g6zl1siKO1DV1UaWlSBbF7e7eGNGysWa8A32VT9VZdc801C+wtLbOYrVGJVuIYvgQIaF+SlFNxAetRX2qvxzp/8eLFfezgzexm4GGb8aEhjUN2g3DPt771rddshsZbZ5555jsEc8WbhwN6ECCgPSBSRPYCtrhSe+spa1YH85mzbw5q4EmAgPYESTEIIICAbwEC2rco5SGAAAKeBAhoT5AUgwACCPgWIKB9i1IeAggg4EmAgPYESTEIIICAbwEC2rco5SGAAAKeBAhoT5AUgwACCPgWIKB9i1IeAggg4EmAgPYESTEIIICAbwEC2rco5SGAAAKeBAhoT5AUgwACCPgWIKB9i1IeAggg4EmAgPYESTEIIICAbwEC2rco5SGAAAKeBAhoT5AUgwACCPgWIKB9i1IeAggg4EmAgPYESTEIIICAbwEC2rco5SGAAAKeBAhoT5AUgwACCPgWIKB9i1IeAggg4EmAgPYESTEIIICAbwEC2rco5SGAAAKeBAhoT5AUgwACCPgWIKB9i1IeAggg4EmAgPYESTEIIICAbwEC2rco5SGAAPbqLT8AAALOSURBVAKeBAhoT5AUgwACCPgWIKB9i1IeAggg4EmAgPYESTEIIICAbwEC2rco5SGAAAKeBAhoT5AUgwACCPgWIKB9i1IeAggg4EmAgPYESTEIIICAbwEC2rco5SGAAAKeBAhoT5AUgwACCPgWIKB9i1IeAggg4EmAgPYESTEIIICAbwEC2rco5SGAAAKeBAhoT5AUgwACCPgWIKB9i1IeAggg4EmAgPYESTEIIICAbwEC2rco5SGAAAKeBAhoT5AUgwACCPgWIKB9i1IeAggg4EmAgPYESTEIIICAbwEC2rco5SGAAAKeBAhoT5AUgwACCPgWIKB9i1IeAggg4EmAgPYESTEIIICAbwEC2rco5SGAAAKeBAhoT5AUgwACCPgWIKB9i1IeAggg4EmAgPYESTEIIICAbwEC2rco5SGAAAKeBAhoT5AUgwACCPgWIKB9i1IeAggg4EmAgPYESTEIIICAbwEC2rco5SGAAAKeBAhoT5AUgwACCPgWIKB9i1IeAggg4EmAgPYESTEIIICAbwEC2rco5SGAAAKeBAhoT5AUgwACCPgWIKB9i1IeAggg4EmAgPYESTEIIICAbwEC2rco5SGAAAKeBAhoT5AUgwACCPgWIKB9i1IeAggg4EmAgPYESTEIIICAbwEC2rco5SGAAAKeBAhoT5AUgwACCPgWIKB9i1IeAggg4EmAgPYESTEIIICAbwEC2rco5SGAAAKeBAhoT5AUgwACCPgWIKB9i1IeAggg4EmAgPYESTEIIICAbwEC2rco5SGAAAKeBAhoT5AUgwACCPgWIKB9i1IeAggg4EmAgPYESTEIIICAbwEC2rco5SGAAAKeBAhoT5AUgwACCPgWIKB9i1IeAggg4EmAgPYESTEIIICAbwEC2rco5SGAAAKeBAhoT5AUgwACCPgWIKB9i1IeAggg4EmAgPYESTEIIICAb4H/BbiZE/+OutmcAAAAAElFTkSuQmCC;" vertex="1" parent="1">
          <mxGeometry x="180" y="210" width="34" height="34" as="geometry" />
        </mxCell>
        <mxCell id="0yVlcpvxOaxAhsToYy31-137" value="" style="shape=image;verticalLabelPosition=bottom;labelBackgroundColor=default;verticalAlign=top;aspect=fixed;imageAspect=0;image=data:image/png,iVBORw0KGgoAAAANSUhEUgAAAWgAAAFoCAYAAAB65WHVAAAgAElEQVR4Xu3dCdAWxZ3H8eHl5uUSuQQErxy6qdTulrXxwCOES0WNGgJB3XjFlWPlEgyaoky2IqBy+xpFoi6rKRVPiBxG0ASMW26pld1sRbNGNApy3/e5/98sTb1upZjned+eZ3oy36eKeq+Znp5PT/3o6unpaRDxQQABBBAIUqBBkLWiUggggAACEQHNRYAAAggEKkBAB9owVAsBBBAgoLkGEEAAgUAFCOhAG4ZqIYAAAgQ01wACCCAQqAABHWjDUC0EEECAgOYaQAABBAIVIKADbRiqhQACCBDQXAMIIIBAoAIEdKANQ7UQQAABApprAAEEEAhUgIAOtGGoFgIIIEBAcw0ggAACgQoQ0IE2DNVCAAEECGiuAQQQQCBQAQI60IahWggggAABzTWAAAIIBCpAQAfaMFQLAQQQIKC5BhBAAIFABQjoQBuGaiGAAAIENNcAAgggEKgAAR1ow1AtBBBAgIDmGkAAAQQCFSCgA20YqoUAAggQ0FwDCCCAQKACBHSgDUO1EEAAAQKaawABBBAIVICADrRhqBYCCCBAQHMNIIAAAoEKENCBNgzVQgABBAhorgEEEEAgUAECOtCGoVoIIIAAAc01gAACCAQqQEAH2jBUCwEEECCguQYQQACBQAUI6EAbhmohgAACBDTXAAIIIBCoAAEdaMNQLQQQQICA5hpAAAEEAhUgoANtGKqFAAIIENBcAwgggECgAgR0oA1DtRBAAAECmmsAAQQQCFSAgA60YagWAgggQEBzDSCAAAKBChDQgTYM1UIAAQQIaK4BBBBAIFABAjrQhqFaCCCAAAHNNYAAAggEKkBAB9owVAsBBBAgoLkGEEAAgUAFCOhAG4ZqIYAAAgQ01wACCCAQqAABHWjDUC0EEECAgOYaQAABBAIVIKADbRiqhQACCBDQXAMIIIBAoAIEdKANQ7UQQAABApprAAEEEAhUgIAOtGGoFgIIIEBAcw0ggAACgQoQ0IE2DNVCAAEECGiuAQQQQCBQAQI60IahWggggAABzTWAAAIIBCpAQAfaMFQLAQQQIKC5BhBAAIFABQjoQBuGaiGAAAIENNcAAgggEKgAAR1ow1AtBBBAgIDmGkAAAQQCFSCgA20YqoUAAggQ0FwDCCCAQKACBHSgDUO1EEAAAQKaawABBBAIVICADrRhqBYCCCBAQHMNIIAAAoEKENCBNgzVQgABBAhorgEEEEAgUAECOtCGoVoIIIAAAc01gAACCAQqQEAH2jBUCwEEECCguQYQQACBQAUI6EAbhmohgAACBDTXAAIIIBCoAAEdaMNQLQQQQICA5hpAAAEEAhUgoANtGKpVN4EjR4500J4NGjTYULcS2AuBcAQI6HDagpqUKbBs2bILf/e73w149dVXr9CuBw8ejA4cOHCkTZs2jXbt2rX/qquuevmss856s1evXq+UWTSbIxCEAAEdRDNQiXIEpk+f/oiFcu8NGzacuH///jYtWrSImjVrFlVXV0dbtmyJv2/UqFG0du3aqGnTptsssP88YMCAhSNHjvyR9ayPlHMstkUgSwECOkt9jl2WwG9+85tvT548+cnPPvus2oI3atWqVVRVVRU1adLE9Z6jhg0bxj/v3bs3UnBbjzqyII8aN258sH379r+fMGHC3T179lxU1oHZGIGMBAjojOA5bHkCFswznn766ZEK3xNOOCGynnPUvHnz6PDhw3E429hz/LOC+dChQ/H3+/bt+8Lv169frx715muvvXb26NGj7ymvBmyNQOUFCOjKm3PEMgWmTZs28Zlnnvlx27Zt4z137twZdezYMdqxY0ccwOop25izeslx71nfqydtwxnH/inQ1evW5/PPP99+6623Pjhs2LC7y6wKmyNQUQECuqLcHKxcgfvuu2/8U0899eMuXbo0U49YwatA3rZtWxy4Cmj9UzDv2bMnHvLQ7xXI+l5/0zCHG+5QaKsnbb3uHbfcckuNjUtPKLdObI9ApQQI6EpJc5yyBZYuXfq1u+66a7mNNXdwwxkavlBI66PvFcLH+yigXU9awyH66AaihkK2b9++e+rUqYMvvvjihWVXjh0QqIAAAV0BZA5RN4Err7zyXbvB93cKZ/WQFbAulBW6+llfS/loO9fbVsBr3FpDJe3atftg0aJFXy2lDLZBoNICpV3dla4Vxyu8wIwZMybPnTv3To01q8frhitcKLtgVuge76P9FOq1t3e9bg2DbN26NRoyZMi0cePGjS08OgDBCRDQwTUJFZLAJZdc8oGNFX+5Q4cOx3q+tXvBbtgiKaBdb1nbK5jdMIf7XuFtNxc/XrJkyanIIxCaAAEdWotQn2jFihW9hw4d+mL37t1bKlD1T0Hser5uqML1qpN60BrO0LYKawVy7bLUO1+3bl1kY9FXXnTRRQvgRyAkAQI6pNagLrHApEmTJr/00kt3atxZ48+ul1xqr7k2oxurVkDrewW0PrV743ri0GZ0zBg1atRomgCBkAQI6JBag7rEAn369PmjheaXTjvttGj37t1fGD924aqvbobG8dhqB7S2q32TUd9rSp4CunPnzn945ZVXzqIJEAhJgIAOqTWoSyzQr1+/Dzdv3nx6y5Ytj90g1O/dUIebZpc0/ly7p+yCWmW4m46aH63P0fI+nT9//t+3bt16I82AQCgCBHQoLUE9jgn07t37Y1vwqId7OjBtGo1R24MsaxYuXPi3LFOatjbllyNAQJejxbapC1jPuY0tD/qx9WTb2ip08XoaaX7Us7Zjaj70pzaTower3aWpTdnlChDQ5YqxfWoCNmTRxAJy/2WXXfbx6tWre3Tr1i1+ZDvNj4Y71FO3m4ifL1++vCsBnaY2ZZcrQECXK8b2qQlYQDe0gDxkY9D/Y+s6n6H1MzSTI82Phjd0o9CC+s8LFiw4hYBOU5uyyxUgoMsVY/vUBWxO8oPPPffccK33nPZHNw21Lkffvn0fmjhx4vC0j0f5CJQjQECXo8W2FRF4/fXXv2PrNT9pTxE2LXWtjfpUzIZTDs+ZM2fQ+eef/1x9ymFfBHwLENC+RSmv3gI21NHAhjk+tpt33e3mXb3LO14BukFo632ss/Wmv2499vWpHozCEShTgIAuE4zNKyNgi/TPnjdv3ggtlpTmR2tD22JJD9tiScMYf05TmrLrIkBA10WNfVIXUC+6f//+f7IAPVW9aA116IESjRnXXgNav9cDJ3qbSu2FkNzv3PrRbjvN2nCL+dt60Oo9f2jzn3va39elflIcAIEyBQjoMsHYvHICr7322nfuvPPOf7UQbaFw1mPfmnGh8NVThAplBbBCV7+rvaSo/qYZGm4VOxfQtd/IYsMbW++///5b7NHy5yt3VhwJgdIFCOjSrdgyAwGb0THrscceG9G1a9cGCmM37U6Bq4dYXACrarXftKKf1aPW9lrzWQ+9uHWhtZ/1ng/ceOONj4wYMeJ2hjYyaFgOWZIAAV0SExtlJaChjtmzZ8/6+c9/PsIWNIp7yvYYeDw1TuHretauN+2C2r2HUNtpTQ/1vvXRTUHbZ9/gwYMftZkihHNWDctxSxIgoEtiYqOsBWpqamZaT3qovRi2sfWm43FohbBbRtS9xVv11PCHW/dZP7txZ4052++3Wjg/MX78+DH0nLNuVY6fJEBAJwnx92AEVq5cefXkyZNnrlmzpptu9J166qlxz1hrRutxbTf8ob9VV1fHb/lWOKvXrGENewHAqjFjxtxha328EMxJUREEjiNAQHN55EZAwx2q7KxZsx6wx7Kvthke3e1x8CqFs4Y92rZtG5+Lxpw1tKGQtrA+eNJJJ621JwWfu/nmmycx1zk3zU1FTYCA5jLIrcAbb7xx+TvvvNNz8eLF/a333MxmbTTSNW3DHofsBuE+m52x+Nxzz11hTwi+xTKiuW3mQlecgC508/91nbz1sDvYGX1hwX3Gmf+62rhoZ0NAF63FOV8EEMiNAAGdm6aiogggUDQBArpoLc75IoBAbgQI6Nw0FRVFAIGiCRDQRWtxzhcBBHIjQEDnpqmoKAIIFE2AgC5ai3O+CCCQGwECOjdNRUURQKBoAgR00Vqc80UAgdwIENC5aSoqigACRRMgoIvW4pwvAgjkRoCAzk1TUVEEECiaAAFdtBbnfBFAIDcCBHRumoqKIoBA0QQI6KK1OOeLAAK5ESCgc9NUVBQBBIomQEAXrcU5XwQQyI0AAZ2bpqKiCCBQNAECumgtzvkigEBuBAjo3DQVFUUAgaIJENBFa3HOFwEEciNAQOemqagoAggUTYCALlqLc74IIJAbAQI6N01FRRFAoGgCBHTRWpzzRQCB3AgQ0LlpKiqKAAJFEyCgi9binC8CCORGgIDOTVNRUQQQKJoAAV20Fud8EUAgNwIEdG6aiooigEDRBAjoorU454sAArkRIKBz01RUFAEEiiZAQBetxTlfBBDIjQABnZumoqIIIFA0AQK6aC3O+SKAQG4ECOjcNBUVRQCBogkQ0EVrcc4XAQRyI0BA56apqCgCCBRNgIAuWotzvgggkBsBAjo3TUVFEUCgaAIEdNFanPNFAIHcCBDQuWkqKooAAkUTIKCL1uKcLwII5EaAgM5NU1HRvyRw5MiRY9fwrl27OlVXV6+rvV2DBg2OIIdAXgUI6Ly2XIHr7UL5t7/97dUrVqw42/71st+12LdvX1WLFi2qDhw4oOt69ze/+c3l55xzztsXXnjhfHER1gW+aHJ66gR0ThuuiNV2wTxz5sxJS5YsuWrt2rUdmzRpUr13797GnTt3jrZt2xZZDzqy30Vr1qzR90f279+/p02bNuuvvvrqBcOHD7/XQvoLPewiOnLO+REgoPPTVoWuqcL5zTffHHjvvff+aP369V+yUG7Wo0ePyHrNUaNGjaJDhw5F1nOOrAcdfz3aY46/bt68Of5dhw4dPpg4ceKPLrjggufpTRf6csrNyRPQuWmq4lZU4Txjxozpjz/++HWNGzc+0T4arogOHz4cfz3eR8HcrFmzeBMLdu2z+dprr31q7NixIwnp4l5TeTlzAjovLVXQeiqcp0yZMv2FF164xXrA1QcPHoyDuXYP+Xg06l1re+1nZUVbtmyJmjZteuB73/venH+2DyFd0AsrJ6dNQOekoYpYTYXzrFmzpj755JO3Kpx3794djy+r16whDRe+x7NxPWwbi1Ywx/ts2rRJob33mmuueWT8+PGjimjLOedDgIDORzsVspa//vWvB40ePbrmhBNOOLGqqupYIGvYQkGtXrF+f7yPgtyF+p49e+LhDoX0J598EjVs2HDr9OnTb7r44otfLCQwJx28AAEdfBMVs4LqPV966aW/t3HjszRDY+vWrVG7du0i9YTduLK+TwpoC+HIbijGvWeFtRsekarNm45sPPujp59++txWrVqtL6Y0Zx2yAAEdcusUtG4K56lTp97/zDPPDLfgbKYer6bPaWjCbhLGvWD1htUzrh24f4lLAe6CXOVofw2VqAx93bhxY3TbbbfNGjZs2CjGowt6wQV82gR0wI1T1KopoC+55JL3P//88y937Ngxat68eTxVzsI6vtGn0FVAK2yTPuo1a399dTcKtY961OqJK/RtnvTHy5YtO42ATtLk75UWIKArLc7xEgVWrlz5XXuoZE6XLl3a6Cbfjh074nB2c54VtOoBu/nOSQUqnBXsmiOt4Q4Ne6jnraBXWTbUcWDSpElD7MnD55LK4u8IVFKAgK6kNsdKFFDvedq0aTPnzZs3/KSTTqpKGsJILLCEDTT1btCgQQ/dcccdw0vYnE0QqJgAAV0xag5UisDR4Y0/2KPaX+natWs8NJHmxz3sYsf5YPny5V9N81iUjUC5AgR0uWJsn6qAAtqGGj6yG3unaJy4lHHm+lRIQyh6wrBbt24fLVy48PT6lMW+CPgWIKB9i1JevQQsoDv179//P2xs+GSFc9pDHO6hF/v60auvvnoGNwrr1Xzs7FmAgPYMSnH1E1APum/fvp/YuPDJbdu2TZznXL+jxUuQxjNE2rdv/8mzzz77Dy1bttxASNdXlf19CRDQviQpx4vA0YD+1GZpdNVUuqQHUep7UM2N1kMwFswfLV26lB50fUHZ36sAAe2Vk8LqK6CA7tev34erV68+7eSTT059iENDKDt37oxat279BxviOKu+9Wd/BHwKENA+NSmr3gIK6AceeOBn8+fP/yd7gCRxOdH6HlDzo/U04XXXXVczZswYVrerLyj7exUgoL1yUpgPAXtQZci4cePm2oMlzTVGrBDVgymacueeCNRDJxoC0RBF0kc3G/WAirbVgymaHeIeflHZNqXvQE1NzXU9e/Z8Nqks/o5AJQUI6Epqc6ySBCw0q/r06bPKbhR279Sp07EbeXpkW//c04Bai0PrbCR99MSh9nNznhXOWnhJAa8pdvZAzMeLFy/mUe8kSP5ecQECuuLkHDBJQMMcDz744CNz5sz5gd6eop6vAlaPeqsHrMe+NSxhN/bi3vXxPm6xJBfsCmuVqZXsVJbeYzhkyJAae8PKiKR68XcEKi1AQFdanOOVJGA37joPHDjwLevhnqLlRtVT1hoa7o0qGqZwvztegeo1q6etXreGOvS9ptVpCp+9dDayxZj+uGjRoq8yta6kZmGjCgsQ0BUG53ClCagXbY9eD7b1Mebagv025Px/Y84ak3aL96s3nPROQgW0euAKcwW0WyBJv7eV7HbYsqY39+rV6zkCurR2YavKChDQlfXmaGUIKKRnz55dYwsn3WI93sYujBXWGppQbzjp4wJZvW8Nhyiotf+GDRv0XsJH7Y0tIwjnJEX+npUAAZ2VPMctSUAhbUuB1rz44ou32NhzYw1taKF9hWypCym5cWrX87ae88Errrji0QkTJgwnnEtqBjbKSICAzgiew5Yu4JYgtVdT3WDDGq20iL+GK0qZZucW+NdXLc5vob79+uuv/zfmPJfuz5bZCRDQ2dlz5DIEFNIrVqy45ic/+clkG544XQGtqXK1lguN50prpod6yhoO0d/U49YLYjUcYsH+ob3F+4e2Wt4L9JzLwGfTzAQI6MzoOXBdBGwOc8fHH398wksvvXS5jUN3tjKqFb7qTdt85ni2htbWcHOkrce8z2aBrLMX0L4wcuTIMTom4VwXefbJQoCAzkKdY9ZLQL1pFfD6669f8d577527YMGCPjbPuanN1mh49LVYhyyw9w8YMOC1s88++62LLrroJYK5XuTsnJEAAZ0RPIf1K6DQVs94+/bt7W3ho41+S6c0BLIRIKCzceeoCCCAQKIAAZ1IxAYIIIBANgIEdDbuHBUBBBBIFCCgE4nYAAEEEMhGgIDOxp2jIoAAAokCBHQiERsggAAC2QgQ0Nm4c1QEEEAgUYCATiRiAwQQQCAbAQI6G3eOigACCCQKENCJRGyAAAIIZCNAQGfjzlERQACBRAECOpGIDRBAAIFsBAjobNw5KgIIIJAoQEAnErEBAgggkI0AAZ2NO0dFAAEEEgUI6EQiNkAAAQSyESCgs3HnqAgggECiAAGdSMQGCCCAQDYCBHQ27hwVAQQQSBQgoBOJ2AABBBDIRoCAzsadoyKAAAKJAgR0IhEbIIAAAtkIENDZuHNUBBBAIFGAgE4kYgMEEEAgGwECOht3jooAAggkChDQiURsgAACCGQjQEBn485REUAAgUQBAjqRiA0QQACBbAQI6GzcOSoCCCCQKEBAJxKxAQIIIJCNAAGdjTtHRQABBBIFCOhEIjZAAAEEshEgoLNx56gIIIBAogABnUjEBggggEA2AgR0Nu4cFQEEEEgUIKATidgAAQQQyEaAgM7GnaMigAACiQIEdCIRGyCAAALZCBDQ2bhzVAQQQCBRgIBOJGIDBBBAIBsBAjobd46KAAIIJAoQ0IlEbIAAAghkI0BAZ+POURFAAIFEAQI6kYgNQhY4cuTI/7+GO1p916vODRo0OBJy3akbAkkCBHSSEH8PUmDHjh0d33vvvfPefvvtnkuXLu3bqFGjFocOHTrcsGHDKgvmQ4cPH97Zu3fvZeecc86/n3/++S8S1kE2I5VKECCguURyJaBgfvjhh0e88cYbV61Zs6ZTVVVVBwvjqF27dtGePXsi+zlq0aJFtHHjxsh61zq3Lfa3Ty+77LIFo0ePnkhQ56q5C19ZArrwl0A+ADSUsXz58m//9Kc//Zddu3Z9affu3U26desWV956zpFCWuGsf/r+6BBH/HX9+vUa7og6dOjw4R133PFD61m/QFDno92LXksCuuhXQA7OX+E8c+bMex977LEbmjdv3rlly5aRDWXEPWSFcePGjeOQtmGOY4GtoN63b1+8XbNmzaKtW7dGe/fuVYBvGjx4cI31pu8hpHPQ+AWvIgFd8Asg9NNXOM+YMWO6wrlHjx5tFMo7d+6Mg9fCOjpw4EAczAro/fv3x6fTtGnTuCd98ODBOMT1s7ZzPesNGzZsu/XWWx8dOnToeEI69Cug2PUjoIvd/kGfvcJ5ypQp0xcsWHCj9ZpbK2TVW1Y4K2zVI1bv2IW0/qaPflY4N2nSJP5Z3yvA9bOGOjQ+bcMkO2+77bYHb7/99rsI6aAvg0JXjoAudPOHe/IK52XLlg266667ZlZXV3dUj1gBq6DVRz+78HWBXXvsWb/Ttgpt9ay1r4Y8tJ963Pp59erVWyZPnvyDPn36PB+uBDUrsgABXeTWD/jcrYfbZeDAgYvtBt/X27RpEweqesLuo+CtHbj6XkMZ+rietQJaQxz654ZB3E1E/U3j0p06dfpk0aJFp9KLDvhiKHDVCOgCN36op67e83333Tfr2WefvfnEE09snmY9N23aFA0aNGjmuHHjRhPSaUpTdl0ECOi6qLFPqgIK6Msvv/y/7Gbe36j3nOZHwyI2HPLZkiVLuhPQaUpTdl0ECOi6qLFPqgLvvvvu4O9///sPWe/5BHejL60Daqz6s88+2z937tzrvvGNb8xP6ziUi0BdBAjouqixT2oC6j1Pnz591rx584bagygN3dS5tA6oMWk9yGLj3Q9NmDBheFrHoVwE6iJAQNdFjX1SE1BA9+vX7z/tScGv6UagmzqX1gF141E3C+0pw/dtTY8z0zoO5SJQFwECui5q7JOagALapr19aOPPp3Xs2DGet5z2R7M/bNbIn+xR8jPSPhblI1COQPpXfzm1YdvCCyigBwwY8CfrQZ+qRY/00EmaH/Wgjz6VuOrll18+1/5DWJfm8SgbgXIECOhytNg2dQEL6E59+/Z92w7UXfOX3QMpaR1Y86NtVbyoffv2q371q1+dzkyOtKQpty4CBHRd1NgnNYGjY9Afbd68+ZTWrVvHvVsX0poSp9DW7/Q5upzoceuiIRJtp6/aX/8UyipTvXP9Xv9srHvVL3/5SwI6tZal4LoIENB1UWOfVAV69er1/vbt27/SuXPn+GlBNw7tArn2z0lj1C6YXcjrCUJ9r9/rexf2dkIf2FzoM+lBp9q0FF6mAAFdJhibpy8wZ86c2VOnTh3WpUuXKs3iqB3Mrkdcai1qB7QLZe3rylFY25oc0U033fSQLUE6goAuVZbtKiFAQFdCmWOUJWCzKb579913z7U3obRyi/HXHo9262soXJOGOdyyo/rqFlD6/2XZ6nb7Z8+ePcRejcWiSWW1FBunLUBApy1M+WULaBzaXlH1/qpVq75sa0AfW/DI9XrdmHIpvWmFsmZqaNvab1tx32stDhtK+cjGn8+xbTaUXVl2QCBFAQI6RVyKrpvA0XWgZz7//PO3tWrVqrG7qefeoOJu7Kn0UnrQ6oXXHrd249F6SnHt2rUa3phmiyWNrVtt2QuB9AQI6PRsKbkeAgrpSy+99Pfbtm07S29O0ZocmoFR+yaffk66SeiqULv37XrVejOLTa97/xe/+MUFNmNkYz2qy64IpCJAQKfCSqE+BOzN3QOtZ/uwLdjfTiHtAtrNvHBhfbxj1R4OcQv6q0euNaPtDeGb7HVa/9izZ89FPupLGQj4FiCgfYtSnjcB9aJnzZr1gC2cpHWh4/cRuuENjStrhod+1lCFvnevvlIA25OI8QL++t6CONJTidpOP+ufzdzYdsMNN/xs1KhRE7xVmIIQ8CxAQHsGpTi/Agppm2ExTSHdtm3bVu4N3upFK3AVyvZ7raVx7P2EmjvtetzaRmtK6+/aRzcFLdy33njjjQ+PHDmScPbbXJTmWYCA9gxKcf4FFNI1NTVTnnjiiRts3LhD165d4x6zG+JwTwe6t3jrRbIaX1avWb9zL5DVsqK27frrr7/+kbFjx070X1NKRMCvAAHt15PSUhRYuXLlFfaW7ynWCz7DhjAa2RKhx14G62ZquHcXajjEvWRWYW3/Dtp0uv++5557fnjeeectSbGaFI2ANwEC2hslBVVC4OiC/ve+8sorV9g6zl1siKO1DV1UaWlSBbF7e7eGNGysWa8A32VT9VZdc801C+wtLbOYrVGJVuIYvgQIaF+SlFNxAetRX2qvxzp/8eLFfezgzexm4GGb8aEhjUN2g3DPt771rddshsZbZ5555jsEc8WbhwN6ECCgPSBSRPYCtrhSe+spa1YH85mzbw5q4EmAgPYESTEIIICAbwEC2rco5SGAAAKeBAhoT5AUgwACCPgWIKB9i1IeAggg4EmAgPYESTEIIICAbwEC2rco5SGAAAKeBAhoT5AUgwACCPgWIKB9i1IeAggg4EmAgPYESTEIIICAbwEC2rco5SGAAAKeBAhoT5AUgwACCPgWIKB9i1IeAggg4EmAgPYESTEIIICAbwEC2rco5SGAAAKeBAhoT5AUgwACCPgWIKB9i1IeAggg4EmAgPYESTEIIICAbwEC2rco5SGAAAKeBAhoT5AUgwACCPgWIKB9i1IeAggg4EmAgPYESTEIIICAbwEC2rco5SGAAAKeBAhoT5AUgwACCPgWIKB9i1IeAggg4EmAgPYESTEIIICAbwEC2rco5SGAAPbqLT8AAALOSURBVAKeBAhoT5AUgwACCPgWIKB9i1IeAggg4EmAgPYESTEIIICAbwEC2rco5SGAAAKeBAhoT5AUgwACCPgWIKB9i1IeAggg4EmAgPYESTEIIICAbwEC2rco5SGAAAKeBAhoT5AUgwACCPgWIKB9i1IeAggg4EmAgPYESTEIIICAbwEC2rco5SGAAAKeBAhoT5AUgwACCPgWIKB9i1IeAggg4EmAgPYESTEIIICAbwEC2rco5SGAAAKeBAhoT5AUgwACCPgWIKB9i1IeAggg4EmAgPYESTEIIICAbwEC2rco5SGAAAKeBAhoT5AUgwACCPgWIKB9i1IeAggg4EmAgPYESTEIIICAbwEC2rco5SGAAAKeBAhoT5AUgwACCPgWIKB9i1IeAggg4EmAgPYESTEIIICAbwEC2rco5SGAAAKeBAhoT5AUgwACCPgWIKB9i1IeAggg4EmAgPYESTEIIICAbwEC2rco5SGAAAKeBAhoT5AUgwACCPgWIKB9i1IeAggg4EmAgPYESTEIIICAbwEC2rco5SGAAAKeBAhoT5AUgwACCPgWIKB9i1IeAggg4EmAgPYESTEIIICAbwEC2rco5SGAAAKeBAhoT5AUgwACCPgWIKB9i1IeAggg4EmAgPYESTEIIICAbwEC2rco5SGAAAKeBAhoT5AUgwACCPgWIKB9i1IeAggg4EmAgPYESTEIIICAbwEC2rco5SGAAAKeBAhoT5AUgwACCPgWIKB9i1IeAggg4EmAgPYESTEIIICAbwEC2rco5SGAAAKeBAhoT5AUgwACCPgWIKB9i1IeAggg4EmAgPYESTEIIICAbwEC2rco5SGAAAKeBAhoT5AUgwACCPgWIKB9i1IeAggg4EmAgPYESTEIIICAbwEC2rco5SGAAAKeBAhoT5AUgwACCPgWIKB9i1IeAggg4EmAgPYESTEIIICAb4H/BbiZE/+OutmcAAAAAElFTkSuQmCC;" vertex="1" parent="1">
          <mxGeometry x="180" y="350" width="34" height="34" as="geometry" />
        </mxCell>
        <mxCell id="0yVlcpvxOaxAhsToYy31-138" value="" style="shape=image;verticalLabelPosition=bottom;labelBackgroundColor=default;verticalAlign=top;aspect=fixed;imageAspect=0;image=data:image/png,iVBORw0KGgoAAAANSUhEUgAAAWgAAAFoCAYAAAB65WHVAAAgAElEQVR4Xu3dCdAWxZ3H8eHl5uUSuQQErxy6qdTulrXxwCOES0WNGgJB3XjFlWPlEgyaoky2IqBy+xpFoi6rKRVPiBxG0ASMW26pld1sRbNGNApy3/e5/98sTb1upZjned+eZ3oy36eKeq+Znp5PT/3o6unpaRDxQQABBBAIUqBBkLWiUggggAACEQHNRYAAAggEKkBAB9owVAsBBBAgoLkGEEAAgUAFCOhAG4ZqIYAAAgQ01wACCCAQqAABHWjDUC0EEECAgOYaQAABBAIVIKADbRiqhQACCBDQXAMIIIBAoAIEdKANQ7UQQAABApprAAEEEAhUgIAOtGGoFgIIIEBAcw0ggAACgQoQ0IE2DNVCAAEECGiuAQQQQCBQAQI60IahWggggAABzTWAAAIIBCpAQAfaMFQLAQQQIKC5BhBAAIFABQjoQBuGaiGAAAIENNcAAgggEKgAAR1ow1AtBBBAgIDmGkAAAQQCFSCgA20YqoUAAggQ0FwDCCCAQKACBHSgDUO1EEAAAQKaawABBBAIVICADrRhqBYCCCBAQHMNIIAAAoEKENCBNgzVQgABBAhorgEEEEAgUAECOtCGoVoIIIAAAc01gAACCAQqQEAH2jBUCwEEECCguQYQQACBQAUI6EAbhmohgAACBDTXAAIIIBCoAAEdaMNQLQQQQICA5hpAAAEEAhUgoANtGKqFAAIIENBcAwgggECgAgR0oA1DtRBAAAECmmsAAQQQCFSAgA60YagWAgggQEBzDSCAAAKBChDQgTYM1UIAAQQIaK4BBBBAIFABAjrQhqFaCCCAAAHNNYAAAggEKkBAB9owVAsBBBAgoLkGEEAAgUAFCOhAG4ZqIYAAAgQ01wACCCAQqAABHWjDUC0EEECAgOYaQAABBAIVIKADbRiqhQACCBDQXAMIIIBAoAIEdKANQ7UQQAABApprAAEEEAhUgIAOtGGoFgIIIEBAcw0ggAACgQoQ0IE2DNVCAAEECGiuAQQQQCBQAQI60IahWggggAABzTWAAAIIBCpAQAfaMFQLAQQQIKC5BhBAAIFABQjoQBuGaiGAAAIENNcAAgggEKgAAR1ow1AtBBBAgIDmGkAAAQQCFSCgA20YqoUAAggQ0FwDCCCAQKACBHSgDUO1EEAAAQKaawABBBAIVICADrRhqBYCCCBAQHMNIIAAAoEKENCBNgzVQgABBAhorgEEEEAgUAECOtCGoVoIIIAAAc01gAACCAQqQEAH2jBUCwEEECCguQYQQACBQAUI6EAbhmohgAACBDTXAAIIIBCoAAEdaMNQLQQQQICA5hpAAAEEAhUgoANtGKpVN4EjR4500J4NGjTYULcS2AuBcAQI6HDagpqUKbBs2bILf/e73w149dVXr9CuBw8ejA4cOHCkTZs2jXbt2rX/qquuevmss856s1evXq+UWTSbIxCEAAEdRDNQiXIEpk+f/oiFcu8NGzacuH///jYtWrSImjVrFlVXV0dbtmyJv2/UqFG0du3aqGnTptsssP88YMCAhSNHjvyR9ayPlHMstkUgSwECOkt9jl2WwG9+85tvT548+cnPPvus2oI3atWqVVRVVRU1adLE9Z6jhg0bxj/v3bs3UnBbjzqyII8aN258sH379r+fMGHC3T179lxU1oHZGIGMBAjojOA5bHkCFswznn766ZEK3xNOOCGynnPUvHnz6PDhw3E429hz/LOC+dChQ/H3+/bt+8Lv169frx715muvvXb26NGj7ymvBmyNQOUFCOjKm3PEMgWmTZs28Zlnnvlx27Zt4z137twZdezYMdqxY0ccwOop25izeslx71nfqydtwxnH/inQ1evW5/PPP99+6623Pjhs2LC7y6wKmyNQUQECuqLcHKxcgfvuu2/8U0899eMuXbo0U49YwatA3rZtWxy4Cmj9UzDv2bMnHvLQ7xXI+l5/0zCHG+5QaKsnbb3uHbfcckuNjUtPKLdObI9ApQQI6EpJc5yyBZYuXfq1u+66a7mNNXdwwxkavlBI66PvFcLH+yigXU9awyH66AaihkK2b9++e+rUqYMvvvjihWVXjh0QqIAAAV0BZA5RN4Err7zyXbvB93cKZ/WQFbAulBW6+llfS/loO9fbVsBr3FpDJe3atftg0aJFXy2lDLZBoNICpV3dla4Vxyu8wIwZMybPnTv3To01q8frhitcKLtgVuge76P9FOq1t3e9bg2DbN26NRoyZMi0cePGjS08OgDBCRDQwTUJFZLAJZdc8oGNFX+5Q4cOx3q+tXvBbtgiKaBdb1nbK5jdMIf7XuFtNxc/XrJkyanIIxCaAAEdWotQn2jFihW9hw4d+mL37t1bKlD1T0Hser5uqML1qpN60BrO0LYKawVy7bLUO1+3bl1kY9FXXnTRRQvgRyAkAQI6pNagLrHApEmTJr/00kt3atxZ48+ul1xqr7k2oxurVkDrewW0PrV743ri0GZ0zBg1atRomgCBkAQI6JBag7rEAn369PmjheaXTjvttGj37t1fGD924aqvbobG8dhqB7S2q32TUd9rSp4CunPnzn945ZVXzqIJEAhJgIAOqTWoSyzQr1+/Dzdv3nx6y5Ytj90g1O/dUIebZpc0/ly7p+yCWmW4m46aH63P0fI+nT9//t+3bt16I82AQCgCBHQoLUE9jgn07t37Y1vwqId7OjBtGo1R24MsaxYuXPi3LFOatjbllyNAQJejxbapC1jPuY0tD/qx9WTb2ip08XoaaX7Us7Zjaj70pzaTower3aWpTdnlChDQ5YqxfWoCNmTRxAJy/2WXXfbx6tWre3Tr1i1+ZDvNj4Y71FO3m4ifL1++vCsBnaY2ZZcrQECXK8b2qQlYQDe0gDxkY9D/Y+s6n6H1MzSTI82Phjd0o9CC+s8LFiw4hYBOU5uyyxUgoMsVY/vUBWxO8oPPPffccK33nPZHNw21Lkffvn0fmjhx4vC0j0f5CJQjQECXo8W2FRF4/fXXv2PrNT9pTxE2LXWtjfpUzIZTDs+ZM2fQ+eef/1x9ymFfBHwLENC+RSmv3gI21NHAhjk+tpt33e3mXb3LO14BukFo632ss/Wmv2499vWpHozCEShTgIAuE4zNKyNgi/TPnjdv3ggtlpTmR2tD22JJD9tiScMYf05TmrLrIkBA10WNfVIXUC+6f//+f7IAPVW9aA116IESjRnXXgNav9cDJ3qbSu2FkNzv3PrRbjvN2nCL+dt60Oo9f2jzn3va39elflIcAIEyBQjoMsHYvHICr7322nfuvPPOf7UQbaFw1mPfmnGh8NVThAplBbBCV7+rvaSo/qYZGm4VOxfQtd/IYsMbW++///5b7NHy5yt3VhwJgdIFCOjSrdgyAwGb0THrscceG9G1a9cGCmM37U6Bq4dYXACrarXftKKf1aPW9lrzWQ+9uHWhtZ/1ng/ceOONj4wYMeJ2hjYyaFgOWZIAAV0SExtlJaChjtmzZ8/6+c9/PsIWNIp7yvYYeDw1TuHretauN+2C2r2HUNtpTQ/1vvXRTUHbZ9/gwYMftZkihHNWDctxSxIgoEtiYqOsBWpqamZaT3qovRi2sfWm43FohbBbRtS9xVv11PCHW/dZP7txZ4052++3Wjg/MX78+DH0nLNuVY6fJEBAJwnx92AEVq5cefXkyZNnrlmzpptu9J166qlxz1hrRutxbTf8ob9VV1fHb/lWOKvXrGENewHAqjFjxtxha328EMxJUREEjiNAQHN55EZAwx2q7KxZsx6wx7Kvthke3e1x8CqFs4Y92rZtG5+Lxpw1tKGQtrA+eNJJJ621JwWfu/nmmycx1zk3zU1FTYCA5jLIrcAbb7xx+TvvvNNz8eLF/a333MxmbTTSNW3DHofsBuE+m52x+Nxzz11hTwi+xTKiuW3mQlecgC508/91nbz1sDvYGX1hwX3Gmf+62rhoZ0NAF63FOV8EEMiNAAGdm6aiogggUDQBArpoLc75IoBAbgQI6Nw0FRVFAIGiCRDQRWtxzhcBBHIjQEDnpqmoKAIIFE2AgC5ai3O+CCCQGwECOjdNRUURQKBoAgR00Vqc80UAgdwIENC5aSoqigACRRMgoIvW4pwvAgjkRoCAzk1TUVEEECiaAAFdtBbnfBFAIDcCBHRumoqKIoBA0QQI6KK1OOeLAAK5ESCgc9NUVBQBBIomQEAXrcU5XwQQyI0AAZ2bpqKiCCBQNAECumgtzvkigEBuBAjo3DQVFUUAgaIJENBFa3HOFwEEciNAQOemqagoAggUTYCALlqLc74IIJAbAQI6N01FRRFAoGgCBHTRWpzzRQCB3AgQ0LlpKiqKAAJFEyCgi9binC8CCORGgIDOTVNRUQQQKJoAAV20Fud8EUAgNwIEdG6aiooigEDRBAjoorU454sAArkRIKBz01RUFAEEiiZAQBetxTlfBBDIjQABnZumoqIIIFA0AQK6aC3O+SKAQG4ECOjcNBUVRQCBogkQ0EVrcc4XAQRyI0BA56apqCgCCBRNgIAuWotzvgggkBsBAjo3TUVFEUCgaAIEdNFanPNFAIHcCBDQuWkqKooAAkUTIKCL1uKcLwII5EaAgM5NU1HRvyRw5MiRY9fwrl27OlVXV6+rvV2DBg2OIIdAXgUI6Ly2XIHr7UL5t7/97dUrVqw42/71st+12LdvX1WLFi2qDhw4oOt69ze/+c3l55xzztsXXnjhfHER1gW+aHJ66gR0ThuuiNV2wTxz5sxJS5YsuWrt2rUdmzRpUr13797GnTt3jrZt2xZZDzqy30Vr1qzR90f279+/p02bNuuvvvrqBcOHD7/XQvoLPewiOnLO+REgoPPTVoWuqcL5zTffHHjvvff+aP369V+yUG7Wo0ePyHrNUaNGjaJDhw5F1nOOrAcdfz3aY46/bt68Of5dhw4dPpg4ceKPLrjggufpTRf6csrNyRPQuWmq4lZU4Txjxozpjz/++HWNGzc+0T4arogOHz4cfz3eR8HcrFmzeBMLdu2z+dprr31q7NixIwnp4l5TeTlzAjovLVXQeiqcp0yZMv2FF164xXrA1QcPHoyDuXYP+Xg06l1re+1nZUVbtmyJmjZteuB73/venH+2DyFd0AsrJ6dNQOekoYpYTYXzrFmzpj755JO3Kpx3794djy+r16whDRe+x7NxPWwbi1Ywx/ts2rRJob33mmuueWT8+PGjimjLOedDgIDORzsVspa//vWvB40ePbrmhBNOOLGqqupYIGvYQkGtXrF+f7yPgtyF+p49e+LhDoX0J598EjVs2HDr9OnTb7r44otfLCQwJx28AAEdfBMVs4LqPV966aW/t3HjszRDY+vWrVG7du0i9YTduLK+TwpoC+HIbijGvWeFtRsekarNm45sPPujp59++txWrVqtL6Y0Zx2yAAEdcusUtG4K56lTp97/zDPPDLfgbKYer6bPaWjCbhLGvWD1htUzrh24f4lLAe6CXOVofw2VqAx93bhxY3TbbbfNGjZs2CjGowt6wQV82gR0wI1T1KopoC+55JL3P//88y937Ngxat68eTxVzsI6vtGn0FVAK2yTPuo1a399dTcKtY961OqJK/RtnvTHy5YtO42ATtLk75UWIKArLc7xEgVWrlz5XXuoZE6XLl3a6Cbfjh074nB2c54VtOoBu/nOSQUqnBXsmiOt4Q4Ne6jnraBXWTbUcWDSpElD7MnD55LK4u8IVFKAgK6kNsdKFFDvedq0aTPnzZs3/KSTTqpKGsJILLCEDTT1btCgQQ/dcccdw0vYnE0QqJgAAV0xag5UisDR4Y0/2KPaX+natWs8NJHmxz3sYsf5YPny5V9N81iUjUC5AgR0uWJsn6qAAtqGGj6yG3unaJy4lHHm+lRIQyh6wrBbt24fLVy48PT6lMW+CPgWIKB9i1JevQQsoDv179//P2xs+GSFc9pDHO6hF/v60auvvnoGNwrr1Xzs7FmAgPYMSnH1E1APum/fvp/YuPDJbdu2TZznXL+jxUuQxjNE2rdv/8mzzz77Dy1bttxASNdXlf19CRDQviQpx4vA0YD+1GZpdNVUuqQHUep7UM2N1kMwFswfLV26lB50fUHZ36sAAe2Vk8LqK6CA7tev34erV68+7eSTT059iENDKDt37oxat279BxviOKu+9Wd/BHwKENA+NSmr3gIK6AceeOBn8+fP/yd7gCRxOdH6HlDzo/U04XXXXVczZswYVrerLyj7exUgoL1yUpgPAXtQZci4cePm2oMlzTVGrBDVgymacueeCNRDJxoC0RBF0kc3G/WAirbVgymaHeIeflHZNqXvQE1NzXU9e/Z8Nqks/o5AJQUI6Epqc6ySBCw0q/r06bPKbhR279Sp07EbeXpkW//c04Bai0PrbCR99MSh9nNznhXOWnhJAa8pdvZAzMeLFy/mUe8kSP5ecQECuuLkHDBJQMMcDz744CNz5sz5gd6eop6vAlaPeqsHrMe+NSxhN/bi3vXxPm6xJBfsCmuVqZXsVJbeYzhkyJAae8PKiKR68XcEKi1AQFdanOOVJGA37joPHDjwLevhnqLlRtVT1hoa7o0qGqZwvztegeo1q6etXreGOvS9ptVpCp+9dDayxZj+uGjRoq8yta6kZmGjCgsQ0BUG53ClCagXbY9eD7b1Mebagv025Px/Y84ak3aL96s3nPROQgW0euAKcwW0WyBJv7eV7HbYsqY39+rV6zkCurR2YavKChDQlfXmaGUIKKRnz55dYwsn3WI93sYujBXWGppQbzjp4wJZvW8Nhyiotf+GDRv0XsJH7Y0tIwjnJEX+npUAAZ2VPMctSUAhbUuB1rz44ou32NhzYw1taKF9hWypCym5cWrX87ae88Errrji0QkTJgwnnEtqBjbKSICAzgiew5Yu4JYgtVdT3WDDGq20iL+GK0qZZucW+NdXLc5vob79+uuv/zfmPJfuz5bZCRDQ2dlz5DIEFNIrVqy45ic/+clkG544XQGtqXK1lguN50prpod6yhoO0d/U49YLYjUcYsH+ob3F+4e2Wt4L9JzLwGfTzAQI6MzoOXBdBGwOc8fHH398wksvvXS5jUN3tjKqFb7qTdt85ni2htbWcHOkrce8z2aBrLMX0L4wcuTIMTom4VwXefbJQoCAzkKdY9ZLQL1pFfD6669f8d577527YMGCPjbPuanN1mh49LVYhyyw9w8YMOC1s88++62LLrroJYK5XuTsnJEAAZ0RPIf1K6DQVs94+/bt7W3ho41+S6c0BLIRIKCzceeoCCCAQKIAAZ1IxAYIIIBANgIEdDbuHBUBBBBIFCCgE4nYAAEEEMhGgIDOxp2jIoAAAokCBHQiERsggAAC2QgQ0Nm4c1QEEEAgUYCATiRiAwQQQCAbAQI6G3eOigACCCQKENCJRGyAAAIIZCNAQGfjzlERQACBRAECOpGIDRBAAIFsBAjobNw5KgIIIJAoQEAnErEBAgggkI0AAZ2NO0dFAAEEEgUI6EQiNkAAAQSyESCgs3HnqAgggECiAAGdSMQGCCCAQDYCBHQ27hwVAQQQSBQgoBOJ2AABBBDIRoCAzsadoyKAAAKJAgR0IhEbIIAAAtkIENDZuHNUBBBAIFGAgE4kYgMEEEAgGwECOht3jooAAggkChDQiURsgAACCGQjQEBn485REUAAgUQBAjqRiA0QQACBbAQI6GzcOSoCCCCQKEBAJxKxAQIIIJCNAAGdjTtHRQABBBIFCOhEIjZAAAEEshEgoLNx56gIIIBAogABnUjEBggggEA2AgR0Nu4cFQEEEEgUIKATidgAAQQQyEaAgM7GnaMigAACiQIEdCIRGyCAAALZCBDQ2bhzVAQQQCBRgIBOJGIDBBBAIBsBAjobd46KAAIIJAoQ0IlEbIAAAghkI0BAZ+POURFAAIFEAQI6kYgNQhY4cuTI/7+GO1p916vODRo0OBJy3akbAkkCBHSSEH8PUmDHjh0d33vvvfPefvvtnkuXLu3bqFGjFocOHTrcsGHDKgvmQ4cPH97Zu3fvZeecc86/n3/++S8S1kE2I5VKECCguURyJaBgfvjhh0e88cYbV61Zs6ZTVVVVBwvjqF27dtGePXsi+zlq0aJFtHHjxsh61zq3Lfa3Ty+77LIFo0ePnkhQ56q5C19ZArrwl0A+ADSUsXz58m//9Kc//Zddu3Z9affu3U26desWV956zpFCWuGsf/r+6BBH/HX9+vUa7og6dOjw4R133PFD61m/QFDno92LXksCuuhXQA7OX+E8c+bMex977LEbmjdv3rlly5aRDWXEPWSFcePGjeOQtmGOY4GtoN63b1+8XbNmzaKtW7dGe/fuVYBvGjx4cI31pu8hpHPQ+AWvIgFd8Asg9NNXOM+YMWO6wrlHjx5tFMo7d+6Mg9fCOjpw4EAczAro/fv3x6fTtGnTuCd98ODBOMT1s7ZzPesNGzZsu/XWWx8dOnToeEI69Cug2PUjoIvd/kGfvcJ5ypQp0xcsWHCj9ZpbK2TVW1Y4K2zVI1bv2IW0/qaPflY4N2nSJP5Z3yvA9bOGOjQ+bcMkO2+77bYHb7/99rsI6aAvg0JXjoAudPOHe/IK52XLlg266667ZlZXV3dUj1gBq6DVRz+78HWBXXvsWb/Ttgpt9ay1r4Y8tJ963Pp59erVWyZPnvyDPn36PB+uBDUrsgABXeTWD/jcrYfbZeDAgYvtBt/X27RpEweqesLuo+CtHbj6XkMZ+rietQJaQxz654ZB3E1E/U3j0p06dfpk0aJFp9KLDvhiKHDVCOgCN36op67e83333Tfr2WefvfnEE09snmY9N23aFA0aNGjmuHHjRhPSaUpTdl0ECOi6qLFPqgIK6Msvv/y/7Gbe36j3nOZHwyI2HPLZkiVLuhPQaUpTdl0ECOi6qLFPqgLvvvvu4O9///sPWe/5BHejL60Daqz6s88+2z937tzrvvGNb8xP6ziUi0BdBAjouqixT2oC6j1Pnz591rx584bagygN3dS5tA6oMWk9yGLj3Q9NmDBheFrHoVwE6iJAQNdFjX1SE1BA9+vX7z/tScGv6UagmzqX1gF141E3C+0pw/dtTY8z0zoO5SJQFwECui5q7JOagALapr19aOPPp3Xs2DGet5z2R7M/bNbIn+xR8jPSPhblI1COQPpXfzm1YdvCCyigBwwY8CfrQZ+qRY/00EmaH/Wgjz6VuOrll18+1/5DWJfm8SgbgXIECOhytNg2dQEL6E59+/Z92w7UXfOX3QMpaR1Y86NtVbyoffv2q371q1+dzkyOtKQpty4CBHRd1NgnNYGjY9Afbd68+ZTWrVvHvVsX0poSp9DW7/Q5upzoceuiIRJtp6/aX/8UyipTvXP9Xv9srHvVL3/5SwI6tZal4LoIENB1UWOfVAV69er1/vbt27/SuXPn+GlBNw7tArn2z0lj1C6YXcjrCUJ9r9/rexf2dkIf2FzoM+lBp9q0FF6mAAFdJhibpy8wZ86c2VOnTh3WpUuXKs3iqB3Mrkdcai1qB7QLZe3rylFY25oc0U033fSQLUE6goAuVZbtKiFAQFdCmWOUJWCzKb579913z7U3obRyi/HXHo9262soXJOGOdyyo/rqFlD6/2XZ6nb7Z8+ePcRejcWiSWW1FBunLUBApy1M+WULaBzaXlH1/qpVq75sa0AfW/DI9XrdmHIpvWmFsmZqaNvab1tx32stDhtK+cjGn8+xbTaUXVl2QCBFAQI6RVyKrpvA0XWgZz7//PO3tWrVqrG7qefeoOJu7Kn0UnrQ6oXXHrd249F6SnHt2rUa3phmiyWNrVtt2QuB9AQI6PRsKbkeAgrpSy+99Pfbtm07S29O0ZocmoFR+yaffk66SeiqULv37XrVejOLTa97/xe/+MUFNmNkYz2qy64IpCJAQKfCSqE+BOzN3QOtZ/uwLdjfTiHtAtrNvHBhfbxj1R4OcQv6q0euNaPtDeGb7HVa/9izZ89FPupLGQj4FiCgfYtSnjcB9aJnzZr1gC2cpHWh4/cRuuENjStrhod+1lCFvnevvlIA25OI8QL++t6CONJTidpOP+ufzdzYdsMNN/xs1KhRE7xVmIIQ8CxAQHsGpTi/Agppm2ExTSHdtm3bVu4N3upFK3AVyvZ7raVx7P2EmjvtetzaRmtK6+/aRzcFLdy33njjjQ+PHDmScPbbXJTmWYCA9gxKcf4FFNI1NTVTnnjiiRts3LhD165d4x6zG+JwTwe6t3jrRbIaX1avWb9zL5DVsqK27frrr7/+kbFjx070X1NKRMCvAAHt15PSUhRYuXLlFfaW7ynWCz7DhjAa2RKhx14G62ZquHcXajjEvWRWYW3/Dtp0uv++5557fnjeeectSbGaFI2ANwEC2hslBVVC4OiC/ve+8sorV9g6zl1siKO1DV1UaWlSBbF7e7eGNGysWa8A32VT9VZdc801C+wtLbOYrVGJVuIYvgQIaF+SlFNxAetRX2qvxzp/8eLFfezgzexm4GGb8aEhjUN2g3DPt771rddshsZbZ5555jsEc8WbhwN6ECCgPSBSRPYCtrhSe+spa1YH85mzbw5q4EmAgPYESTEIIICAbwEC2rco5SGAAAKeBAhoT5AUgwACCPgWIKB9i1IeAggg4EmAgPYESTEIIICAbwEC2rco5SGAAAKeBAhoT5AUgwACCPgWIKB9i1IeAggg4EmAgPYESTEIIICAbwEC2rco5SGAAAKeBAhoT5AUgwACCPgWIKB9i1IeAggg4EmAgPYESTEIIICAbwEC2rco5SGAAAKeBAhoT5AUgwACCPgWIKB9i1IeAggg4EmAgPYESTEIIICAbwEC2rco5SGAAAKeBAhoT5AUgwACCPgWIKB9i1IeAggg4EmAgPYESTEIIICAbwEC2rco5SGAAAKeBAhoT5AUgwACCPgWIKB9i1IeAggg4EmAgPYESTEIIICAbwEC2rco5SGAAPbqLT8AAALOSURBVAKeBAhoT5AUgwACCPgWIKB9i1IeAggg4EmAgPYESTEIIICAbwEC2rco5SGAAAKeBAhoT5AUgwACCPgWIKB9i1IeAggg4EmAgPYESTEIIICAbwEC2rco5SGAAAKeBAhoT5AUgwACCPgWIKB9i1IeAggg4EmAgPYESTEIIICAbwEC2rco5SGAAAKeBAhoT5AUgwACCPgWIKB9i1IeAggg4EmAgPYESTEIIICAbwEC2rco5SGAAAKeBAhoT5AUgwACCPgWIKB9i1IeAggg4EmAgPYESTEIIICAbwEC2rco5SGAAAKeBAhoT5AUgwACCPgWIKB9i1IeAggg4EmAgPYESTEIIICAbwEC2rco5SGAAAKeBAhoT5AUgwACCPgWIKB9i1IeAggg4EmAgPYESTEIIICAbwEC2rco5SGAAAKeBAhoT5AUgwACCPgWIKB9i1IeAggg4EmAgPYESTEIIICAbwEC2rco5SGAAAKeBAhoT5AUgwACCPgWIKB9i1IeAggg4EmAgPYESTEIIICAbwEC2rco5SGAAAKeBAhoT5AUgwACCPgWIKB9i1IeAggg4EmAgPYESTEIIICAbwEC2rco5SGAAAKeBAhoT5AUgwACCPgWIKB9i1IeAggg4EmAgPYESTEIIICAbwEC2rco5SGAAAKeBAhoT5AUgwACCPgWIKB9i1IeAggg4EmAgPYESTEIIICAbwEC2rco5SGAAAKeBAhoT5AUgwACCPgWIKB9i1IeAggg4EmAgPYESTEIIICAbwEC2rco5SGAAAKeBAhoT5AUgwACCPgWIKB9i1IeAggg4EmAgPYESTEIIICAbwEC2rco5SGAAAKeBAhoT5AUgwACCPgWIKB9i1IeAggg4EmAgPYESTEIIICAbwEC2rco5SGAAAKeBAhoT5AUgwACCPgWIKB9i1IeAggg4EmAgPYESTEIIICAb4H/BbiZE/+OutmcAAAAAElFTkSuQmCC;" vertex="1" parent="1">
          <mxGeometry x="180" y="410" width="34" height="34" as="geometry" />
        </mxCell>
        <mxCell id="0yVlcpvxOaxAhsToYy31-139" value="" style="shape=image;verticalLabelPosition=bottom;labelBackgroundColor=default;verticalAlign=top;aspect=fixed;imageAspect=0;image=data:image/png,iVBORw0KGgoAAAANSUhEUgAAAWgAAAFoCAYAAAB65WHVAAAgAElEQVR4Xu3dCdAWxZ3H8eHl5uUSuQQErxy6qdTulrXxwCOES0WNGgJB3XjFlWPlEgyaoky2IqBy+xpFoi6rKRVPiBxG0ASMW26pld1sRbNGNApy3/e5/98sTb1upZjned+eZ3oy36eKeq+Znp5PT/3o6unpaRDxQQABBBAIUqBBkLWiUggggAACEQHNRYAAAggEKkBAB9owVAsBBBAgoLkGEEAAgUAFCOhAG4ZqIYAAAgQ01wACCCAQqAABHWjDUC0EEECAgOYaQAABBAIVIKADbRiqhQACCBDQXAMIIIBAoAIEdKANQ7UQQAABApprAAEEEAhUgIAOtGGoFgIIIEBAcw0ggAACgQoQ0IE2DNVCAAEECGiuAQQQQCBQAQI60IahWggggAABzTWAAAIIBCpAQAfaMFQLAQQQIKC5BhBAAIFABQjoQBuGaiGAAAIENNcAAgggEKgAAR1ow1AtBBBAgIDmGkAAAQQCFSCgA20YqoUAAggQ0FwDCCCAQKACBHSgDUO1EEAAAQKaawABBBAIVICADrRhqBYCCCBAQHMNIIAAAoEKENCBNgzVQgABBAhorgEEEEAgUAECOtCGoVoIIIAAAc01gAACCAQqQEAH2jBUCwEEECCguQYQQACBQAUI6EAbhmohgAACBDTXAAIIIBCoAAEdaMNQLQQQQICA5hpAAAEEAhUgoANtGKqFAAIIENBcAwgggECgAgR0oA1DtRBAAAECmmsAAQQQCFSAgA60YagWAgggQEBzDSCAAAKBChDQgTYM1UIAAQQIaK4BBBBAIFABAjrQhqFaCCCAAAHNNYAAAggEKkBAB9owVAsBBBAgoLkGEEAAgUAFCOhAG4ZqIYAAAgQ01wACCCAQqAABHWjDUC0EEECAgOYaQAABBAIVIKADbRiqhQACCBDQXAMIIIBAoAIEdKANQ7UQQAABApprAAEEEAhUgIAOtGGoFgIIIEBAcw0ggAACgQoQ0IE2DNVCAAEECGiuAQQQQCBQAQI60IahWggggAABzTWAAAIIBCpAQAfaMFQLAQQQIKC5BhBAAIFABQjoQBuGaiGAAAIENNcAAgggEKgAAR1ow1AtBBBAgIDmGkAAAQQCFSCgA20YqoUAAggQ0FwDCCCAQKACBHSgDUO1EEAAAQKaawABBBAIVICADrRhqBYCCCBAQHMNIIAAAoEKENCBNgzVQgABBAhorgEEEEAgUAECOtCGoVoIIIAAAc01gAACCAQqQEAH2jBUCwEEECCguQYQQACBQAUI6EAbhmohgAACBDTXAAIIIBCoAAEdaMNQLQQQQICA5hpAAAEEAhUgoANtGKpVN4EjR4500J4NGjTYULcS2AuBcAQI6HDagpqUKbBs2bILf/e73w149dVXr9CuBw8ejA4cOHCkTZs2jXbt2rX/qquuevmss856s1evXq+UWTSbIxCEAAEdRDNQiXIEpk+f/oiFcu8NGzacuH///jYtWrSImjVrFlVXV0dbtmyJv2/UqFG0du3aqGnTptsssP88YMCAhSNHjvyR9ayPlHMstkUgSwECOkt9jl2WwG9+85tvT548+cnPPvus2oI3atWqVVRVVRU1adLE9Z6jhg0bxj/v3bs3UnBbjzqyII8aN258sH379r+fMGHC3T179lxU1oHZGIGMBAjojOA5bHkCFswznn766ZEK3xNOOCGynnPUvHnz6PDhw3E429hz/LOC+dChQ/H3+/bt+8Lv169frx715muvvXb26NGj7ymvBmyNQOUFCOjKm3PEMgWmTZs28Zlnnvlx27Zt4z137twZdezYMdqxY0ccwOop25izeslx71nfqydtwxnH/inQ1evW5/PPP99+6623Pjhs2LC7y6wKmyNQUQECuqLcHKxcgfvuu2/8U0899eMuXbo0U49YwatA3rZtWxy4Cmj9UzDv2bMnHvLQ7xXI+l5/0zCHG+5QaKsnbb3uHbfcckuNjUtPKLdObI9ApQQI6EpJc5yyBZYuXfq1u+66a7mNNXdwwxkavlBI66PvFcLH+yigXU9awyH66AaihkK2b9++e+rUqYMvvvjihWVXjh0QqIAAAV0BZA5RN4Err7zyXbvB93cKZ/WQFbAulBW6+llfS/loO9fbVsBr3FpDJe3atftg0aJFXy2lDLZBoNICpV3dla4Vxyu8wIwZMybPnTv3To01q8frhitcKLtgVuge76P9FOq1t3e9bg2DbN26NRoyZMi0cePGjS08OgDBCRDQwTUJFZLAJZdc8oGNFX+5Q4cOx3q+tXvBbtgiKaBdb1nbK5jdMIf7XuFtNxc/XrJkyanIIxCaAAEdWotQn2jFihW9hw4d+mL37t1bKlD1T0Hser5uqML1qpN60BrO0LYKawVy7bLUO1+3bl1kY9FXXnTRRQvgRyAkAQI6pNagLrHApEmTJr/00kt3atxZ48+ul1xqr7k2oxurVkDrewW0PrV743ri0GZ0zBg1atRomgCBkAQI6JBag7rEAn369PmjheaXTjvttGj37t1fGD924aqvbobG8dhqB7S2q32TUd9rSp4CunPnzn945ZVXzqIJEAhJgIAOqTWoSyzQr1+/Dzdv3nx6y5Ytj90g1O/dUIebZpc0/ly7p+yCWmW4m46aH63P0fI+nT9//t+3bt16I82AQCgCBHQoLUE9jgn07t37Y1vwqId7OjBtGo1R24MsaxYuXPi3LFOatjbllyNAQJejxbapC1jPuY0tD/qx9WTb2ip08XoaaX7Us7Zjaj70pzaTower3aWpTdnlChDQ5YqxfWoCNmTRxAJy/2WXXfbx6tWre3Tr1i1+ZDvNj4Y71FO3m4ifL1++vCsBnaY2ZZcrQECXK8b2qQlYQDe0gDxkY9D/Y+s6n6H1MzSTI82Phjd0o9CC+s8LFiw4hYBOU5uyyxUgoMsVY/vUBWxO8oPPPffccK33nPZHNw21Lkffvn0fmjhx4vC0j0f5CJQjQECXo8W2FRF4/fXXv2PrNT9pTxE2LXWtjfpUzIZTDs+ZM2fQ+eef/1x9ymFfBHwLENC+RSmv3gI21NHAhjk+tpt33e3mXb3LO14BukFo632ss/Wmv2499vWpHozCEShTgIAuE4zNKyNgi/TPnjdv3ggtlpTmR2tD22JJD9tiScMYf05TmrLrIkBA10WNfVIXUC+6f//+f7IAPVW9aA116IESjRnXXgNav9cDJ3qbSu2FkNzv3PrRbjvN2nCL+dt60Oo9f2jzn3va39elflIcAIEyBQjoMsHYvHICr7322nfuvPPOf7UQbaFw1mPfmnGh8NVThAplBbBCV7+rvaSo/qYZGm4VOxfQtd/IYsMbW++///5b7NHy5yt3VhwJgdIFCOjSrdgyAwGb0THrscceG9G1a9cGCmM37U6Bq4dYXACrarXftKKf1aPW9lrzWQ+9uHWhtZ/1ng/ceOONj4wYMeJ2hjYyaFgOWZIAAV0SExtlJaChjtmzZ8/6+c9/PsIWNIp7yvYYeDw1TuHretauN+2C2r2HUNtpTQ/1vvXRTUHbZ9/gwYMftZkihHNWDctxSxIgoEtiYqOsBWpqamZaT3qovRi2sfWm43FohbBbRtS9xVv11PCHW/dZP7txZ4052++3Wjg/MX78+DH0nLNuVY6fJEBAJwnx92AEVq5cefXkyZNnrlmzpptu9J166qlxz1hrRutxbTf8ob9VV1fHb/lWOKvXrGENewHAqjFjxtxha328EMxJUREEjiNAQHN55EZAwx2q7KxZsx6wx7Kvthke3e1x8CqFs4Y92rZtG5+Lxpw1tKGQtrA+eNJJJ621JwWfu/nmmycx1zk3zU1FTYCA5jLIrcAbb7xx+TvvvNNz8eLF/a333MxmbTTSNW3DHofsBuE+m52x+Nxzz11hTwi+xTKiuW3mQlecgC508/91nbz1sDvYGX1hwX3Gmf+62rhoZ0NAF63FOV8EEMiNAAGdm6aiogggUDQBArpoLc75IoBAbgQI6Nw0FRVFAIGiCRDQRWtxzhcBBHIjQEDnpqmoKAIIFE2AgC5ai3O+CCCQGwECOjdNRUURQKBoAgR00Vqc80UAgdwIENC5aSoqigACRRMgoIvW4pwvAgjkRoCAzk1TUVEEECiaAAFdtBbnfBFAIDcCBHRumoqKIoBA0QQI6KK1OOeLAAK5ESCgc9NUVBQBBIomQEAXrcU5XwQQyI0AAZ2bpqKiCCBQNAECumgtzvkigEBuBAjo3DQVFUUAgaIJENBFa3HOFwEEciNAQOemqagoAggUTYCALlqLc74IIJAbAQI6N01FRRFAoGgCBHTRWpzzRQCB3AgQ0LlpKiqKAAJFEyCgi9binC8CCORGgIDOTVNRUQQQKJoAAV20Fud8EUAgNwIEdG6aiooigEDRBAjoorU454sAArkRIKBz01RUFAEEiiZAQBetxTlfBBDIjQABnZumoqIIIFA0AQK6aC3O+SKAQG4ECOjcNBUVRQCBogkQ0EVrcc4XAQRyI0BA56apqCgCCBRNgIAuWotzvgggkBsBAjo3TUVFEUCgaAIEdNFanPNFAIHcCBDQuWkqKooAAkUTIKCL1uKcLwII5EaAgM5NU1HRvyRw5MiRY9fwrl27OlVXV6+rvV2DBg2OIIdAXgUI6Ly2XIHr7UL5t7/97dUrVqw42/71st+12LdvX1WLFi2qDhw4oOt69ze/+c3l55xzztsXXnjhfHER1gW+aHJ66gR0ThuuiNV2wTxz5sxJS5YsuWrt2rUdmzRpUr13797GnTt3jrZt2xZZDzqy30Vr1qzR90f279+/p02bNuuvvvrqBcOHD7/XQvoLPewiOnLO+REgoPPTVoWuqcL5zTffHHjvvff+aP369V+yUG7Wo0ePyHrNUaNGjaJDhw5F1nOOrAcdfz3aY46/bt68Of5dhw4dPpg4ceKPLrjggufpTRf6csrNyRPQuWmq4lZU4Txjxozpjz/++HWNGzc+0T4arogOHz4cfz3eR8HcrFmzeBMLdu2z+dprr31q7NixIwnp4l5TeTlzAjovLVXQeiqcp0yZMv2FF164xXrA1QcPHoyDuXYP+Xg06l1re+1nZUVbtmyJmjZteuB73/venH+2DyFd0AsrJ6dNQOekoYpYTYXzrFmzpj755JO3Kpx3794djy+r16whDRe+x7NxPWwbi1Ywx/ts2rRJob33mmuueWT8+PGjimjLOedDgIDORzsVspa//vWvB40ePbrmhBNOOLGqqupYIGvYQkGtXrF+f7yPgtyF+p49e+LhDoX0J598EjVs2HDr9OnTb7r44otfLCQwJx28AAEdfBMVs4LqPV966aW/t3HjszRDY+vWrVG7du0i9YTduLK+TwpoC+HIbijGvWeFtRsekarNm45sPPujp59++txWrVqtL6Y0Zx2yAAEdcusUtG4K56lTp97/zDPPDLfgbKYer6bPaWjCbhLGvWD1htUzrh24f4lLAe6CXOVofw2VqAx93bhxY3TbbbfNGjZs2CjGowt6wQV82gR0wI1T1KopoC+55JL3P//88y937Ngxat68eTxVzsI6vtGn0FVAK2yTPuo1a399dTcKtY961OqJK/RtnvTHy5YtO42ATtLk75UWIKArLc7xEgVWrlz5XXuoZE6XLl3a6Cbfjh074nB2c54VtOoBu/nOSQUqnBXsmiOt4Q4Ne6jnraBXWTbUcWDSpElD7MnD55LK4u8IVFKAgK6kNsdKFFDvedq0aTPnzZs3/KSTTqpKGsJILLCEDTT1btCgQQ/dcccdw0vYnE0QqJgAAV0xag5UisDR4Y0/2KPaX+natWs8NJHmxz3sYsf5YPny5V9N81iUjUC5AgR0uWJsn6qAAtqGGj6yG3unaJy4lHHm+lRIQyh6wrBbt24fLVy48PT6lMW+CPgWIKB9i1JevQQsoDv179//P2xs+GSFc9pDHO6hF/v60auvvnoGNwrr1Xzs7FmAgPYMSnH1E1APum/fvp/YuPDJbdu2TZznXL+jxUuQxjNE2rdv/8mzzz77Dy1bttxASNdXlf19CRDQviQpx4vA0YD+1GZpdNVUuqQHUep7UM2N1kMwFswfLV26lB50fUHZ36sAAe2Vk8LqK6CA7tev34erV68+7eSTT059iENDKDt37oxat279BxviOKu+9Wd/BHwKENA+NSmr3gIK6AceeOBn8+fP/yd7gCRxOdH6HlDzo/U04XXXXVczZswYVrerLyj7exUgoL1yUpgPAXtQZci4cePm2oMlzTVGrBDVgymacueeCNRDJxoC0RBF0kc3G/WAirbVgymaHeIeflHZNqXvQE1NzXU9e/Z8Nqks/o5AJQUI6Epqc6ySBCw0q/r06bPKbhR279Sp07EbeXpkW//c04Bai0PrbCR99MSh9nNznhXOWnhJAa8pdvZAzMeLFy/mUe8kSP5ecQECuuLkHDBJQMMcDz744CNz5sz5gd6eop6vAlaPeqsHrMe+NSxhN/bi3vXxPm6xJBfsCmuVqZXsVJbeYzhkyJAae8PKiKR68XcEKi1AQFdanOOVJGA37joPHDjwLevhnqLlRtVT1hoa7o0qGqZwvztegeo1q6etXreGOvS9ptVpCp+9dDayxZj+uGjRoq8yta6kZmGjCgsQ0BUG53ClCagXbY9eD7b1Mebagv025Px/Y84ak3aL96s3nPROQgW0euAKcwW0WyBJv7eV7HbYsqY39+rV6zkCurR2YavKChDQlfXmaGUIKKRnz55dYwsn3WI93sYujBXWGppQbzjp4wJZvW8Nhyiotf+GDRv0XsJH7Y0tIwjnJEX+npUAAZ2VPMctSUAhbUuB1rz44ou32NhzYw1taKF9hWypCym5cWrX87ae88Errrji0QkTJgwnnEtqBjbKSICAzgiew5Yu4JYgtVdT3WDDGq20iL+GK0qZZucW+NdXLc5vob79+uuv/zfmPJfuz5bZCRDQ2dlz5DIEFNIrVqy45ic/+clkG544XQGtqXK1lguN50prpod6yhoO0d/U49YLYjUcYsH+ob3F+4e2Wt4L9JzLwGfTzAQI6MzoOXBdBGwOc8fHH398wksvvXS5jUN3tjKqFb7qTdt85ni2htbWcHOkrce8z2aBrLMX0L4wcuTIMTom4VwXefbJQoCAzkKdY9ZLQL1pFfD6669f8d577527YMGCPjbPuanN1mh49LVYhyyw9w8YMOC1s88++62LLrroJYK5XuTsnJEAAZ0RPIf1K6DQVs94+/bt7W3ho41+S6c0BLIRIKCzceeoCCCAQKIAAZ1IxAYIIIBANgIEdDbuHBUBBBBIFCCgE4nYAAEEEMhGgIDOxp2jIoAAAokCBHQiERsggAAC2QgQ0Nm4c1QEEEAgUYCATiRiAwQQQCAbAQI6G3eOigACCCQKENCJRGyAAAIIZCNAQGfjzlERQACBRAECOpGIDRBAAIFsBAjobNw5KgIIIJAoQEAnErEBAgggkI0AAZ2NO0dFAAEEEgUI6EQiNkAAAQSyESCgs3HnqAgggECiAAGdSMQGCCCAQDYCBHQ27hwVAQQQSBQgoBOJ2AABBBDIRoCAzsadoyKAAAKJAgR0IhEbIIAAAtkIENDZuHNUBBBAIFGAgE4kYgMEEEAgGwECOht3jooAAggkChDQiURsgAACCGQjQEBn485REUAAgUQBAjqRiA0QQACBbAQI6GzcOSoCCCCQKEBAJxKxAQIIIJCNAAGdjTtHRQABBBIFCOhEIjZAAAEEshEgoLNx56gIIIBAogABnUjEBggggEA2AgR0Nu4cFQEEEEgUIKATidgAAQQQyEaAgM7GnaMigAACiQIEdCIRGyCAAALZCBDQ2bhzVAQQQCBRgIBOJGIDBBBAIBsBAjobd46KAAIIJAoQ0IlEbIAAAghkI0BAZ+POURFAAIFEAQI6kYgNQhY4cuTI/7+GO1p916vODRo0OBJy3akbAkkCBHSSEH8PUmDHjh0d33vvvfPefvvtnkuXLu3bqFGjFocOHTrcsGHDKgvmQ4cPH97Zu3fvZeecc86/n3/++S8S1kE2I5VKECCguURyJaBgfvjhh0e88cYbV61Zs6ZTVVVVBwvjqF27dtGePXsi+zlq0aJFtHHjxsh61zq3Lfa3Ty+77LIFo0ePnkhQ56q5C19ZArrwl0A+ADSUsXz58m//9Kc//Zddu3Z9affu3U26desWV956zpFCWuGsf/r+6BBH/HX9+vUa7og6dOjw4R133PFD61m/QFDno92LXksCuuhXQA7OX+E8c+bMex977LEbmjdv3rlly5aRDWXEPWSFcePGjeOQtmGOY4GtoN63b1+8XbNmzaKtW7dGe/fuVYBvGjx4cI31pu8hpHPQ+AWvIgFd8Asg9NNXOM+YMWO6wrlHjx5tFMo7d+6Mg9fCOjpw4EAczAro/fv3x6fTtGnTuCd98ODBOMT1s7ZzPesNGzZsu/XWWx8dOnToeEI69Cug2PUjoIvd/kGfvcJ5ypQp0xcsWHCj9ZpbK2TVW1Y4K2zVI1bv2IW0/qaPflY4N2nSJP5Z3yvA9bOGOjQ+bcMkO2+77bYHb7/99rsI6aAvg0JXjoAudPOHe/IK52XLlg266667ZlZXV3dUj1gBq6DVRz+78HWBXXvsWb/Ttgpt9ay1r4Y8tJ963Pp59erVWyZPnvyDPn36PB+uBDUrsgABXeTWD/jcrYfbZeDAgYvtBt/X27RpEweqesLuo+CtHbj6XkMZ+rietQJaQxz654ZB3E1E/U3j0p06dfpk0aJFp9KLDvhiKHDVCOgCN36op67e83333Tfr2WefvfnEE09snmY9N23aFA0aNGjmuHHjRhPSaUpTdl0ECOi6qLFPqgIK6Msvv/y/7Gbe36j3nOZHwyI2HPLZkiVLuhPQaUpTdl0ECOi6qLFPqgLvvvvu4O9///sPWe/5BHejL60Daqz6s88+2z937tzrvvGNb8xP6ziUi0BdBAjouqixT2oC6j1Pnz591rx584bagygN3dS5tA6oMWk9yGLj3Q9NmDBheFrHoVwE6iJAQNdFjX1SE1BA9+vX7z/tScGv6UagmzqX1gF141E3C+0pw/dtTY8z0zoO5SJQFwECui5q7JOagALapr19aOPPp3Xs2DGet5z2R7M/bNbIn+xR8jPSPhblI1COQPpXfzm1YdvCCyigBwwY8CfrQZ+qRY/00EmaH/Wgjz6VuOrll18+1/5DWJfm8SgbgXIECOhytNg2dQEL6E59+/Z92w7UXfOX3QMpaR1Y86NtVbyoffv2q371q1+dzkyOtKQpty4CBHRd1NgnNYGjY9Afbd68+ZTWrVvHvVsX0poSp9DW7/Q5upzoceuiIRJtp6/aX/8UyipTvXP9Xv9srHvVL3/5SwI6tZal4LoIENB1UWOfVAV69er1/vbt27/SuXPn+GlBNw7tArn2z0lj1C6YXcjrCUJ9r9/rexf2dkIf2FzoM+lBp9q0FF6mAAFdJhibpy8wZ86c2VOnTh3WpUuXKs3iqB3Mrkdcai1qB7QLZe3rylFY25oc0U033fSQLUE6goAuVZbtKiFAQFdCmWOUJWCzKb579913z7U3obRyi/HXHo9262soXJOGOdyyo/rqFlD6/2XZ6nb7Z8+ePcRejcWiSWW1FBunLUBApy1M+WULaBzaXlH1/qpVq75sa0AfW/DI9XrdmHIpvWmFsmZqaNvab1tx32stDhtK+cjGn8+xbTaUXVl2QCBFAQI6RVyKrpvA0XWgZz7//PO3tWrVqrG7qefeoOJu7Kn0UnrQ6oXXHrd249F6SnHt2rUa3phmiyWNrVtt2QuB9AQI6PRsKbkeAgrpSy+99Pfbtm07S29O0ZocmoFR+yaffk66SeiqULv37XrVejOLTa97/xe/+MUFNmNkYz2qy64IpCJAQKfCSqE+BOzN3QOtZ/uwLdjfTiHtAtrNvHBhfbxj1R4OcQv6q0euNaPtDeGb7HVa/9izZ89FPupLGQj4FiCgfYtSnjcB9aJnzZr1gC2cpHWh4/cRuuENjStrhod+1lCFvnevvlIA25OI8QL++t6CONJTidpOP+ufzdzYdsMNN/xs1KhRE7xVmIIQ8CxAQHsGpTi/Agppm2ExTSHdtm3bVu4N3upFK3AVyvZ7raVx7P2EmjvtetzaRmtK6+/aRzcFLdy33njjjQ+PHDmScPbbXJTmWYCA9gxKcf4FFNI1NTVTnnjiiRts3LhD165d4x6zG+JwTwe6t3jrRbIaX1avWb9zL5DVsqK27frrr7/+kbFjx070X1NKRMCvAAHt15PSUhRYuXLlFfaW7ynWCz7DhjAa2RKhx14G62ZquHcXajjEvWRWYW3/Dtp0uv++5557fnjeeectSbGaFI2ANwEC2hslBVVC4OiC/ve+8sorV9g6zl1siKO1DV1UaWlSBbF7e7eGNGysWa8A32VT9VZdc801C+wtLbOYrVGJVuIYvgQIaF+SlFNxAetRX2qvxzp/8eLFfezgzexm4GGb8aEhjUN2g3DPt771rddshsZbZ5555jsEc8WbhwN6ECCgPSBSRPYCtrhSe+spa1YH85mzbw5q4EmAgPYESTEIIICAbwEC2rco5SGAAAKeBAhoT5AUgwACCPgWIKB9i1IeAggg4EmAgPYESTEIIICAbwEC2rco5SGAAAKeBAhoT5AUgwACCPgWIKB9i1IeAggg4EmAgPYESTEIIICAbwEC2rco5SGAAAKeBAhoT5AUgwACCPgWIKB9i1IeAggg4EmAgPYESTEIIICAbwEC2rco5SGAAAKeBAhoT5AUgwACCPgWIKB9i1IeAggg4EmAgPYESTEIIICAbwEC2rco5SGAAAKeBAhoT5AUgwACCPgWIKB9i1IeAggg4EmAgPYESTEIIICAbwEC2rco5SGAAAKeBAhoT5AUgwACCPgWIKB9i1IeAggg4EmAgPYESTEIIICAbwEC2rco5SGAAPbqLT8AAALOSURBVAKeBAhoT5AUgwACCPgWIKB9i1IeAggg4EmAgPYESTEIIICAbwEC2rco5SGAAAKeBAhoT5AUgwACCPgWIKB9i1IeAggg4EmAgPYESTEIIICAbwEC2rco5SGAAAKeBAhoT5AUgwACCPgWIKB9i1IeAggg4EmAgPYESTEIIICAbwEC2rco5SGAAAKeBAhoT5AUgwACCPgWIKB9i1IeAggg4EmAgPYESTEIIICAbwEC2rco5SGAAAKeBAhoT5AUgwACCPgWIKB9i1IeAggg4EmAgPYESTEIIICAbwEC2rco5SGAAAKeBAhoT5AUgwACCPgWIKB9i1IeAggg4EmAgPYESTEIIICAbwEC2rco5SGAAAKeBAhoT5AUgwACCPgWIKB9i1IeAggg4EmAgPYESTEIIICAbwEC2rco5SGAAAKeBAhoT5AUgwACCPgWIKB9i1IeAggg4EmAgPYESTEIIICAbwEC2rco5SGAAAKeBAhoT5AUgwACCPgWIKB9i1IeAggg4EmAgPYESTEIIICAbwEC2rco5SGAAAKeBAhoT5AUgwACCPgWIKB9i1IeAggg4EmAgPYESTEIIICAbwEC2rco5SGAAAKeBAhoT5AUgwACCPgWIKB9i1IeAggg4EmAgPYESTEIIICAbwEC2rco5SGAAAKeBAhoT5AUgwACCPgWIKB9i1IeAggg4EmAgPYESTEIIICAbwEC2rco5SGAAAKeBAhoT5AUgwACCPgWIKB9i1IeAggg4EmAgPYESTEIIICAbwEC2rco5SGAAAKeBAhoT5AUgwACCPgWIKB9i1IeAggg4EmAgPYESTEIIICAbwEC2rco5SGAAAKeBAhoT5AUgwACCPgWIKB9i1IeAggg4EmAgPYESTEIIICAbwEC2rco5SGAAAKeBAhoT5AUgwACCPgWIKB9i1IeAggg4EmAgPYESTEIIICAb4H/BbiZE/+OutmcAAAAAElFTkSuQmCC;" vertex="1" parent="1">
          <mxGeometry x="180" y="480" width="34" height="34" as="geometry" />
        </mxCell>
      </root>
    </mxGraphModel>
  </diagram>
</mxfile>
